{
.appVersion = "1141";
DisplayStrings = (
"/ha-ethiopic",
"/intersection",
"/_part.hu",
"",
"/la-ethiopic",
"/hha-ethiopic",
"/ma-ethiopic",
"/sza-ethiopic",
"/ra-ethiopic",
"",
"",
"/ta-ethiopic",
i,
"/aGlottal-ethiopic",
"",
"",
"/ka-ethiopic",
"/ya-ethiopic",
"/da-ethiopic",
"/pha-ethiopic",
"/fa-ethiopic",
"/yu-ethiopic",
"",
"/ha-ethiopic/sa-ethiopic",
"/sa-ethiopic",
"/sha-ethiopic",
"p/qa-ethiopic",
"",
"/qa-ethiopic",
"/ha-ethiopic/ba-ethiopic",
"/ba-ethiopic",
"/va-ethiopic",
"/ca-ethiopic",
"/xa-ethiopic",
"/na-ethiopic",
"/nya-ethiopic",
"/kxa-ethiopic",
"/wa-ethiopic",
m,
n,
f,
j,
"/wu-ethiopic",
"/za-ethiopic",
"/zha-ethiopic",
"´/ga-ethiopic",
"/ga-ethiopic",
"/tha-ethiopic",
"/_part.o/cha-ethiopic",
"Å",
"/chu-ethiopic",
"/cha-ethiopic",
"/pa-ethiopic",
"/hi-ethiopic",
"/haa-ethiopic",
"/hee-ethiopic",
"/he-ethiopic",
"/ho-ethiopic",
"/hoa-ethiopic",
"/lu-ethiopic",
"/li-ethiopic",
"/laa-ethiopic",
"/lee-ethiopic",
"/lee-ethiopic",
"/le-ethiopic",
"/lo-ethiopic",
"/_part.hwo/lwa-ethiopic",
"/lwa-ethiopic",
"/hhu-ethiopic",
"/hhi-ethiopic",
"/hhaa-ethiopic",
"/_part.tip/hhee-ethiopic",
"/hhee-ethiopic",
"/_part.h/hhe-ethiopic",
"/hho-ethiopic",
"/hhwa-ethiopic",
"/mu-ethiopic",
"/mi-ethiopic",
"/maa-ethiopic",
"/mee-ethiopic",
"/me-ethiopic",
"/_part.me/me-ethiopic",
"j/mo-ethiopic",
"/mo-ethiopic",
"/mwa-ethiopic",
"/szu-ethiopic",
"/szi-ethiopic",
"/szaa-ethiopic",
"/szee-ethiopic",
"/sze-ethiopic",
"/szo-ethiopic",
"/szwa-ethiopic",
"/ru-ethiopic",
"/racute/ri-ethiopic",
"/ri-ethiopic",
"/raa-ethiopic",
"/integral",
"/ree-ethiopic",
"/re-ethiopic",
"/ro-ethiopic",
"/rwa-ethiopic",
"/su-ethiopic",
"/si-ethiopic",
"/saa-ethiopic",
"/see-ethiopic",
"/se-ethiopic",
"/so-ethiopic",
"/swa-ethiopic",
"/shu-ethiopic",
"/shi-ethiopic",
"/shaa-ethiopic",
"/shee-ethiopic",
"/she-ethiopic",
"/sho-ethiopic",
"/shwa-ethiopic",
"/qu-ethiopic",
"/qi-ethiopic",
"/qaa-ethiopic",
"/qee-ethiopic",
"/hhe-ethiopic",
"/qe-ethiopic",
"/qo-ethiopic",
"/qoa-ethiopic",

glyphs = (
{
glyphname = .notdef;
lastChange = "2018-11-25 06:09:51 +0000";
layers = (
{
layerId = "43C596A3-827A-4C98-B0F6-D1945E7BEF5E";
paths = (
{
closed = 1;
nodes = (
"1127 0 LINE",
"1127 1280 LINE",
"103 1280 LINE",
"103 0 LINE"
);
},
{
closed = 1;
nodes = (
"135 1248 LINE",
"1095 1248 LINE",
"1095 32 LINE",
"135 32 LINE"
);
}
);
userData = {
assembly = "PUSHB[ ]\011/* 2 values pushed */
6 7 
PUSHW[ ]\011/* 1 value pushed */
268 
PUSHB[ ]\011/* 5 values pushed */
2 1 0 5 4 
PUSHW[ ]\011/* 1 value pushed */
268 
PUSHB[ ]\011/* 5 values pushed */
3 0 10 6 5 
PUSHW[ ]\011/* 1 value pushed */
268 
PUSHB[ ]\011/* 7 values pushed */
3 3 2 26 9 7 4 
PUSHW[ ]\011/* 1 value pushed */
268 
PUSHB[ ]\011/* 7 values pushed */
1 0 25 8 79 123 24 
CALL[ ]\011/* CallFunction */
FLIPOFF[ ]\011/* SetAutoFlipOff */
SRP0[ ]\011/* SetRefPoint0 */
MIRP[10100]\011/* MoveIndirectRelPt */
ALIGNRP[ ]\011/* AlignRelativePt */
FLIPON[ ]\011/* SetAutoFlipOn */
MIRP[11101]\011/* MoveIndirectRelPt */
ALIGNRP[ ]\011/* AlignRelativePt */
FLIPOFF[ ]\011/* SetAutoFlipOff */
SRP0[ ]\011/* SetRefPoint0 */
MIRP[10110]\011/* MoveIndirectRelPt */
ALIGNRP[ ]\011/* AlignRelativePt */
FLIPON[ ]\011/* SetAutoFlipOn */
SRP0[ ]\011/* SetRefPoint0 */
MIRP[11101]\011/* MoveIndirectRelPt */
ALIGNRP[ ]\011/* AlignRelativePt */
SVTCA[0]\011/* SetFreedomAndProjectionVectorToAxis */
MIAP[1]\011/* MoveIndirectAbsPt */
ALIGNRP[ ]\011/* AlignRelativePt */
MIRP[11101]\011/* MoveIndirectRelPt */
ALIGNRP[ ]\011/* AlignRelativePt */
MIAP[1]\011/* MoveIndirectAbsPt */
ALIGNRP[ ]\011/* AlignRelativePt */
MIRP[11101]\011/* MoveIndirectRelPt */
ALIGNRP[ ]\011/* AlignRelativePt */
IUP[1]\011/* InterpolateUntPts */
IUP[0]\011/* InterpolateUntPts */";
};
width = 1229;
}
);
note = .notdef;
},
{
glyphname = exclam;
lastChange = "2018-11-25 06:09:51 +0000";
layers = (
{
layerId = "43C596A3-827A-4C98-B0F6-D1945E7BEF5E";
paths = (
{
closed = 1;
nodes = (
"695.667 1186 OFFCURVE",
"696 1197.333 OFFCURVE",
"696 1204 CURVE SMOOTH",
"696 1250.667 OFFCURVE",
"661.667 1285 OFFCURVE",
"615 1285 CURVE SMOOTH",
"568.333 1285 OFFCURVE",
"533 1250.333 OFFCURVE",
"533 1205 CURVE SMOOTH",
"533 1197.667 OFFCURVE",
"533.667 1186 OFFCURVE",
"535 1170 CURVE SMOOTH",
"572 492 LINE SMOOTH",
"574.667 449.333 OFFCURVE",
"591 434 OFFCURVE",
"615 434 CURVE SMOOTH",
"637.667 434 OFFCURVE",
"654.333 449.333 OFFCURVE",
"657 492 CURVE SMOOTH",
"695 1170 LINE SMOOTH"
);
},
{
closed = 1;
nodes = (
"539 178 OFFCURVE",
"491 133 OFFCURVE",
"491 73 CURVE SMOOTH",
"491 17 OFFCURVE",
"537.667 -30 OFFCURVE",
"595 -30 CURVE SMOOTH",
"634 -30 LINE SMOOTH",
"690 -30 OFFCURVE",
"738 15.333 OFFCURVE",
"738 74 CURVE SMOOTH",
"738 131.333 OFFCURVE",
"691.333 178 OFFCURVE",
"634 178 CURVE SMOOTH",
"595 178 LINE SMOOTH"
);
}
);
userData = {
assembly = "NPUSHB[ ]\011/* 15 values pushed */
214 11 229 11 2 8 7 10 0 16 1 19 116 26 4 
PUSHW[ ]\011/* 1 value pushed */
439 
NPUSHB[ ]\011/* 19 values pushed */
13 0 26 11 22 174 16 62 1 10 62 29 174 1 91 0 7 1 7 
PUSHW[ ]\011/* 5 values pushed */
585 32 254 334 24 
CALL[ ]\011/* CallFunction */
SRP0[ ]\011/* SetRefPoint0 */
MIRP[10110]\011/* MoveIndirectRelPt */
DELTAP1[ ]\011/* DeltaExceptionP1 */
MIRP[01101]\011/* MoveIndirectRelPt */
MIRP[00100]\011/* MoveIndirectRelPt */
MIRP[00100]\011/* MoveIndirectRelPt */
SRP0[ ]\011/* SetRefPoint0 */
MIRP[00100]\011/* MoveIndirectRelPt */
MIRP[00100]\011/* MoveIndirectRelPt */
SVTCA[0]\011/* SetFreedomAndProjectionVectorToAxis */
MIAP[1]\011/* MoveIndirectAbsPt */
MIAP[1]\011/* MoveIndirectAbsPt */
MIRP[01101]\011/* MoveIndirectRelPt */
SRP0[ ]\011/* SetRefPoint0 */
MIRP[01101]\011/* MoveIndirectRelPt */
SVTCA[1]\011/* SetFreedomAndProjectionVectorToAxis */
SRP1[ ]\011/* SetRefPoint1 */
SRP2[ ]\011/* SetRefPoint2 */
IP[ ]\011/* InterpolatePts */
SRP1[ ]\011/* SetRefPoint1 */
SRP2[ ]\011/* SetRefPoint2 */
IP[ ]\011/* InterpolatePts */
IUP[1]\011/* InterpolateUntPts */
IUP[0]\011/* InterpolateUntPts */
SVTCA[1]\011/* SetFreedomAndProjectionVectorToAxis */
DELTAP2[ ]\011/* DeltaExceptionP2 */";
};
width = 1229;
}
);
note = exclam;
unicode = 0021;
},
{
glyphname = quotedbl;
lastChange = "2018-11-25 06:09:51 +0000";
layers = (
{
layerId = "43C596A3-827A-4C98-B0F6-D1945E7BEF5E";
paths = (
{
closed = 1;
nodes = (
"336 748 LINE SMOOTH",
"344 697.333 OFFCURVE",
"365.667 679 OFFCURVE",
"399 679 CURVE SMOOTH",
"432.333 679 OFFCURVE",
"454 697.333 OFFCURVE",
"462 748 CURVE SMOOTH",
"532 1234 LINE",
"266 1234 LINE"
);
},
{
closed = 1;
nodes = (
"766 748 LINE SMOOTH",
"772.667 697.333 OFFCURVE",
"794.333 679 OFFCURVE",
"829 679 CURVE SMOOTH",
"861 679 OFFCURVE",
"883 697.333 OFFCURVE",
"891 748 CURVE SMOOTH",
"961 1234 LINE",
"695 1234 LINE"
);
}
);
userData = {
assembly = "PUSHB[ ]\011/* 2 values pushed */
14 5 
PUSHW[ ]\011/* 1 value pushed */
646 
NPUSHB[ ]\011/* 10 values pushed */
1 10 9 9 0 1 0 10 215 9 
PUSHW[ ]\011/* 3 values pushed */
676 11 702 
NPUSHB[ ]\011/* 12 values pushed */
32 17 191 17 207 17 223 17 239 17 5 17 
PUSHW[ ]\011/* 3 values pushed */
278 2 702 
PUSHB[ ]\011/* 4 values pushed */
8 1 215 0 
PUSHW[ ]\011/* 1 value pushed */
676 
PUSHB[ ]\011/* 6 values pushed */
48 8 111 8 2 8 
PUSHW[ ]\011/* 5 values pushed */
665 18 241 336 24 
CALL[ ]\011/* CallFunction */
SRP0[ ]\011/* SetRefPoint0 */
MIRP[10110]\011/* MoveIndirectRelPt */
DELTAP1[ ]\011/* DeltaExceptionP1 */
MIRP[10100]\011/* MoveIndirectRelPt */
MIRP[01101]\011/* MoveIndirectRelPt */
SRP0[ ]\011/* SetRefPoint0 */
MIRP[11101]\011/* MoveIndirectRelPt */
MIRP[10110]\011/* MoveIndirectRelPt */
DELTAP1[ ]\011/* DeltaExceptionP1 */
MIRP[01101]\011/* MoveIndirectRelPt */
MIRP[10100]\011/* MoveIndirectRelPt */
MIRP[01101]\011/* MoveIndirectRelPt */
SVTCA[0]\011/* SetFreedomAndProjectionVectorToAxis */
MIAP[1]\011/* MoveIndirectAbsPt */
ALIGNRP[ ]\011/* AlignRelativePt */
ALIGNRP[ ]\011/* AlignRelativePt */
SRP0[ ]\011/* SetRefPoint0 */
ALIGNRP[ ]\011/* AlignRelativePt */
SRP0[ ]\011/* SetRefPoint0 */
MIRP[10100]\011/* MoveIndirectRelPt */
ALIGNRP[ ]\011/* AlignRelativePt */
IUP[1]\011/* InterpolateUntPts */
IUP[0]\011/* InterpolateUntPts */";
};
width = 1229;
}
);
note = quotedbl;
unicode = 0022;
},
{
glyphname = numbersign;
lastChange = "2018-11-25 06:09:51 +0000";
layers = (
{
layerId = "43C596A3-827A-4C98-B0F6-D1945E7BEF5E";
paths = (
{
closed = 1;
nodes = (
"985 740 LINE SMOOTH",
"1025 740 OFFCURVE",
"1041 756.667 OFFCURVE",
"1041 782 CURVE SMOOTH",
"1041 807.333 OFFCURVE",
"1025 824 OFFCURVE",
"985 824 CURVE SMOOTH",
"806 824 LINE",
"839 1286 LINE",
"840 1302 LINE",
"840 1318 OFFCURVE",
"831.333 1331.333 OFFCURVE",
"814 1342 CURVE",
"797 1346 LINE",
"774.333 1346 OFFCURVE",
"757.667 1330.667 OFFCURVE",
"755 1292 CURVE SMOOTH",
"722 824 LINE",
"533 824 LINE",
"565 1286 LINE",
"566 1302 LINE",
"566 1318 OFFCURVE",
"557.667 1331.333 OFFCURVE",
"541 1342 CURVE",
"523 1346 LINE",
"501.667 1346 OFFCURVE",
"483.667 1330.667 OFFCURVE",
"481 1292 CURVE SMOOTH",
"448 824 LINE",
"286 824 LINE SMOOTH",
"244.667 824 OFFCURVE",
"229 807.333 OFFCURVE",
"229 782 CURVE SMOOTH",
"229 756.667 OFFCURVE",
"244.667 740 OFFCURVE",
"286 740 CURVE SMOOTH",
"442 740 LINE",
"424 476 LINE",
"243 476 LINE SMOOTH",
"203 476 OFFCURVE",
"187 459.333 OFFCURVE",
"187 434 CURVE SMOOTH",
"187 408.667 OFFCURVE",
"203 392 OFFCURVE",
"243 392 CURVE SMOOTH",
"418 392 LINE",
"386 -70 LINE",
"385 -85 LINE",
"385 -102.333 OFFCURVE",
"393.333 -116 OFFCURVE",
"410 -126 CURVE",
"428 -130 LINE",
"449.333 -130 OFFCURVE",
"467.333 -116 OFFCURVE",
"470 -76 CURVE SMOOTH",
"502 392 LINE",
"692 392 LINE",
"659 -70 LINE",
"659 -85 LINE SMOOTH",
"659 -102.333 OFFCURVE",
"667.333 -116 OFFCURVE",
"684 -126 CURVE",
"701 -130 LINE",
"723.667 -130 OFFCURVE",
"740.333 -116 OFFCURVE",
"743 -76 CURVE SMOOTH",
"776 392 LINE",
"943 392 LINE SMOOTH",
"983 392 OFFCURVE",
"999 408.667 OFFCURVE",
"999 434 CURVE SMOOTH",
"999 459.333 OFFCURVE",
"983 476 OFFCURVE",
"943 476 CURVE SMOOTH",
"782 476 LINE",
"800 740 LINE"
);
},
{
closed = 1;
nodes = (
"698 476 LINE",
"508 476 LINE",
"527 740 LINE",
"716 740 LINE"
);
}
);
userData = {
assembly = "NPUSHB[ ]\011/* 51 values pushed */
80 19 80 28 159 20 159 27 175 20 175 26 175 27 7 71 0 72 38 37 73 65 64 55 44 45 54 91 73 64 19 53 73 182 49 59 49 2 1 75 35 36 74 8 9 18 29 28 19 91 74 
PUSHW[ ]\011/* 1 value pushed */
-64 
PUSHB[ ]\011/* 3 values pushed */
34 53 74 
PUSHW[ ]\011/* 1 value pushed */
-64 
PUSHB[ ]\011/* 3 values pushed */
36 53 74 
PUSHW[ ]\011/* 1 value pushed */
-64 
PUSHB[ ]\011/* 3 values pushed */
29 53 74 
PUSHW[ ]\011/* 1 value pushed */
-64 
PUSHB[ ]\011/* 7 values pushed */
23 53 74 182 23 13 23 
PUSHB[ ]\011/* 2 values pushed */
6 2 
RS[ ]\011/* ReadStore */
EQ[ ]\011/* Equal */
IF[ ]\011/* If */
ELSE[ ]\011/* Else */
NPUSHB[ ]\011/* 61 values pushed */
5 160 1 68 160 64 41 160 45 32 160 36 1 91 75 0 91 72 64 91 55 63 91 56 62 55 52 72 52 75 52 18 10 91 17 9 91 17 62 18 64 42 150 52 18 64 34 53 18 64 22 58 52 18 64 15 53 95 18 1 18 
PUSHW[ ]\011/* 1 value pushed */
592 
NPUSHB[ ]\011/* 45 values pushed */
77 46 91 53 45 91 54 37 91 73 36 91 74 53 62 54 52 73 52 80 74 1 74 52 19 27 91 20 144 24 160 24 2 28 91 80 20 144 20 160 20 3 20 62 19 
PUSHW[ ]\011/* 1 value pushed */
-64 
NPUSHB[ ]\011/* 11 values pushed */
42 150 52 16 19 144 19 160 19 3 19 
PUSHW[ ]\011/* 5 values pushed */
753 76 241 337 24 
CALL[ ]\011/* CallFunction */
SRP0[ ]\011/* SetRefPoint0 */
MIRP[10100]\011/* MoveIndirectRelPt */
DELTAP1[ ]\011/* DeltaExceptionP1 */
CALL[ ]\011/* CallFunction */
MIRP[01100]\011/* MoveIndirectRelPt */
DELTAP1[ ]\011/* DeltaExceptionP1 */
MIRP[01101]\011/* MoveIndirectRelPt */
DELTAP1[ ]\011/* DeltaExceptionP1 */
SRP0[ ]\011/* SetRefPoint0 */
MIRP[01101]\011/* MoveIndirectRelPt */
SRP0[ ]\011/* SetRefPoint0 */
MIRP[10100]\011/* MoveIndirectRelPt */
DELTAP1[ ]\011/* DeltaExceptionP1 */
MIRP[10100]\011/* MoveIndirectRelPt */
MIRP[10100]\011/* MoveIndirectRelPt */
MIRP[01100]\011/* MoveIndirectRelPt */
SRP0[ ]\011/* SetRefPoint0 */
MIRP[01101]\011/* MoveIndirectRelPt */
SRP0[ ]\011/* SetRefPoint0 */
MIRP[01101]\011/* MoveIndirectRelPt */
SRP0[ ]\011/* SetRefPoint0 */
MIRP[01101]\011/* MoveIndirectRelPt */
SRP0[ ]\011/* SetRefPoint0 */
MIRP[01101]\011/* MoveIndirectRelPt */
SRP0[ ]\011/* SetRefPoint0 */
MIRP[10100]\011/* MoveIndirectRelPt */
DELTAP1[ ]\011/* DeltaExceptionP1 */
CALL[ ]\011/* CallFunction */
CALL[ ]\011/* CallFunction */
CALL[ ]\011/* CallFunction */
CALL[ ]\011/* CallFunction */
MIRP[01100]\011/* MoveIndirectRelPt */
MIRP[01101]\011/* MoveIndirectRelPt */
SRP0[ ]\011/* SetRefPoint0 */
MIRP[01101]\011/* MoveIndirectRelPt */
SRP0[ ]\011/* SetRefPoint0 */
MIRP[10100]\011/* MoveIndirectRelPt */
MIRP[10100]\011/* MoveIndirectRelPt */
MIRP[10100]\011/* MoveIndirectRelPt */
MIRP[11100]\011/* MoveIndirectRelPt */
MIRP[01101]\011/* MoveIndirectRelPt */
SRP0[ ]\011/* SetRefPoint0 */
MIRP[01101]\011/* MoveIndirectRelPt */
SRP0[ ]\011/* SetRefPoint0 */
MIRP[01101]\011/* MoveIndirectRelPt */
SRP0[ ]\011/* SetRefPoint0 */
MIRP[01101]\011/* MoveIndirectRelPt */
SRP0[ ]\011/* SetRefPoint0 */
MIRP[00100]\011/* MoveIndirectRelPt */
SRP0[ ]\011/* SetRefPoint0 */
MIRP[00100]\011/* MoveIndirectRelPt */
SRP0[ ]\011/* SetRefPoint0 */
MIRP[00100]\011/* MoveIndirectRelPt */
SRP0[ ]\011/* SetRefPoint0 */
MIRP[00100]\011/* MoveIndirectRelPt */
EIF[ ]\011/* EndIf */
SVTCA[0]\011/* SetFreedomAndProjectionVectorToAxis */
MDAP[1]\011/* MoveDirectAbsPt */
MDAP[1]\011/* MoveDirectAbsPt */
SRP0[ ]\011/* SetRefPoint0 */
MIRP[11101]\011/* MoveIndirectRelPt */
CALL[ ]\011/* CallFunction */
CALL[ ]\011/* CallFunction */
CALL[ ]\011/* CallFunction */
CALL[ ]\011/* CallFunction */
MIRP[11101]\011/* MoveIndirectRelPt */
ALIGNRP[ ]\011/* AlignRelativePt */
ALIGNRP[ ]\011/* AlignRelativePt */
ALIGNRP[ ]\011/* AlignRelativePt */
ALIGNRP[ ]\011/* AlignRelativePt */
ALIGNRP[ ]\011/* AlignRelativePt */
SRP0[ ]\011/* SetRefPoint0 */
ALIGNRP[ ]\011/* AlignRelativePt */
ALIGNRP[ ]\011/* AlignRelativePt */
ALIGNRP[ ]\011/* AlignRelativePt */
ALIGNRP[ ]\011/* AlignRelativePt */
ALIGNRP[ ]\011/* AlignRelativePt */
MDAP[1]\011/* MoveDirectAbsPt */
MDAP[1]\011/* MoveDirectAbsPt */
SRP0[ ]\011/* SetRefPoint0 */
MIRP[11101]\011/* MoveIndirectRelPt */
CALL[ ]\011/* CallFunction */
MIRP[11101]\011/* MoveIndirectRelPt */
ALIGNRP[ ]\011/* AlignRelativePt */
ALIGNRP[ ]\011/* AlignRelativePt */
ALIGNRP[ ]\011/* AlignRelativePt */
ALIGNRP[ ]\011/* AlignRelativePt */
ALIGNRP[ ]\011/* AlignRelativePt */
SRP0[ ]\011/* SetRefPoint0 */
ALIGNRP[ ]\011/* AlignRelativePt */
ALIGNRP[ ]\011/* AlignRelativePt */
ALIGNRP[ ]\011/* AlignRelativePt */
ALIGNRP[ ]\011/* AlignRelativePt */
ALIGNRP[ ]\011/* AlignRelativePt */
IUP[1]\011/* InterpolateUntPts */
IUP[0]\011/* InterpolateUntPts */
SVTCA[1]\011/* SetFreedomAndProjectionVectorToAxis */
DELTAP1[ ]\011/* DeltaExceptionP1 */";
};
width = 1229;
}
);
note = numbersign;
unicode = 0023;
},
{
glyphname = dollar;
lastChange = "2018-11-25 06:09:51 +0000";
layers = (
{
layerId = "43C596A3-827A-4C98-B0F6-D1945E7BEF5E";
paths = (
{
closed = 1;
nodes = (
"389.667 1176.667 OFFCURVE",
"271 1048 OFFCURVE",
"271 904 CURVE SMOOTH",
"271 826.667 OFFCURVE",
"296.333 768 OFFCURVE",
"347 728 CURVE SMOOTH",
"397 688 OFFCURVE",
"486.667 655.333 OFFCURVE",
"616 630 CURVE SMOOTH",
"705.333 613.333 OFFCURVE",
"764 599.333 OFFCURVE",
"792 588 CURVE SMOOTH",
"877.333 552 OFFCURVE",
"916 496.667 OFFCURVE",
"916 418 CURVE SMOOTH",
"916 299.333 OFFCURVE",
"801 195 OFFCURVE",
"613 195 CURVE SMOOTH",
"431.667 195 OFFCURVE",
"320 288.333 OFFCURVE",
"312 359 CURVE",
"310.667 379.667 OFFCURVE",
"307 393 OFFCURVE",
"301 399 CURVE SMOOTH",
"292.333 407.667 OFFCURVE",
"282 412 OFFCURVE",
"270 412 CURVE SMOOTH",
"244.667 412 OFFCURVE",
"228 395 OFFCURVE",
"228 355 CURVE SMOOTH",
"228 191 LINE SMOOTH",
"228 151 OFFCURVE",
"246 135 OFFCURVE",
"270 135 CURVE SMOOTH",
"309.182 135 OFFCURVE",
"312 163.086 OFFCURVE",
"312 213 CURVE",
"382 153 OFFCURVE",
"468.333 119.667 OFFCURVE",
"571 113 CURVE",
"571 -134 LINE SMOOTH",
"571 -175.333 OFFCURVE",
"587.667 -191 OFFCURVE",
"613 -191 CURVE SMOOTH",
"638.333 -191 OFFCURVE",
"655 -175.333 OFFCURVE",
"655 -134 CURVE SMOOTH",
"655 113 LINE",
"877.667 135.667 OFFCURVE",
"1000 265 OFFCURVE",
"1000 417 CURVE SMOOTH",
"1000 530.333 OFFCURVE",
"947.667 610.333 OFFCURVE",
"841 657 CURVE SMOOTH",
"803.667 674.333 OFFCURVE",
"732.5 692.833 OFFCURVE",
"627.5 712.5 CURVE SMOOTH",
"522.5 732.167 OFFCURVE",
"453.667 753.333 OFFCURVE",
"421 776 CURVE SMOOTH",
"377.667 805.333 OFFCURVE",
"356 847.667 OFFCURVE",
"356 903 CURVE SMOOTH",
"356 1013.667 OFFCURVE",
"465.333 1118 OFFCURVE",
"616 1118 CURVE SMOOTH",
"690 1118 OFFCURVE",
"754.333 1100 OFFCURVE",
"809 1064 CURVE SMOOTH",
"846.333 1038.667 OFFCURVE",
"867 1010.333 OFFCURVE",
"871 979 CURVE SMOOTH",
"876.333 945.667 OFFCURVE",
"891.667 933 OFFCURVE",
"913 933 CURVE SMOOTH",
"938.333 933 OFFCURVE",
"956 949 OFFCURVE",
"956 989 CURVE SMOOTH",
"956 1114 LINE SMOOTH",
"956 1154 OFFCURVE",
"938.333 1170 OFFCURVE",
"913 1170 CURVE SMOOTH",
"890.333 1170 OFFCURVE",
"872.333 1154.333 OFFCURVE",
"871 1121 CURVE",
"791 1174.333 OFFCURVE",
"745.667 1190 OFFCURVE",
"655 1198 CURVE",
"655 1304 LINE SMOOTH",
"655 1345.333 OFFCURVE",
"638.333 1361 OFFCURVE",
"613 1361 CURVE SMOOTH",
"587.667 1361 OFFCURVE",
"571 1345.333 OFFCURVE",
"571 1304 CURVE SMOOTH",
"571 1198 LINE"
);
}
);
userData = {
assembly = "NPUSHB[ ]\011/* 50 values pushed */
34 34 12 16 63 74 35 74 36 120 35 121 36 191 0 219 26 6 85 34 132 34 181 34 181 36 4 88 8 32 33 34 35 36 37 38 7 39 31 80 79 78 77 76 75 74 7 73 82 63 
PUSHW[ ]\011/* 1 value pushed */
715 
PUSHB[ ]\011/* 3 values pushed */
56 225 70 
PUSHW[ ]\011/* 1 value pushed */
347 
PUSHB[ ]\011/* 3 values pushed */
50 50 42 
NPUSHW[ ]\011/* 12 values pushed */
641 46 21 713 14 269 8 0 483 4 28 347 
PUSHB[ ]\011/* 5 values pushed */
8 191 0 1 0 
PUSHW[ ]\011/* 7 values pushed */
483 4 24 347 18 11 347 
PUSHB[ ]\011/* 3 values pushed */
17 17 18 
PUSHW[ ]\011/* 1 value pushed */
269 
PUSHB[ ]\011/* 4 values pushed */
39 50 103 42 
PUSHW[ ]\011/* 1 value pushed */
718 
PUSHB[ ]\011/* 7 values pushed */
59 73 61 39 26 86 52 
NPUSHW[ ]\011/* 10 values pushed */
347 67 347 59 269 82 0 347 8 641 
PUSHB[ ]\011/* 3 values pushed */
31 61 82 
PUSHW[ ]\011/* 6 values pushed */
623 85 161 262 24 356 
SCANCTRL[ ]\011/* ScanConversionControl */
CALL[ ]\011/* CallFunction */
SRP0[ ]\011/* SetRefPoint0 */
MIRP[10110]\011/* MoveIndirectRelPt */
MIRP[11101]\011/* MoveIndirectRelPt */
MIRP[10100]\011/* MoveIndirectRelPt */
MIRP[01101]\011/* MoveIndirectRelPt */
SRP0[ ]\011/* SetRefPoint0 */
MIRP[10100]\011/* MoveIndirectRelPt */
MIRP[01101]\011/* MoveIndirectRelPt */
MIRP[01101]\011/* MoveIndirectRelPt */
FLIPOFF[ ]\011/* SetAutoFlipOff */
SRP0[ ]\011/* SetRefPoint0 */
MIRP[10110]\011/* MoveIndirectRelPt */
FLIPON[ ]\011/* SetAutoFlipOn */
MIRP[01101]\011/* MoveIndirectRelPt */
SRP0[ ]\011/* SetRefPoint0 */
MIRP[11101]\011/* MoveIndirectRelPt */
MIRP[01101]\011/* MoveIndirectRelPt */
SRP0[ ]\011/* SetRefPoint0 */
MIRP[10100]\011/* MoveIndirectRelPt */
ALIGNRP[ ]\011/* AlignRelativePt */
SRP0[ ]\011/* SetRefPoint0 */
MIRP[01101]\011/* MoveIndirectRelPt */
SRP0[ ]\011/* SetRefPoint0 */
MIRP[01101]\011/* MoveIndirectRelPt */
SVTCA[0]\011/* SetFreedomAndProjectionVectorToAxis */
MDAP[1]\011/* MoveDirectAbsPt */
MIRP[10100]\011/* MoveIndirectRelPt */
DELTAP1[ ]\011/* DeltaExceptionP1 */
ALIGNRP[ ]\011/* AlignRelativePt */
MIRP[01101]\011/* MoveIndirectRelPt */
SRP0[ ]\011/* SetRefPoint0 */
MIRP[00100]\011/* MoveIndirectRelPt */
SRP0[ ]\011/* SetRefPoint0 */
MIRP[10100]\011/* MoveIndirectRelPt */
MIRP[01101]\011/* MoveIndirectRelPt */
MDAP[1]\011/* MoveDirectAbsPt */
MIRP[10100]\011/* MoveIndirectRelPt */
ALIGNRP[ ]\011/* AlignRelativePt */
SRP0[ ]\011/* SetRefPoint0 */
MIRP[01101]\011/* MoveIndirectRelPt */
MIRP[10100]\011/* MoveIndirectRelPt */
MIRP[01101]\011/* MoveIndirectRelPt */
SRP1[ ]\011/* SetRefPoint1 */
SRP2[ ]\011/* SetRefPoint2 */
SLOOP[ ]\011/* SetLoopVariable */
IP[ ]\011/* InterpolatePts */
SRP1[ ]\011/* SetRefPoint1 */
SRP2[ ]\011/* SetRefPoint2 */
SLOOP[ ]\011/* SetLoopVariable */
IP[ ]\011/* InterpolatePts */
IUP[1]\011/* InterpolateUntPts */
IUP[0]\011/* InterpolateUntPts */
RS[ ]\011/* ReadStore */
JROF[ ]\011/* JumpRelativeOnFalse */
NPUSHB[ ]\011/* 60 values pushed */
71 84 29 41 37 37 75 38 29 84 31 64 0 33 80 31 64 0 76 36 73 64 1 71 41 73 64 1 30 83 28 64 1 84 0 32 81 34 64 0 33 34 80 79 74 38 77 64 1 36 35 76 77 72 40 70 64 0 41 42 
SRP0[ ]\011/* SetRefPoint0 */
ALIGNRP[ ]\011/* AlignRelativePt */
CALL[ ]\011/* CallFunction */
SRP0[ ]\011/* SetRefPoint0 */
ALIGNRP[ ]\011/* AlignRelativePt */
SRP0[ ]\011/* SetRefPoint0 */
ALIGNRP[ ]\011/* AlignRelativePt */
CALL[ ]\011/* CallFunction */
SRP0[ ]\011/* SetRefPoint0 */
ALIGNRP[ ]\011/* AlignRelativePt */
SRP0[ ]\011/* SetRefPoint0 */
ALIGNRP[ ]\011/* AlignRelativePt */
CALL[ ]\011/* CallFunction */
SRP0[ ]\011/* SetRefPoint0 */
ALIGNRP[ ]\011/* AlignRelativePt */
CALL[ ]\011/* CallFunction */
SVTCA[1]\011/* SetFreedomAndProjectionVectorToAxis */
CALL[ ]\011/* CallFunction */
CALL[ ]\011/* CallFunction */
CALL[ ]\011/* CallFunction */
CALL[ ]\011/* CallFunction */
CALL[ ]\011/* CallFunction */
CALL[ ]\011/* CallFunction */
FLIPRGON[ ]\011/* FlipRangeOn */
FLIPRGON[ ]\011/* FlipRangeOn */
SVTCA[1]\011/* SetFreedomAndProjectionVectorToAxis */
MPPEM[ ]\011/* MeasurePixelPerEm */
PUSHB[ ]\011/* 1 value pushed */
11 
GTEQ[ ]\011/* GreaterThanOrEqual */
MPPEM[ ]\011/* MeasurePixelPerEm */
PUSHB[ ]\011/* 1 value pushed */
37 
LTEQ[ ]\011/* LessThenOrEqual */
AND[ ]\011/* LogicalAnd */
IF[ ]\011/* If */
PUSHB[ ]\011/* 5 values pushed */
71 30 75 20 69 
PUSHW[ ]\011/* 7 values pushed */
-32 33 -20 29 -20 30 -20 
SHPIX[ ]\011/* ShiftZoneByPixel */
SHPIX[ ]\011/* ShiftZoneByPixel */
SHPIX[ ]\011/* ShiftZoneByPixel */
SHPIX[ ]\011/* ShiftZoneByPixel */
SHPIX[ ]\011/* ShiftZoneByPixel */
SHPIX[ ]\011/* ShiftZoneByPixel */
EIF[ ]\011/* EndIf */
SVTCA[0]\011/* SetFreedomAndProjectionVectorToAxis */
DELTAP2[ ]\011/* DeltaExceptionP2 */
DELTAP1[ ]\011/* DeltaExceptionP1 */
SVTCA[0]\011/* SetFreedomAndProjectionVectorToAxis */
CALL[ ]\011/* CallFunction */";
};
width = 1229;
}
);
note = dollar;
unicode = 0024;
},
{
glyphname = percent;
lastChange = "2018-11-25 06:09:51 +0000";
layers = (
{
layerId = "43C596A3-827A-4C98-B0F6-D1945E7BEF5E";
paths = (
{
closed = 1;
nodes = (
"742 1160 OFFCURVE",
"627.333 1275 OFFCURVE",
"486 1275 CURVE SMOOTH",
"344.667 1275 OFFCURVE",
"230 1160 OFFCURVE",
"230 1016 CURVE SMOOTH",
"230 872 OFFCURVE",
"344.667 756 OFFCURVE",
"486 756 CURVE SMOOTH",
"626 756 OFFCURVE",
"742 872 OFFCURVE",
"742 1016 CURVE SMOOTH"
);
},
{
closed = 1;
nodes = (
"682 905.333 OFFCURVE",
"594 817 OFFCURVE",
"486 817 CURVE SMOOTH",
"378 817 OFFCURVE",
"290 905.333 OFFCURVE",
"290 1016 CURVE SMOOTH",
"290 1126.667 OFFCURVE",
"378 1215 OFFCURVE",
"486 1215 CURVE SMOOTH",
"594 1215 OFFCURVE",
"682 1126.667 OFFCURVE",
"682 1016 CURVE SMOOTH"
);
},
{
closed = 1;
nodes = (
"1026 729 OFFCURVE",
"1033.667 733 OFFCURVE",
"1037 737 CURVE",
"1041.667 743.667 OFFCURVE",
"1044 750.333 OFFCURVE",
"1044 757 CURVE SMOOTH",
"1044 773 OFFCURVE",
"1030.333 787 OFFCURVE",
"1017 787 CURVE SMOOTH",
"1011.667 787 OFFCURVE",
"1004.333 785.667 OFFCURVE",
"995 783 CURVE",
"217 530 LINE SMOOTH",
"205 526 OFFCURVE",
"197.333 522 OFFCURVE",
"194 518 CURVE",
"189.333 511.333 OFFCURVE",
"187 504.667 OFFCURVE",
"187 498 CURVE SMOOTH",
"187 482 OFFCURVE",
"200.333 468 OFFCURVE",
"215 468 CURVE SMOOTH",
"219.667 468 OFFCURVE",
"226.667 469.333 OFFCURVE",
"236 472 CURVE",
"1014 725 LINE SMOOTH"
);
},
{
closed = 1;
nodes = (
"1001 379 OFFCURVE",
"885.333 495 OFFCURVE",
"744 495 CURVE SMOOTH",
"602.667 495 OFFCURVE",
"488 379 OFFCURVE",
"488 235 CURVE SMOOTH",
"488 92.333 OFFCURVE",
"604 -24 OFFCURVE",
"744 -24 CURVE SMOOTH",
"885.333 -24 OFFCURVE",
"1001 91 OFFCURVE",
"1001 235 CURVE SMOOTH"
);
},
{
closed = 1;
nodes = (
"940 124.333 OFFCURVE",
"852 36 OFFCURVE",
"744 36 CURVE SMOOTH",
"636 36 OFFCURVE",
"548 125.667 OFFCURVE",
"548 235 CURVE SMOOTH",
"548 345.667 OFFCURVE",
"636 434 OFFCURVE",
"744 434 CURVE SMOOTH",
"852 434 OFFCURVE",
"940 347 OFFCURVE",
"940 235 CURVE SMOOTH"
);
}
);
userData = {
assembly = "NPUSHB[ ]\011/* 75 values pushed */
200 25 1 6 34 1 107 8 29 28 27 26 25 24 43 42 41 9 31 32 33 34 35 36 37 38 39 9 40 30 24 77 31 35 223 35 2 35 35 53 3 34 77 16 25 208 25 2 25 25 3 59 55 53 255 65 55 47 21 55 3 255 15 55 9 12 55 15 0 1 0 255 18 55 6 
PUSHW[ ]\011/* 1 value pushed */
487 
NPUSHB[ ]\011/* 16 values pushed */
68 30 62 6 40 62 56 55 15 44 1 44 255 62 55 50 
PUSHW[ ]\011/* 1 value pushed */
755 
PUSHB[ ]\011/* 8 values pushed */
68 9 0 47 11 99 171 24 
CALL[ ]\011/* CallFunction */
SVTCA[0]\011/* SetFreedomAndProjectionVectorToAxis */
MIAP[1]\011/* MoveIndirectAbsPt */
MIAP[1]\011/* MoveIndirectAbsPt */
SVTCA[1]\011/* SetFreedomAndProjectionVectorToAxis */
SRP0[ ]\011/* SetRefPoint0 */
MIRP[10110]\011/* MoveIndirectRelPt */
MIRP[01101]\011/* MoveIndirectRelPt */
MIRP[11101]\011/* MoveIndirectRelPt */
DELTAP1[ ]\011/* DeltaExceptionP1 */
MIRP[01101]\011/* MoveIndirectRelPt */
MIRP[00100]\011/* MoveIndirectRelPt */
SRP0[ ]\011/* SetRefPoint0 */
MIRP[00100]\011/* MoveIndirectRelPt */
SRP0[ ]\011/* SetRefPoint0 */
MIRP[10110]\011/* MoveIndirectRelPt */
MIRP[01101]\011/* MoveIndirectRelPt */
MIRP[11101]\011/* MoveIndirectRelPt */
DELTAP1[ ]\011/* DeltaExceptionP1 */
MIRP[01101]\011/* MoveIndirectRelPt */
SVTCA[0]\011/* SetFreedomAndProjectionVectorToAxis */
SRP0[ ]\011/* SetRefPoint0 */
MIRP[01101]\011/* MoveIndirectRelPt */
MIRP[11101]\011/* MoveIndirectRelPt */
MIRP[01101]\011/* MoveIndirectRelPt */
SRP0[ ]\011/* SetRefPoint0 */
MIRP[01101]\011/* MoveIndirectRelPt */
MIRP[11101]\011/* MoveIndirectRelPt */
MIRP[01101]\011/* MoveIndirectRelPt */
SRP2[ ]\011/* SetRefPoint2 */
IP[ ]\011/* InterpolatePts */
MDAP[1]\011/* MoveDirectAbsPt */
DELTAP1[ ]\011/* DeltaExceptionP1 */
MIRP[01101]\011/* MoveIndirectRelPt */
SRP1[ ]\011/* SetRefPoint1 */
SRP2[ ]\011/* SetRefPoint2 */
IP[ ]\011/* InterpolatePts */
MDAP[1]\011/* MoveDirectAbsPt */
DELTAP1[ ]\011/* DeltaExceptionP1 */
MIRP[01101]\011/* MoveIndirectRelPt */
SVTCA[1]\011/* SetFreedomAndProjectionVectorToAxis */
SRP1[ ]\011/* SetRefPoint1 */
SRP2[ ]\011/* SetRefPoint2 */
SLOOP[ ]\011/* SetLoopVariable */
IP[ ]\011/* InterpolatePts */
SLOOP[ ]\011/* SetLoopVariable */
IP[ ]\011/* InterpolatePts */
IUP[1]\011/* InterpolateUntPts */
IUP[0]\011/* InterpolateUntPts */
RS[ ]\011/* ReadStore */
JROF[ ]\011/* JumpRelativeOnFalse */
NPUSHB[ ]\011/* 84 values pushed */
45 67 1 23 60 52 62 40 0 58 54 56 40 1 64 48 62 40 0 66 46 56 40 1 16 8 18 40 0 14 10 12 40 1 20 4 18 40 0 22 2 12 40 1 61 51 59 40 1 57 55 59 40 1 63 49 65 40 0 67 45 65 40 0 17 7 15 40 1 13 11 15 40 1 19 5 21 40 0 23 1 21 40 0 
SVTCA[0]\011/* SetFreedomAndProjectionVectorToAxis */
CALL[ ]\011/* CallFunction */
CALL[ ]\011/* CallFunction */
CALL[ ]\011/* CallFunction */
CALL[ ]\011/* CallFunction */
CALL[ ]\011/* CallFunction */
CALL[ ]\011/* CallFunction */
CALL[ ]\011/* CallFunction */
CALL[ ]\011/* CallFunction */
SVTCA[1]\011/* SetFreedomAndProjectionVectorToAxis */
CALL[ ]\011/* CallFunction */
CALL[ ]\011/* CallFunction */
CALL[ ]\011/* CallFunction */
CALL[ ]\011/* CallFunction */
CALL[ ]\011/* CallFunction */
CALL[ ]\011/* CallFunction */
CALL[ ]\011/* CallFunction */
CALL[ ]\011/* CallFunction */
FLIPRGON[ ]\011/* FlipRangeOn */
FLIPRGON[ ]\011/* FlipRangeOn */
SVTCA[1]\011/* SetFreedomAndProjectionVectorToAxis */
MPPEM[ ]\011/* MeasurePixelPerEm */
PUSHB[ ]\011/* 1 value pushed */
22 
GTEQ[ ]\011/* GreaterThanOrEqual */
MPPEM[ ]\011/* MeasurePixelPerEm */
PUSHB[ ]\011/* 1 value pushed */
37 
LTEQ[ ]\011/* LessThenOrEqual */
AND[ ]\011/* LogicalAnd */
IF[ ]\011/* If */
NPUSHB[ ]\011/* 9 values pushed */
66 28 58 28 22 28 14 28 60 
NPUSHW[ ]\011/* 9 values pushed */
-28 63 -20 64 -28 16 -28 20 -28 
SHPIX[ ]\011/* ShiftZoneByPixel */
SHPIX[ ]\011/* ShiftZoneByPixel */
SHPIX[ ]\011/* ShiftZoneByPixel */
SHPIX[ ]\011/* ShiftZoneByPixel */
SHPIX[ ]\011/* ShiftZoneByPixel */
SHPIX[ ]\011/* ShiftZoneByPixel */
SHPIX[ ]\011/* ShiftZoneByPixel */
SHPIX[ ]\011/* ShiftZoneByPixel */
SHPIX[ ]\011/* ShiftZoneByPixel */
EIF[ ]\011/* EndIf */
SVTCA[0]\011/* SetFreedomAndProjectionVectorToAxis */
DELTAP2[ ]\011/* DeltaExceptionP2 */
DELTAP1[ ]\011/* DeltaExceptionP1 */";
};
width = 1229;
}
);
note = percent;
unicode = 0025;
},
{
glyphname = ampersand;
lastChange = "2018-11-25 06:09:51 +0000";
layers = (
{
layerId = "43C596A3-827A-4C98-B0F6-D1945E7BEF5E";
paths = (
{
closed = 1;
nodes = (
"966 0 LINE SMOOTH",
"1006 0 OFFCURVE",
"1022 18 OFFCURVE",
"1022 42 CURVE SMOOTH",
"1022 67.333 OFFCURVE",
"1006 84 OFFCURVE",
"966 84 CURVE SMOOTH",
"895 84 LINE",
"838 170 LINE",
"879.333 232 OFFCURVE",
"916 319.333 OFFCURVE",
"948 432 CURVE",
"995.385 432 OFFCURVE",
"1022 437.518 OFFCURVE",
"1022 475 CURVE SMOOTH",
"1022 499 OFFCURVE",
"1006 517 OFFCURVE",
"966 517 CURVE SMOOTH",
"884 517 LINE",
"860.667 416.333 OFFCURVE",
"828.667 327.667 OFFCURVE",
"788 251 CURVE",
"556 620 LINE SMOOTH",
"496 715.333 OFFCURVE",
"466 784.667 OFFCURVE",
"466 828 CURVE SMOOTH",
"466 912 OFFCURVE",
"546 993 OFFCURVE",
"638 993 CURVE SMOOTH",
"683.333 993 OFFCURVE",
"726.667 975.333 OFFCURVE",
"768 938 CURVE",
"833 973 LINE SMOOTH",
"861 987.667 OFFCURVE",
"868 1000 OFFCURVE",
"868 1016 CURVE SMOOTH",
"868 1040 OFFCURVE",
"848.667 1059 OFFCURVE",
"826 1059 CURVE SMOOTH",
"819.333 1059 OFFCURVE",
"801.667 1051.667 OFFCURVE",
"773 1037 CURVE",
"727.667 1065 OFFCURVE",
"682.333 1078 OFFCURVE",
"637 1078 CURVE SMOOTH",
"497 1078 OFFCURVE",
"382 962 OFFCURVE",
"382 830 CURVE SMOOTH",
"382 803.333 OFFCURVE",
"386.833 777.5 OFFCURVE",
"396.5 752.5 CURVE SMOOTH",
"406.167 727.5 OFFCURVE",
"435.667 675.333 OFFCURVE",
"485 596 CURVE",
"341 553.333 OFFCURVE",
"254 435.333 OFFCURVE",
"254 294 CURVE SMOOTH",
"254 111.333 OFFCURVE",
"396 -33 OFFCURVE",
"556 -33 CURVE SMOOTH",
"650.667 -33 OFFCURVE",
"728 11 OFFCURVE",
"788 99 CURVE",
"852 0 LINE"
);
},
{
closed = 1;
nodes = (
"739 177 LINE",
"690.333 93 OFFCURVE",
"628.667 51 OFFCURVE",
"554 51 CURVE SMOOTH",
"443.333 51 OFFCURVE",
"338 159.333 OFFCURVE",
"338 294 CURVE SMOOTH",
"338 407.333 OFFCURVE",
"409 495.333 OFFCURVE",
"521 522 CURVE"
);
}
);
userData = {
assembly = "NPUSHB[ ]\011/* 58 values pushed */
124 7 124 9 124 57 202 1 204 32 5 59 42 86 48 103 35 103 47 123 7 132 62 137 65 169 7 162 62 195 62 10 36 47 41 64 53 47 58 64 93 38 85 58 6 36 48 49 49 35 57 65 1 0 0 9 56 50 
PUSHW[ ]\011/* 1 value pushed */
696 
NPUSHB[ ]\011/* 49 values pushed */
53 53 155 49 53 53 50 49 50 56 49 35 35 49 49 36 0 9 20 0 0 9 65 36 1 48 4 9 35 57 3 42 6 65 36 1 48 4 9 35 57 3 15 3 46 91 39 39 38 
PUSHW[ ]\011/* 1 value pushed */
282 
PUSHB[ ]\011/* 5 values pushed */
30 44 64 15 36 
PUSHW[ ]\011/* 4 values pushed */
399 32 1 773 
NPUSHB[ ]\011/* 23 values pushed */
56 0 10 63 44 3 11 42 53 26 67 33 91 12 177 60 44 6 25 66 241 188 24 
PUSHW[ ]\011/* 1 value pushed */
292 
SCANCTRL[ ]\011/* ScanConversionControl */
CALL[ ]\011/* CallFunction */
FLIPOFF[ ]\011/* SetAutoFlipOff */
SRP0[ ]\011/* SetRefPoint0 */
MIRP[10100]\011/* MoveIndirectRelPt */
FLIPON[ ]\011/* SetAutoFlipOn */
MIRP[01101]\011/* MoveIndirectRelPt */
MIRP[10100]\011/* MoveIndirectRelPt */
MIRP[01101]\011/* MoveIndirectRelPt */
FLIPOFF[ ]\011/* SetAutoFlipOff */
SRP0[ ]\011/* SetRefPoint0 */
MIRP[10110]\011/* MoveIndirectRelPt */
ALIGNRP[ ]\011/* AlignRelativePt */
SVTCA[0]\011/* SetFreedomAndProjectionVectorToAxis */
MIAP[1]\011/* MoveIndirectAbsPt */
FLIPON[ ]\011/* SetAutoFlipOn */
MIRP[01101]\011/* MoveIndirectRelPt */
MIAP[1]\011/* MoveIndirectAbsPt */
ALIGNRP[ ]\011/* AlignRelativePt */
MIRP[10100]\011/* MoveIndirectRelPt */
SMD[ ]\011/* SetMinimumDistance */
RTHG[ ]\011/* RoundToHalfGrid */
MIRP[01101]\011/* MoveIndirectRelPt */
RTG[ ]\011/* RoundToGrid */
MDAP[1]\011/* MoveDirectAbsPt */
SMD[ ]\011/* SetMinimumDistance */
MIRP[01101]\011/* MoveIndirectRelPt */
MIRP[10100]\011/* MoveIndirectRelPt */
ALIGNRP[ ]\011/* AlignRelativePt */
SRP0[ ]\011/* SetRefPoint0 */
MIRP[01101]\011/* MoveIndirectRelPt */
SRP1[ ]\011/* SetRefPoint1 */
SRP2[ ]\011/* SetRefPoint2 */
SLOOP[ ]\011/* SetLoopVariable */
IP[ ]\011/* InterpolatePts */
SLOOP[ ]\011/* SetLoopVariable */
IP[ ]\011/* InterpolatePts */
SVTCA[1]\011/* SetFreedomAndProjectionVectorToAxis */
SRP1[ ]\011/* SetRefPoint1 */
SRP2[ ]\011/* SetRefPoint2 */
SLOOP[ ]\011/* SetLoopVariable */
IP[ ]\011/* InterpolatePts */
SLOOP[ ]\011/* SetLoopVariable */
IP[ ]\011/* InterpolatePts */
SDPVTL[1]\011/* SetDualPVectorToLine */
MDAP[0]\011/* MoveDirectAbsPt */
CALL[ ]\011/* CallFunction */
SFVTPV[ ]\011/* SetFVectorToPVector */
RDTG[ ]\011/* RoundDownToGrid */
SRP0[ ]\011/* SetRefPoint0 */
MDRP[00100]\011/* MoveDirectRelPt */
RTG[ ]\011/* RoundToGrid */
SVTCA[0]\011/* SetFreedomAndProjectionVectorToAxis */
SFVTL[0]\011/* SetFVectorToLine */
SRP0[ ]\011/* SetRefPoint0 */
MIRP[11101]\011/* MoveIndirectRelPt */
RTDG[ ]\011/* RoundToDoubleGrid */
SRP2[ ]\011/* SetRefPoint2 */
IP[ ]\011/* InterpolatePts */
MDAP[1]\011/* MoveDirectAbsPt */
RTG[ ]\011/* RoundToGrid */
SVTCA[1]\011/* SetFreedomAndProjectionVectorToAxis */
SRP0[ ]\011/* SetRefPoint0 */
MIRP[10001]\011/* MoveIndirectRelPt */
MDAP[1]\011/* MoveDirectAbsPt */
MIRP[10100]\011/* MoveIndirectRelPt */
MDRP[00100]\011/* MoveDirectRelPt */
SDPVTL[1]\011/* SetDualPVectorToLine */
SFVTPV[ ]\011/* SetFVectorToPVector */
RDTG[ ]\011/* RoundDownToGrid */
SRP0[ ]\011/* SetRefPoint0 */
MDRP[00100]\011/* MoveDirectRelPt */
MDRP[00100]\011/* MoveDirectRelPt */
MDRP[00100]\011/* MoveDirectRelPt */
SDPVTL[1]\011/* SetDualPVectorToLine */
SFVTPV[ ]\011/* SetFVectorToPVector */
SRP0[ ]\011/* SetRefPoint0 */
MDRP[00100]\011/* MoveDirectRelPt */
ALIGNRP[ ]\011/* AlignRelativePt */
IUP[1]\011/* InterpolateUntPts */
IUP[0]\011/* InterpolateUntPts */
SVTCA[1]\011/* SetFreedomAndProjectionVectorToAxis */
DELTAP2[ ]\011/* DeltaExceptionP2 */
DELTAP1[ ]\011/* DeltaExceptionP1 */
SVTCA[0]\011/* SetFreedomAndProjectionVectorToAxis */
DELTAP1[ ]\011/* DeltaExceptionP1 */";
};
width = 1229;
}
);
note = ampersand;
unicode = 0026;
},
{
glyphname = quotesingle;
lastChange = "2018-11-25 06:09:51 +0000";
layers = (
{
layerId = "43C596A3-827A-4C98-B0F6-D1945E7BEF5E";
paths = (
{
closed = 1;
nodes = (
"551 730 LINE SMOOTH",
"559 674 OFFCURVE",
"580.667 655 OFFCURVE",
"614 655 CURVE SMOOTH",
"646 655 OFFCURVE",
"669 674 OFFCURVE",
"677 730 CURVE SMOOTH",
"747 1255 LINE",
"481 1255 LINE"
);
}
);
userData = {
assembly = "NPUSHB[ ]\011/* 16 values pushed */
5 182 0 0 1 174 2 146 0 174 143 8 255 8 2 8 
PUSHW[ ]\011/* 5 values pushed */
589 9 254 334 24 
CALL[ ]\011/* CallFunction */
SRP0[ ]\011/* SetRefPoint0 */
MIRP[10110]\011/* MoveIndirectRelPt */
DELTAP1[ ]\011/* DeltaExceptionP1 */
MIRP[00100]\011/* MoveIndirectRelPt */
MIRP[11101]\011/* MoveIndirectRelPt */
MIRP[00100]\011/* MoveIndirectRelPt */
SVTCA[0]\011/* SetFreedomAndProjectionVectorToAxis */
MIAP[1]\011/* MoveIndirectAbsPt */
MIRP[01101]\011/* MoveIndirectRelPt */
IUP[1]\011/* InterpolateUntPts */
IUP[0]\011/* InterpolateUntPts */";
};
width = 1229;
}
);
note = quotesingle;
unicode = 0027;
},
{
glyphname = parenleft;
lastChange = "2018-11-25 06:09:51 +0000";
layers = (
{
layerId = "43C596A3-827A-4C98-B0F6-D1945E7BEF5E";
paths = (
{
closed = 1;
nodes = (
"605 326 OFFCURVE",
"641 170 OFFCURVE",
"753 -50 CURVE SMOOTH",
"809 -160 OFFCURVE",
"849.333 -226.333 OFFCURVE",
"874 -249 CURVE SMOOTH",
"882 -256.333 OFFCURVE",
"890.667 -260 OFFCURVE",
"900 -260 CURVE SMOOTH",
"924 -260 OFFCURVE",
"943 -240.667 OFFCURVE",
"943 -218 CURVE SMOOTH",
"943 -211.333 OFFCURVE",
"940.667 -204 OFFCURVE",
"936 -196 CURVE SMOOTH",
"789.333 72 OFFCURVE",
"732 278 OFFCURVE",
"732 498 CURVE SMOOTH",
"732 716.667 OFFCURVE",
"789.333 922.667 OFFCURVE",
"936 1192 CURVE SMOOTH",
"940.667 1200 OFFCURVE",
"943 1207.333 OFFCURVE",
"943 1214 CURVE SMOOTH",
"943 1236.667 OFFCURVE",
"924 1255 OFFCURVE",
"900 1255 CURVE SMOOTH",
"890.667 1255 OFFCURVE",
"882 1251.333 OFFCURVE",
"874 1244 CURVE SMOOTH",
"822 1197.333 OFFCURVE",
"675 914 OFFCURVE",
"635 742 CURVE SMOOTH",
"615 656 OFFCURVE",
"605 574.667 OFFCURVE",
"605 498 CURVE SMOOTH"
);
}
);
userData = {
assembly = "NPUSHB[ ]\011/* 39 values pushed */
41 12 42 16 2 5 23 14 19 10 18 22 6 6 5 16 23 22 19 21 62 19 5 77 9 9 19 160 14 36 0 0 16 0 2 0 25 28 202 
PUSHW[ ]\011/* 3 values pushed */
261 24 281 
SCANCTRL[ ]\011/* ScanConversionControl */
CALL[ ]\011/* CallFunction */
FLIPOFF[ ]\011/* SetAutoFlipOff */
SRP0[ ]\011/* SetRefPoint0 */
MIRP[10100]\011/* MoveIndirectRelPt */
DELTAP1[ ]\011/* DeltaExceptionP1 */
FLIPON[ ]\011/* SetAutoFlipOn */
MIRP[11101]\011/* MoveIndirectRelPt */
MIRP[10100]\011/* MoveIndirectRelPt */
ALIGNRP[ ]\011/* AlignRelativePt */
SRP0[ ]\011/* SetRefPoint0 */
MIRP[01101]\011/* MoveIndirectRelPt */
SRP0[ ]\011/* SetRefPoint0 */
MIRP[00100]\011/* MoveIndirectRelPt */
SVTCA[0]\011/* SetFreedomAndProjectionVectorToAxis */
MIAP[1]\011/* MoveIndirectAbsPt */
ALIGNRP[ ]\011/* AlignRelativePt */
MIAP[1]\011/* MoveIndirectAbsPt */
ALIGNRP[ ]\011/* AlignRelativePt */
SRP1[ ]\011/* SetRefPoint1 */
SRP2[ ]\011/* SetRefPoint2 */
IP[ ]\011/* InterpolatePts */
IP[ ]\011/* InterpolatePts */
SVTCA[1]\011/* SetFreedomAndProjectionVectorToAxis */
SRP1[ ]\011/* SetRefPoint1 */
SRP2[ ]\011/* SetRefPoint2 */
IP[ ]\011/* InterpolatePts */
IP[ ]\011/* InterpolatePts */
IUP[1]\011/* InterpolateUntPts */
IUP[0]\011/* InterpolateUntPts */
SVTCA[1]\011/* SetFreedomAndProjectionVectorToAxis */
DELTAP1[ ]\011/* DeltaExceptionP1 */";
};
width = 1229;
}
);
note = parenleft;
unicode = 0028;
},
{
glyphname = parenright;
lastChange = "2018-11-25 06:09:51 +0000";
layers = (
{
layerId = "43C596A3-827A-4C98-B0F6-D1945E7BEF5E";
paths = (
{
closed = 1;
nodes = (
"639 669 OFFCURVE",
"603 825 OFFCURVE",
"491 1045 CURVE SMOOTH",
"435 1155 OFFCURVE",
"394.667 1221.333 OFFCURVE",
"370 1244 CURVE SMOOTH",
"362 1251.333 OFFCURVE",
"353.333 1255 OFFCURVE",
"344 1255 CURVE SMOOTH",
"320 1255 OFFCURVE",
"301 1236.667 OFFCURVE",
"301 1214 CURVE SMOOTH",
"301 1207.333 OFFCURVE",
"303.333 1200 OFFCURVE",
"308 1192 CURVE SMOOTH",
"454.667 922.667 OFFCURVE",
"512 717 OFFCURVE",
"512 497 CURVE SMOOTH",
"512 278.333 OFFCURVE",
"454.667 72 OFFCURVE",
"308 -196 CURVE SMOOTH",
"303.333 -204 OFFCURVE",
"301 -211.333 OFFCURVE",
"301 -218 CURVE SMOOTH",
"301 -240.667 OFFCURVE",
"320 -260 OFFCURVE",
"344 -260 CURVE SMOOTH",
"353.333 -260 OFFCURVE",
"362 -256 OFFCURVE",
"370 -248 CURVE",
"422 -202.667 OFFCURVE",
"569 82.167 OFFCURVE",
"609 253.5 CURVE SMOOTH",
"629 339.167 OFFCURVE",
"639 420.333 OFFCURVE",
"639 497 CURVE SMOOTH"
);
}
);
userData = {
assembly = "NPUSHB[ ]\011/* 41 values pushed */
9 2 9 26 25 2 25 26 4 5 23 14 19 9 18 6 23 22 16 5 6 19 5 77 10 10 21 62 19 160 14 36 15 0 31 0 2 0 26 29 164 
PUSHW[ ]\011/* 3 values pushed */
333 24 281 
SCANCTRL[ ]\011/* ScanConversionControl */
CALL[ ]\011/* CallFunction */
FLIPOFF[ ]\011/* SetAutoFlipOff */
SRP0[ ]\011/* SetRefPoint0 */
MIRP[10110]\011/* MoveIndirectRelPt */
DELTAP1[ ]\011/* DeltaExceptionP1 */
FLIPON[ ]\011/* SetAutoFlipOn */
MIRP[11101]\011/* MoveIndirectRelPt */
MIRP[10100]\011/* MoveIndirectRelPt */
MIRP[00100]\011/* MoveIndirectRelPt */
ALIGNRP[ ]\011/* AlignRelativePt */
SRP0[ ]\011/* SetRefPoint0 */
MIRP[01101]\011/* MoveIndirectRelPt */
SVTCA[0]\011/* SetFreedomAndProjectionVectorToAxis */
MIAP[1]\011/* MoveIndirectAbsPt */
ALIGNRP[ ]\011/* AlignRelativePt */
MIAP[1]\011/* MoveIndirectAbsPt */
ALIGNRP[ ]\011/* AlignRelativePt */
SRP2[ ]\011/* SetRefPoint2 */
IP[ ]\011/* InterpolatePts */
IP[ ]\011/* InterpolatePts */
SVTCA[1]\011/* SetFreedomAndProjectionVectorToAxis */
SRP1[ ]\011/* SetRefPoint1 */
SRP2[ ]\011/* SetRefPoint2 */
IP[ ]\011/* InterpolatePts */
IP[ ]\011/* InterpolatePts */
IUP[1]\011/* InterpolateUntPts */
IUP[0]\011/* InterpolateUntPts */
SVTCA[1]\011/* SetFreedomAndProjectionVectorToAxis */
DELTAP1[ ]\011/* DeltaExceptionP1 */";
};
width = 1229;
}
);
note = parenright;
unicode = 0029;
},
{
glyphname = asterisk;
lastChange = "2018-11-25 06:09:51 +0000";
layers = (
{
layerId = "43C596A3-827A-4C98-B0F6-D1945E7BEF5E";
paths = (
{
closed = 1;
nodes = (
"295 1000 LINE SMOOTH",
"282.333 1004 OFFCURVE",
"272.333 1006 OFFCURVE",
"265 1006 CURVE SMOOTH",
"245 1006 OFFCURVE",
"226 986.667 OFFCURVE",
"226 964 CURVE SMOOTH",
"226 944 OFFCURVE",
"234.667 930.667 OFFCURVE",
"268 920 CURVE SMOOTH",
"542 830 LINE",
"373 598 LINE SMOOTH",
"361.667 582.667 OFFCURVE",
"356 570.667 OFFCURVE",
"356 562 CURVE SMOOTH",
"356 538 OFFCURVE",
"375 519 OFFCURVE",
"399 519 CURVE SMOOTH",
"413 519 OFFCURVE",
"427 528.667 OFFCURVE",
"441 548 CURVE SMOOTH",
"610 781 LINE",
"779 548 LINE SMOOTH",
"793 528.667 OFFCURVE",
"807.333 519 OFFCURVE",
"822 519 CURVE SMOOTH",
"844.667 519 OFFCURVE",
"864 538 OFFCURVE",
"864 562 CURVE SMOOTH",
"864 570.667 OFFCURVE",
"858.667 582.667 OFFCURVE",
"848 598 CURVE SMOOTH",
"679 830 LINE",
"952 919 LINE SMOOTH",
"986.667 929.667 OFFCURVE",
"995 944 OFFCURVE",
"995 964 CURVE SMOOTH",
"995 986.667 OFFCURVE",
"976.333 1006 OFFCURVE",
"955 1006 CURVE SMOOTH",
"948.333 1006 OFFCURVE",
"938.667 1004 OFFCURVE",
"926 1000 CURVE SMOOTH",
"653 911 LINE",
"653 1198 LINE SMOOTH",
"653 1239.333 OFFCURVE",
"635 1255 OFFCURVE",
"611 1255 CURVE SMOOTH",
"585.667 1255 OFFCURVE",
"568 1239.333 OFFCURVE",
"568 1198 CURVE SMOOTH",
"568 911 LINE"
);
}
);
userData = {
assembly = "NPUSHB[ ]\011/* 131 values pushed */
20 28 16 35 64 28 245 26 248 36 5 67 25 135 19 128 20 3 31 27 31 36 76 36 3 42 36 96 13 100 19 109 36 204 23 243 18 244 27 240 36 8 44 42 34 3 0 40 10 20 14 8 20 33 18 44 42 39 15 10 5 4 37 0 45 45 36 37 36 20 37 37 36 36 35 36 37 35 36 28 27 20 28 28 27 27 26 27 28 26 36 19 18 20 19 19 18 9 8 8 36 18 17 20 18 18 17 45 37 36 35 28 5 0 40 26 19 18 17 9 5 14 8 36 0 18 9 45 4 0 37 
PUSHW[ ]\011/* 1 value pushed */
771 
NPUSHB[ ]\011/* 18 values pushed */
17 7 18 91 8 8 0 7 36 77 27 32 18 189 0 14 1 14 
PUSHW[ ]\011/* 1 value pushed */
410 
NPUSHB[ ]\011/* 15 values pushed */
8 64 27 77 18 32 7 8 36 0 4 249 40 1 0 
PUSHW[ ]\011/* 1 value pushed */
317 
NPUSHB[ ]\011/* 11 values pushed */
79 40 111 40 2 40 25 46 199 188 24 
PUSHW[ ]\011/* 1 value pushed */
292 
SCANCTRL[ ]\011/* ScanConversionControl */
CALL[ ]\011/* CallFunction */
FLIPOFF[ ]\011/* SetAutoFlipOff */
SRP0[ ]\011/* SetRefPoint0 */
MIRP[10100]\011/* MoveIndirectRelPt */
DELTAP1[ ]\011/* DeltaExceptionP1 */
FLIPON[ ]\011/* SetAutoFlipOn */
MIRP[10100]\011/* MoveIndirectRelPt */
ALIGNRP[ ]\011/* AlignRelativePt */
SRP0[ ]\011/* SetRefPoint0 */
MIRP[01101]\011/* MoveIndirectRelPt */
SRP0[ ]\011/* SetRefPoint0 */
MIRP[11101]\011/* MoveIndirectRelPt */
ALIGNRP[ ]\011/* AlignRelativePt */
SMD[ ]\011/* SetMinimumDistance */
RTHG[ ]\011/* RoundToHalfGrid */
SRP0[ ]\011/* SetRefPoint0 */
MIRP[01101]\011/* MoveIndirectRelPt */
SMD[ ]\011/* SetMinimumDistance */
RTG[ ]\011/* RoundToGrid */
SRP0[ ]\011/* SetRefPoint0 */
MIRP[01101]\011/* MoveIndirectRelPt */
DELTAP1[ ]\011/* DeltaExceptionP1 */
MIRP[01101]\011/* MoveIndirectRelPt */
SMD[ ]\011/* SetMinimumDistance */
RTHG[ ]\011/* RoundToHalfGrid */
SRP0[ ]\011/* SetRefPoint0 */
MIRP[01101]\011/* MoveIndirectRelPt */
RTG[ ]\011/* RoundToGrid */
SVTCA[0]\011/* SetFreedomAndProjectionVectorToAxis */
MIAP[1]\011/* MoveIndirectAbsPt */
ALIGNRP[ ]\011/* AlignRelativePt */
RTHG[ ]\011/* RoundToHalfGrid */
SRP0[ ]\011/* SetRefPoint0 */
MIRP[01101]\011/* MoveIndirectRelPt */
RTG[ ]\011/* RoundToGrid */
MIAP[1]\011/* MoveIndirectAbsPt */
MIRP[00100]\011/* MoveIndirectRelPt */
MIAP[1]\011/* MoveIndirectAbsPt */
IP[ ]\011/* InterpolatePts */
IP[ ]\011/* InterpolatePts */
SRP1[ ]\011/* SetRefPoint1 */
SRP2[ ]\011/* SetRefPoint2 */
IP[ ]\011/* InterpolatePts */
SVTCA[1]\011/* SetFreedomAndProjectionVectorToAxis */
SRP1[ ]\011/* SetRefPoint1 */
SRP2[ ]\011/* SetRefPoint2 */
SLOOP[ ]\011/* SetLoopVariable */
IP[ ]\011/* InterpolatePts */
SRP1[ ]\011/* SetRefPoint1 */
SRP2[ ]\011/* SetRefPoint2 */
SLOOP[ ]\011/* SetLoopVariable */
IP[ ]\011/* InterpolatePts */
SFVTCA[0]\011/* SetFVectorToAxis */
SDPVTL[1]\011/* SetDualPVectorToLine */
MDAP[0]\011/* MoveDirectAbsPt */
CALL[ ]\011/* CallFunction */
SFVTPV[ ]\011/* SetFVectorToPVector */
RDTG[ ]\011/* RoundDownToGrid */
SRP0[ ]\011/* SetRefPoint0 */
MDRP[00100]\011/* MoveDirectRelPt */
SDPVTL[1]\011/* SetDualPVectorToLine */
SFVTPV[ ]\011/* SetFVectorToPVector */
MDAP[0]\011/* MoveDirectAbsPt */
RTG[ ]\011/* RoundToGrid */
CALL[ ]\011/* CallFunction */
SFVTL[0]\011/* SetFVectorToLine */
RDTG[ ]\011/* RoundDownToGrid */
SRP0[ ]\011/* SetRefPoint0 */
MDRP[00100]\011/* MoveDirectRelPt */
SDPVTL[1]\011/* SetDualPVectorToLine */
SFVTPV[ ]\011/* SetFVectorToPVector */
MDAP[0]\011/* MoveDirectAbsPt */
RTG[ ]\011/* RoundToGrid */
CALL[ ]\011/* CallFunction */
SFVTL[0]\011/* SetFVectorToLine */
RDTG[ ]\011/* RoundDownToGrid */
SRP0[ ]\011/* SetRefPoint0 */
MDRP[00100]\011/* MoveDirectRelPt */
SDPVTL[1]\011/* SetDualPVectorToLine */
SFVTPV[ ]\011/* SetFVectorToPVector */
MDAP[0]\011/* MoveDirectAbsPt */
RTG[ ]\011/* RoundToGrid */
CALL[ ]\011/* CallFunction */
SFVTCA[0]\011/* SetFVectorToAxis */
RDTG[ ]\011/* RoundDownToGrid */
SRP0[ ]\011/* SetRefPoint0 */
MDRP[00100]\011/* MoveDirectRelPt */
SVTCA[0]\011/* SetFreedomAndProjectionVectorToAxis */
SRP1[ ]\011/* SetRefPoint1 */
SRP2[ ]\011/* SetRefPoint2 */
SLOOP[ ]\011/* SetLoopVariable */
IP[ ]\011/* InterpolatePts */
SRP1[ ]\011/* SetRefPoint1 */
SHP[1]\011/* ShiftPointByLastPoint */
SHP[1]\011/* ShiftPointByLastPoint */
SVTCA[1]\011/* SetFreedomAndProjectionVectorToAxis */
SRP1[ ]\011/* SetRefPoint1 */
SRP2[ ]\011/* SetRefPoint2 */
IP[ ]\011/* InterpolatePts */
IP[ ]\011/* InterpolatePts */
SRP1[ ]\011/* SetRefPoint1 */
SRP2[ ]\011/* SetRefPoint2 */
SLOOP[ ]\011/* SetLoopVariable */
IP[ ]\011/* InterpolatePts */
IUP[1]\011/* InterpolateUntPts */
IUP[0]\011/* InterpolateUntPts */
SVTCA[1]\011/* SetFreedomAndProjectionVectorToAxis */
DELTAP1[ ]\011/* DeltaExceptionP1 */
DELTAP1[ ]\011/* DeltaExceptionP1 */
SVTCA[0]\011/* SetFreedomAndProjectionVectorToAxis */
DELTAP2[ ]\011/* DeltaExceptionP2 */
DELTAP1[ ]\011/* DeltaExceptionP1 */";
};
width = 1229;
}
);
note = asterisk;
unicode = 002A;
},
{
glyphname = plus;
lastChange = "2018-11-25 06:09:51 +0000";
layers = (
{
layerId = "43C596A3-827A-4C98-B0F6-D1945E7BEF5E";
paths = (
{
closed = 1;
nodes = (
"1029 543 LINE SMOOTH",
"1069 543 OFFCURVE",
"1085 559.667 OFFCURVE",
"1085 585 CURVE SMOOTH",
"1085 610.333 OFFCURVE",
"1069 627 OFFCURVE",
"1029 627 CURVE SMOOTH",
"657 627 LINE",
"657 1045 LINE SMOOTH",
"657 1085 OFFCURVE",
"639 1101 OFFCURVE",
"615 1101 CURVE SMOOTH",
"589.667 1101 OFFCURVE",
"572 1085 OFFCURVE",
"572 1045 CURVE SMOOTH",
"572 627 LINE",
"200 627 LINE SMOOTH",
"160 627 OFFCURVE",
"144 610.333 OFFCURVE",
"144 585 CURVE SMOOTH",
"144 559.667 OFFCURVE",
"160 543 OFFCURVE",
"200 543 CURVE SMOOTH",
"572 543 LINE",
"572 123 LINE SMOOTH",
"572 83 OFFCURVE",
"590 67 OFFCURVE",
"614 67 CURVE SMOOTH",
"639.333 67 OFFCURVE",
"657 83 OFFCURVE",
"657 123 CURVE SMOOTH",
"657 543 LINE"
);
}
);
userData = {
assembly = "NPUSHB[ ]\011/* 49 values pushed */
25 91 31 31 0 0 8 20 167 16 91 4 167 8 15 91 9 9 8 28 220 0 91 8 23 91 17 17 24 91 16 16 8 1 91 7 7 8 220 48 12 1 12 25 32 8 80 129 24 
CALL[ ]\011/* CallFunction */
SVTCA[0]\011/* SetFreedomAndProjectionVectorToAxis */
MDAP[1]\011/* MoveDirectAbsPt */
SVTCA[1]\011/* SetFreedomAndProjectionVectorToAxis */
FLIPOFF[ ]\011/* SetAutoFlipOff */
SRP0[ ]\011/* SetRefPoint0 */
MIRP[10100]\011/* MoveIndirectRelPt */
DELTAP1[ ]\011/* DeltaExceptionP1 */
FLIPON[ ]\011/* SetAutoFlipOn */
MIRP[10100]\011/* MoveIndirectRelPt */
ALIGNRP[ ]\011/* AlignRelativePt */
SRP0[ ]\011/* SetRefPoint0 */
MIRP[01101]\011/* MoveIndirectRelPt */
SRP0[ ]\011/* SetRefPoint0 */
ALIGNRP[ ]\011/* AlignRelativePt */
SRP0[ ]\011/* SetRefPoint0 */
MIRP[01101]\011/* MoveIndirectRelPt */
ALIGNRP[ ]\011/* AlignRelativePt */
SRP0[ ]\011/* SetRefPoint0 */
MIRP[01101]\011/* MoveIndirectRelPt */
SRP0[ ]\011/* SetRefPoint0 */
MIRP[11101]\011/* MoveIndirectRelPt */
MIRP[00100]\011/* MoveIndirectRelPt */
SVTCA[0]\011/* SetFreedomAndProjectionVectorToAxis */
SRP0[ ]\011/* SetRefPoint0 */
ALIGNRP[ ]\011/* AlignRelativePt */
SRP0[ ]\011/* SetRefPoint0 */
MIRP[01101]\011/* MoveIndirectRelPt */
SRP0[ ]\011/* SetRefPoint0 */
MIRP[00100]\011/* MoveIndirectRelPt */
MIRP[11101]\011/* MoveIndirectRelPt */
MIRP[00100]\011/* MoveIndirectRelPt */
SRP0[ ]\011/* SetRefPoint0 */
ALIGNRP[ ]\011/* AlignRelativePt */
SRP0[ ]\011/* SetRefPoint0 */
ALIGNRP[ ]\011/* AlignRelativePt */
SRP0[ ]\011/* SetRefPoint0 */
MIRP[01101]\011/* MoveIndirectRelPt */
IUP[1]\011/* InterpolateUntPts */
IUP[0]\011/* InterpolateUntPts */";
};
width = 1229;
}
);
note = plus;
unicode = 002B;
},
{
glyphname = comma;
lastChange = "2018-11-25 06:09:51 +0000";
layers = (
{
layerId = "43C596A3-827A-4C98-B0F6-D1945E7BEF5E";
paths = (
{
closed = 1;
nodes = (
"302 -218 LINE SMOOTH",
"300 -226 OFFCURVE",
"299 -233.333 OFFCURVE",
"299 -240 CURVE SMOOTH",
"299 -273.333 OFFCURVE",
"325.667 -300 OFFCURVE",
"359 -300 CURVE SMOOTH",
"384.333 -300 OFFCURVE",
"406 -283.333 OFFCURVE",
"424 -250 CURVE SMOOTH",
"721 302 LINE",
"448 302 LINE"
);
}
);
userData = {
assembly = "NPUSHB[ ]\011/* 24 values pushed */
194 0 210 0 224 0 240 0 4 0 182 4 1 243 2 193 0 210 15 7 31 7 2 7 
PUSHW[ ]\011/* 5 values pushed */
408 10 109 285 24 
CALL[ ]\011/* CallFunction */
SRP0[ ]\011/* SetRefPoint0 */
MIRP[10110]\011/* MoveIndirectRelPt */
DELTAP1[ ]\011/* DeltaExceptionP1 */
MIRP[00100]\011/* MoveIndirectRelPt */
MIRP[11101]\011/* MoveIndirectRelPt */
MIRP[00100]\011/* MoveIndirectRelPt */
SVTCA[0]\011/* SetFreedomAndProjectionVectorToAxis */
MDAP[1]\011/* MoveDirectAbsPt */
MIRP[01101]\011/* MoveIndirectRelPt */
IUP[1]\011/* InterpolateUntPts */
IUP[0]\011/* InterpolateUntPts */
SVTCA[1]\011/* SetFreedomAndProjectionVectorToAxis */
DELTAP1[ ]\011/* DeltaExceptionP1 */";
};
width = 1229;
}
);
note = comma;
unicode = 002C;
},
{
glyphname = hyphen;
lastChange = "2018-11-25 06:09:51 +0000";
layers = (
{
layerId = "43C596A3-827A-4C98-B0F6-D1945E7BEF5E";
paths = (
{
closed = 1;
nodes = (
"186 639 LINE",
"186 519 LINE",
"1043 519 LINE",
"1043 639 LINE"
);
}
);
userData = {
assembly = "NPUSHB[ ]\011/* 12 values pushed */
0 192 2 0 26 5 2 25 4 99 171 24 
CALL[ ]\011/* CallFunction */
FLIPOFF[ ]\011/* SetAutoFlipOff */
SRP0[ ]\011/* SetRefPoint0 */
MIRP[00100]\011/* MoveIndirectRelPt */
SRP0[ ]\011/* SetRefPoint0 */
MIRP[00110]\011/* MoveIndirectRelPt */
SVTCA[0]\011/* SetFreedomAndProjectionVectorToAxis */
MDAP[1]\011/* MoveDirectAbsPt */
FLIPON[ ]\011/* SetAutoFlipOn */
MIRP[01101]\011/* MoveIndirectRelPt */
IUP[1]\011/* InterpolateUntPts */
IUP[0]\011/* InterpolateUntPts */";
};
width = 1229;
}
);
note = hyphen;
unicode = "002D,00AD";
},
{
glyphname = period;
lastChange = "2018-11-25 06:09:51 +0000";
layers = (
{
layerId = "43C596A3-827A-4C98-B0F6-D1945E7BEF5E";
paths = (
{
closed = 1;
nodes = (
"523.667 241 OFFCURVE",
"461 182.333 OFFCURVE",
"461 105 CURVE SMOOTH",
"461 30.333 OFFCURVE",
"522.333 -30 OFFCURVE",
"597 -30 CURVE SMOOTH",
"633 -30 LINE SMOOTH",
"706.333 -30 OFFCURVE",
"769 28.667 OFFCURVE",
"769 106 CURVE SMOOTH",
"769 180.667 OFFCURVE",
"707.667 241 OFFCURVE",
"633 241 CURVE SMOOTH",
"597 241 LINE SMOOTH"
);
}
);
userData = {
assembly = "NPUSHB[ ]\011/* 10 values pushed */
1 178 8 11 4 216 11 25 14 109 
PUSHW[ ]\011/* 2 values pushed */
286 24 
CALL[ ]\011/* CallFunction */
FLIPOFF[ ]\011/* SetAutoFlipOff */
SRP0[ ]\011/* SetRefPoint0 */
MIRP[10100]\011/* MoveIndirectRelPt */
FLIPON[ ]\011/* SetAutoFlipOn */
MIRP[01101]\011/* MoveIndirectRelPt */
SVTCA[0]\011/* SetFreedomAndProjectionVectorToAxis */
MIAP[1]\011/* MoveIndirectAbsPt */
MIRP[01101]\011/* MoveIndirectRelPt */
IUP[1]\011/* InterpolateUntPts */
IUP[0]\011/* InterpolateUntPts */";
};
width = 1229;
}
);
note = period;
unicode = 002E;
},
{
glyphname = slash;
lastChange = "2018-11-25 06:09:51 +0000";
layers = (
{
layerId = "43C596A3-827A-4C98-B0F6-D1945E7BEF5E";
paths = (
{
closed = 1;
nodes = (
"998.667 1330.667 OFFCURVE",
"1002 1341.667 OFFCURVE",
"1002 1349 CURVE SMOOTH",
"1002 1369 OFFCURVE",
"982.667 1389 OFFCURVE",
"960 1389 CURVE SMOOTH",
"941.333 1389 OFFCURVE",
"929.667 1382.667 OFFCURVE",
"915 1352 CURVE SMOOTH",
"240 -96 LINE SMOOTH",
"233.333 -110 OFFCURVE",
"230 -121 OFFCURVE",
"230 -129 CURVE SMOOTH",
"230 -149 OFFCURVE",
"249.333 -169 OFFCURVE",
"272 -169 CURVE SMOOTH",
"290 -169 OFFCURVE",
"304.667 -156.667 OFFCURVE",
"316 -132 CURVE SMOOTH",
"992 1316 LINE SMOOTH"
);
}
);
userData = {
assembly = "NPUSHB[ ]\011/* 58 values pushed */
9 9 22 1 25 9 3 56 0 57 9 70 1 73 9 91 9 107 9 118 1 120 9 137 8 137 9 150 1 153 9 165 1 169 9 182 0 182 1 199 1 201 9 214 1 230 1 233 9 246 1 248 9 23 11 9 1 11 
PUSHW[ ]\011/* 1 value pushed */
456 
PUSHB[ ]\011/* 6 values pushed */
3 11 62 0 91 9 
PUSHW[ ]\011/* 1 value pushed */
434 
NPUSHB[ ]\011/* 10 values pushed */
1 91 8 189 47 3 1 3 215 17 
PUSHW[ ]\011/* 1 value pushed */
443 
PUSHB[ ]\011/* 2 values pushed */
188 24 
CALL[ ]\011/* CallFunction */
SRP0[ ]\011/* SetRefPoint0 */
MIRP[10100]\011/* MoveIndirectRelPt */
DELTAP1[ ]\011/* DeltaExceptionP1 */
MIRP[11101]\011/* MoveIndirectRelPt */
MIRP[01101]\011/* MoveIndirectRelPt */
MIRP[10100]\011/* MoveIndirectRelPt */
MIRP[01101]\011/* MoveIndirectRelPt */
MIRP[00100]\011/* MoveIndirectRelPt */
SVTCA[0]\011/* SetFreedomAndProjectionVectorToAxis */
MDAP[1]\011/* MoveDirectAbsPt */
MIRP[01101]\011/* MoveIndirectRelPt */
IUP[1]\011/* InterpolateUntPts */
IUP[0]\011/* InterpolateUntPts */
SVTCA[1]\011/* SetFreedomAndProjectionVectorToAxis */
DELTAP2[ ]\011/* DeltaExceptionP2 */
DELTAP1[ ]\011/* DeltaExceptionP1 */
DELTAP1[ ]\011/* DeltaExceptionP1 */";
};
width = 1229;
}
);
note = slash;
unicode = 002F;
},
{
glyphname = zero;
lastChange = "2018-11-25 06:09:51 +0000";
layers = (
{
layerId = "43C596A3-827A-4C98-B0F6-D1945E7BEF5E";
paths = (
{
closed = 1;
nodes = (
"1000 808.333 OFFCURVE",
"992.667 875.667 OFFCURVE",
"978 933 CURVE SMOOTH",
"956.667 1013 OFFCURVE",
"904 1127.667 OFFCURVE",
"864 1173 CURVE SMOOTH",
"802.667 1243.667 OFFCURVE",
"713 1285 OFFCURVE",
"613 1285 CURVE SMOOTH",
"510.333 1285 OFFCURVE",
"425.333 1243.667 OFFCURVE",
"358 1161 CURVE SMOOTH",
"272 1055.667 OFFCURVE",
"229 912.333 OFFCURVE",
"229 731 CURVE SMOOTH",
"229 523 LINE SMOOTH",
"229 446.333 OFFCURVE",
"236.667 379.333 OFFCURVE",
"252 322 CURVE SMOOTH",
"272 240.667 OFFCURVE",
"326.333 126 OFFCURVE",
"365 82 CURVE SMOOTH",
"426.333 11.333 OFFCURVE",
"517.333 -30 OFFCURVE",
"616 -30 CURVE SMOOTH",
"718.667 -30 OFFCURVE",
"803.667 11.333 OFFCURVE",
"871 94 CURVE SMOOTH",
"957 199.333 OFFCURVE",
"1000 342.333 OFFCURVE",
"1000 523 CURVE SMOOTH",
"1000 731 LINE SMOOTH"
);
},
{
closed = 1;
nodes = (
"916 535 LINE SMOOTH",
"916 279 OFFCURVE",
"802.667 54 OFFCURVE",
"616 54 CURVE SMOOTH",
"568 54 OFFCURVE",
"525 66 OFFCURVE",
"487 90 CURVE SMOOTH",
"460.333 106.667 OFFCURVE",
"439 126.333 OFFCURVE",
"423 149 CURVE SMOOTH",
"365.667 230.333 OFFCURVE",
"313 376.333 OFFCURVE",
"313 535 CURVE SMOOTH",
"313 720 LINE SMOOTH",
"313 976 OFFCURVE",
"426 1200 OFFCURVE",
"614 1200 CURVE SMOOTH",
"661.333 1200 OFFCURVE",
"704 1188.333 OFFCURVE",
"742 1165 CURVE SMOOTH",
"768.667 1148.333 OFFCURVE",
"790.333 1128.333 OFFCURVE",
"807 1105 CURVE SMOOTH",
"863 1023.667 OFFCURVE",
"916 878.667 OFFCURVE",
"916 720 CURVE SMOOTH"
);
}
);
userData = {
assembly = "PUSHB[ ]\011/* 4 values pushed */
18 2 10 35 
PUSHW[ ]\011/* 3 values pushed */
-14 3 -12 
PUSHB[ ]\011/* 3 values pushed */
45 8 41 
NPUSHW[ ]\011/* 9 values pushed */
-14 40 -12 39 -9 22 -9 21 -9 
PUSHB[ ]\011/* 7 values pushed */
28 14 9 14 8 14 2 
PUSHW[ ]\011/* 3 values pushed */
-8 16 -14 
PUSHB[ ]\011/* 3 values pushed */
29 14 45 
PUSHW[ ]\011/* 3 values pushed */
-14 42 -14 
NPUSHB[ ]\011/* 35 values pushed */
41 5 28 14 31 14 34 18 109 8 30 28 18 0 46 1 39 5 13 34 35 14 33 61 18 44 61 5 18 5 5 13 26 61 0 
PUSHW[ ]\011/* 1 value pushed */
716 
PUSHB[ ]\011/* 7 values pushed */
49 36 61 14 25 48 161 
PUSHW[ ]\011/* 3 values pushed */
262 24 300 
SCANCTRL[ ]\011/* ScanConversionControl */
CALL[ ]\011/* CallFunction */
FLIPOFF[ ]\011/* SetAutoFlipOff */
SRP0[ ]\011/* SetRefPoint0 */
MIRP[10100]\011/* MoveIndirectRelPt */
FLIPON[ ]\011/* SetAutoFlipOn */
MIRP[01101]\011/* MoveIndirectRelPt */
SRP0[ ]\011/* SetRefPoint0 */
MIRP[10110]\011/* MoveIndirectRelPt */
MIRP[01101]\011/* MoveIndirectRelPt */
SVTCA[0]\011/* SetFreedomAndProjectionVectorToAxis */
MIAP[1]\011/* MoveIndirectAbsPt */
MIAP[1]\011/* MoveIndirectAbsPt */
SRP0[ ]\011/* SetRefPoint0 */
MIRP[01101]\011/* MoveIndirectRelPt */
SRP0[ ]\011/* SetRefPoint0 */
MIRP[01101]\011/* MoveIndirectRelPt */
SRP2[ ]\011/* SetRefPoint2 */
IP[ ]\011/* InterpolatePts */
IP[ ]\011/* InterpolatePts */
SRP1[ ]\011/* SetRefPoint1 */
SRP2[ ]\011/* SetRefPoint2 */
IP[ ]\011/* InterpolatePts */
SRP1[ ]\011/* SetRefPoint1 */
IP[ ]\011/* InterpolatePts */
SRP1[ ]\011/* SetRefPoint1 */
SRP2[ ]\011/* SetRefPoint2 */
IP[ ]\011/* InterpolatePts */
IP[ ]\011/* InterpolatePts */
IUP[1]\011/* InterpolateUntPts */
IUP[0]\011/* InterpolateUntPts */
RS[ ]\011/* ReadStore */
JROF[ ]\011/* JumpRelativeOnFalse */
NPUSHB[ ]\011/* 90 values pushed */
2 46 16 38 24 25 23 25 22 25 21 25 20 25 5 6 28 27 29 27 30 27 31 27 4 6 39 38 40 38 41 38 42 38 4 6 11 12 10 12 9 12 8 12 7 12 5 6 3 38 34 17 36 64 0 32 19 26 64 1 43 6 37 64 0 45 4 47 64 1 35 15 33 64 1 27 25 33 64 1 38 12 44 64 0 46 2 44 64 0 
CALL[ ]\011/* CallFunction */
CALL[ ]\011/* CallFunction */
CALL[ ]\011/* CallFunction */
CALL[ ]\011/* CallFunction */
SVTCA[1]\011/* SetFreedomAndProjectionVectorToAxis */
CALL[ ]\011/* CallFunction */
CALL[ ]\011/* CallFunction */
CALL[ ]\011/* CallFunction */
CALL[ ]\011/* CallFunction */
CALL[ ]\011/* CallFunction */
LOOPCALL[ ]\011/* LoopAndCallFunction */
LOOPCALL[ ]\011/* LoopAndCallFunction */
LOOPCALL[ ]\011/* LoopAndCallFunction */
LOOPCALL[ ]\011/* LoopAndCallFunction */
CALL[ ]\011/* CallFunction */
FLIPRGON[ ]\011/* FlipRangeOn */
SVTCA[0]\011/* SetFreedomAndProjectionVectorToAxis */
SHPIX[ ]\011/* ShiftZoneByPixel */
SHPIX[ ]\011/* ShiftZoneByPixel */
SHPIX[ ]\011/* ShiftZoneByPixel */
SHPIX[ ]\011/* ShiftZoneByPixel */
SHPIX[ ]\011/* ShiftZoneByPixel */
SHPIX[ ]\011/* ShiftZoneByPixel */
SHPIX[ ]\011/* ShiftZoneByPixel */
SHPIX[ ]\011/* ShiftZoneByPixel */
SVTCA[1]\011/* SetFreedomAndProjectionVectorToAxis */
SHPIX[ ]\011/* ShiftZoneByPixel */
SHPIX[ ]\011/* ShiftZoneByPixel */
SHPIX[ ]\011/* ShiftZoneByPixel */
SHPIX[ ]\011/* ShiftZoneByPixel */
SHPIX[ ]\011/* ShiftZoneByPixel */
SHPIX[ ]\011/* ShiftZoneByPixel */
SHPIX[ ]\011/* ShiftZoneByPixel */
SHPIX[ ]\011/* ShiftZoneByPixel */
SHPIX[ ]\011/* ShiftZoneByPixel */
SHPIX[ ]\011/* ShiftZoneByPixel */
SHPIX[ ]\011/* ShiftZoneByPixel */
SHPIX[ ]\011/* ShiftZoneByPixel */
SHPIX[ ]\011/* ShiftZoneByPixel */
RS[ ]\011/* ReadStore */
NOT[ ]\011/* LogicalNot */
IF[ ]\011/* If */
NPUSHB[ ]\011/* 21 values pushed */
17 30 19 25 63 20 30 17 23 63 17 30 17 23 63 22 30 30 18 63 34 
PUSHW[ ]\011/* 1 value pushed */
-5 
NPUSHB[ ]\011/* 64 values pushed */
30 18 63 39 20 28 17 63 39 20 27 16 63 39 20 25 15 63 39 20 23 14 63 35 20 23 14 63 39 20 22 13 63 35 20 22 13 63 3 20 30 18 63 3 30 18 11 63 45 10 18 11 63 22 30 18 11 63 29 20 25 33 63 34 
PUSHW[ ]\011/* 1 value pushed */
-20 
NPUSHB[ ]\011/* 23 values pushed */
25 33 63 15 20 23 31 63 35 20 23 31 63 2 10 16 17 62 23 10 16 17 62 
SVTCA[1]\011/* SetFreedomAndProjectionVectorToAxis */
CALL[ ]\011/* CallFunction */
CALL[ ]\011/* CallFunction */
CALL[ ]\011/* CallFunction */
CALL[ ]\011/* CallFunction */
CALL[ ]\011/* CallFunction */
CALL[ ]\011/* CallFunction */
CALL[ ]\011/* CallFunction */
CALL[ ]\011/* CallFunction */
CALL[ ]\011/* CallFunction */
CALL[ ]\011/* CallFunction */
CALL[ ]\011/* CallFunction */
CALL[ ]\011/* CallFunction */
CALL[ ]\011/* CallFunction */
CALL[ ]\011/* CallFunction */
CALL[ ]\011/* CallFunction */
CALL[ ]\011/* CallFunction */
CALL[ ]\011/* CallFunction */
CALL[ ]\011/* CallFunction */
CALL[ ]\011/* CallFunction */
SVTCA[0]\011/* SetFreedomAndProjectionVectorToAxis */
CALL[ ]\011/* CallFunction */
CALL[ ]\011/* CallFunction */
CALL[ ]\011/* CallFunction */
EIF[ ]\011/* EndIf */";
};
width = 1229;
}
);
note = zero;
unicode = 0030;
},
{
glyphname = one;
lastChange = "2018-11-25 06:09:51 +0000";
layers = (
{
layerId = "43C596A3-827A-4C98-B0F6-D1945E7BEF5E";
paths = (
{
closed = 1;
nodes = (
"272 1151 LINE",
"255.333 1145 OFFCURVE",
"244.333 1139.333 OFFCURVE",
"239 1134 CURVE",
"232.333 1125.333 OFFCURVE",
"229 1116 OFFCURVE",
"229 1106 CURVE SMOOTH",
"229 1083.333 OFFCURVE",
"249 1064 OFFCURVE",
"269 1064 CURVE SMOOTH",
"275 1064 OFFCURVE",
"284.667 1066 OFFCURVE",
"298 1070 CURVE SMOOTH",
"572 1156 LINE",
"572 84 LINE",
"284 84 LINE SMOOTH",
"244 84 OFFCURVE",
"228 67.333 OFFCURVE",
"228 42 CURVE SMOOTH",
"228 18 OFFCURVE",
"244 0 OFFCURVE",
"284 0 CURVE SMOOTH",
"944 0 LINE SMOOTH",
"984 0 OFFCURVE",
"1000 18 OFFCURVE",
"1000 42 CURVE SMOOTH",
"1000 67.333 OFFCURVE",
"984 84 OFFCURVE",
"944 84 CURVE SMOOTH",
"656 84 LINE",
"656 1272 LINE"
);
}
);
userData = {
assembly = "PUSHB[ ]\011/* 3 values pushed */
18 8 27 
PUSHW[ ]\011/* 1 value pushed */
-8 
NPUSHB[ ]\011/* 15 values pushed */
17 6 0 8 9 27 64 27 80 18 80 27 4 9 15 
PUSHW[ ]\011/* 3 values pushed */
681 12 411 
NPUSHB[ ]\011/* 9 values pushed */
16 12 12 15 16 190 9 8 2 
PUSHW[ ]\011/* 3 values pushed */
681 5 411 
NPUSHB[ ]\011/* 18 values pushed */
1 5 5 2 1 190 8 25 24 23 22 21 20 19 7 18 27 20 
PUSHW[ ]\011/* 3 values pushed */
727 17 615 
PUSHB[ ]\011/* 8 values pushed */
0 5 9 8 12 25 2 20 
PUSHW[ ]\011/* 4 values pushed */
641 17 23 718 
NPUSHB[ ]\011/* 10 values pushed */
0 103 17 17 1 103 0 16 1 16 
PUSHW[ ]\011/* 6 values pushed */
624 28 161 462 24 300 
SCANCTRL[ ]\011/* ScanConversionControl */
CALL[ ]\011/* CallFunction */
SRP0[ ]\011/* SetRefPoint0 */
MIRP[10110]\011/* MoveIndirectRelPt */
DELTAP1[ ]\011/* DeltaExceptionP1 */
MIRP[01101]\011/* MoveIndirectRelPt */
ALIGNRP[ ]\011/* AlignRelativePt */
SRP0[ ]\011/* SetRefPoint0 */
MIRP[11101]\011/* MoveIndirectRelPt */
MIRP[01101]\011/* MoveIndirectRelPt */
SRP0[ ]\011/* SetRefPoint0 */
MIRP[10100]\011/* MoveIndirectRelPt */
MIRP[01101]\011/* MoveIndirectRelPt */
SVTCA[0]\011/* SetFreedomAndProjectionVectorToAxis */
MIAP[1]\011/* MoveIndirectAbsPt */
ALIGNRP[ ]\011/* AlignRelativePt */
MIAP[1]\011/* MoveIndirectAbsPt */
MIRP[01101]\011/* MoveIndirectRelPt */
MIRP[01101]\011/* MoveIndirectRelPt */
SVTCA[1]\011/* SetFreedomAndProjectionVectorToAxis */
SRP1[ ]\011/* SetRefPoint1 */
SRP2[ ]\011/* SetRefPoint2 */
SLOOP[ ]\011/* SetLoopVariable */
IP[ ]\011/* InterpolatePts */
SVTCA[0]\011/* SetFreedomAndProjectionVectorToAxis */
SRP0[ ]\011/* SetRefPoint0 */
MIRP[11101]\011/* MoveIndirectRelPt */
RTDG[ ]\011/* RoundToDoubleGrid */
SRP2[ ]\011/* SetRefPoint2 */
IP[ ]\011/* InterpolatePts */
MDAP[1]\011/* MoveDirectAbsPt */
RTG[ ]\011/* RoundToGrid */
SVTCA[1]\011/* SetFreedomAndProjectionVectorToAxis */
SRP0[ ]\011/* SetRefPoint0 */
MIRP[10101]\011/* MoveIndirectRelPt */
MIRP[10100]\011/* MoveIndirectRelPt */
MDRP[00100]\011/* MoveDirectRelPt */
SVTCA[0]\011/* SetFreedomAndProjectionVectorToAxis */
SRP0[ ]\011/* SetRefPoint0 */
MIRP[11101]\011/* MoveIndirectRelPt */
RTDG[ ]\011/* RoundToDoubleGrid */
SRP2[ ]\011/* SetRefPoint2 */
IP[ ]\011/* InterpolatePts */
MDAP[1]\011/* MoveDirectAbsPt */
RTG[ ]\011/* RoundToGrid */
SVTCA[1]\011/* SetFreedomAndProjectionVectorToAxis */
SRP0[ ]\011/* SetRefPoint0 */
MIRP[10101]\011/* MoveIndirectRelPt */
MIRP[10100]\011/* MoveIndirectRelPt */
MDRP[00100]\011/* MoveDirectRelPt */
IUP[1]\011/* InterpolateUntPts */
IUP[0]\011/* InterpolateUntPts */
SVTCA[0]\011/* SetFreedomAndProjectionVectorToAxis */
DELTAP1[ ]\011/* DeltaExceptionP1 */
SHPIX[ ]\011/* ShiftZoneByPixel */
SHPIX[ ]\011/* ShiftZoneByPixel */
SHPIX[ ]\011/* ShiftZoneByPixel */
SHPIX[ ]\011/* ShiftZoneByPixel */";
};
width = 1229;
}
);
note = one;
unicode = 0031;
},
{
glyphname = two;
lastChange = "2018-11-25 06:09:51 +0000";
layers = (
{
layerId = "43C596A3-827A-4C98-B0F6-D1945E7BEF5E";
paths = (
{
closed = 1;
nodes = (
"253 90 LINE",
"377 197.333 OFFCURVE",
"537.667 348.333 OFFCURVE",
"735 543 CURVE SMOOTH",
"813.667 620.333 OFFCURVE",
"868.167 678.167 OFFCURVE",
"898.5 716.5 CURVE SMOOTH",
"928.833 754.833 OFFCURVE",
"950.333 790.167 OFFCURVE",
"963 822.5 CURVE",
"959.167 793.167 OFFCURVE",
"982 851.667 OFFCURVE",
"982 929 CURVE SMOOTH",
"982 1113 OFFCURVE",
"808.333 1285 OFFCURVE",
"599 1285 CURVE SMOOTH",
"469.667 1285 OFFCURVE",
"334.5 1218.333 OFFCURVE",
"264.5 1109 CURVE SMOOTH",
"229.5 1054.333 OFFCURVE",
"212 1011 OFFCURVE",
"212 979 CURVE SMOOTH",
"212 957.667 OFFCURVE",
"229.333 940 OFFCURVE",
"252 940 CURVE SMOOTH",
"262.667 940 OFFCURVE",
"272 943.333 OFFCURVE",
"280 950 CURVE SMOOTH",
"286 954.667 OFFCURVE",
"291 965 OFFCURVE",
"295 981 CURVE SMOOTH",
"328.333 1105 OFFCURVE",
"453.333 1200 OFFCURVE",
"600 1200 CURVE SMOOTH",
"764 1200 OFFCURVE",
"897 1070 OFFCURVE",
"897 926 CURVE SMOOTH",
"897 872.667 OFFCURVE",
"880 824.333 OFFCURVE",
"824 755 CURVE",
"871.167 820.167 OFFCURVE",
"852 789.667 OFFCURVE",
"824 755 CURVE SMOOTH",
"796 720.333 OFFCURVE",
"744.333 666 OFFCURVE",
"669 592 CURVE SMOOTH",
"507.667 433.333 OFFCURVE",
"341.667 277.333 OFFCURVE",
"171 124 CURVE",
"171 0 LINE",
"983 0 LINE",
"983 117 LINE SMOOTH",
"983 157 OFFCURVE",
"965 173 OFFCURVE",
"941 173 CURVE SMOOTH",
"915.667 173 OFFCURVE",
"898 157 OFFCURVE",
"898 117 CURVE SMOOTH",
"898 84 LINE",
"253 84 LINE"
);
}
);
userData = {
assembly = "PUSHB[ ]\011/* 2 values pushed */
6 2 
RS[ ]\011/* ReadStore */
EQ[ ]\011/* Equal */
IF[ ]\011/* If */
PUSHB[ ]\011/* 8 values pushed */
27 11 43 5 4 20 0 0 
PUSHW[ ]\011/* 1 value pushed */
347 
PUSHB[ ]\011/* 6 values pushed */
10 12 20 61 34 5 
SVTCA[0]\011/* SetFreedomAndProjectionVectorToAxis */
MIAP[1]\011/* MoveIndirectAbsPt */
MIRP[01101]\011/* MoveIndirectRelPt */
MIAP[1]\011/* MoveIndirectAbsPt */
MIRP[11101]\011/* MoveIndirectRelPt */
SRP1[ ]\011/* SetRefPoint1 */
SRP2[ ]\011/* SetRefPoint2 */
SLOOP[ ]\011/* SetLoopVariable */
IP[ ]\011/* InterpolatePts */
IUP[1]\011/* InterpolateUntPts */
IUP[0]\011/* InterpolateUntPts */
ELSE[ ]\011/* Else */
PUSHW[ ]\011/* 2 values pushed */
22 -34 
NPUSHB[ ]\011/* 44 values pushed */
27 36 52 72 15 122 14 134 39 134 40 134 41 166 40 166 41 187 12 180 42 9 13 18 10 22 53 12 56 42 4 41 35 42 30 43 20 39 30 40 35 12 20 11 
PUSHW[ ]\011/* 1 value pushed */
-20 
NPUSHB[ ]\011/* 13 values pushed */
234 18 237 22 250 18 253 22 4 40 8 8 2 
PUSHW[ ]\011/* 3 values pushed */
681 5 476 
PUSHB[ ]\011/* 8 values pushed */
1 5 5 2 1 190 8 5 
PUSHW[ ]\011/* 6 values pushed */
484 9 11 269 1 347 
PUSHB[ ]\011/* 5 values pushed */
9 9 10 12 26 
PUSHW[ ]\011/* 1 value pushed */
505 
PUSHB[ ]\011/* 5 values pushed */
20 61 34 5 0 
PUSHW[ ]\011/* 4 values pushed */
347 11 2 347 
PUSHB[ ]\011/* 5 values pushed */
8 225 17 61 37 
NPUSHW[ ]\011/* 13 values pushed */
623 45 23 347 30 269 11 621 44 401 262 24 300 
SCANCTRL[ ]\011/* ScanConversionControl */
CALL[ ]\011/* CallFunction */
SRP0[ ]\011/* SetRefPoint0 */
MIRP[10110]\011/* MoveIndirectRelPt */
MIRP[10100]\011/* MoveIndirectRelPt */
MIRP[01101]\011/* MoveIndirectRelPt */
SRP0[ ]\011/* SetRefPoint0 */
MIRP[10110]\011/* MoveIndirectRelPt */
MIRP[01101]\011/* MoveIndirectRelPt */
MIRP[10100]\011/* MoveIndirectRelPt */
MIRP[01101]\011/* MoveIndirectRelPt */
SRP0[ ]\011/* SetRefPoint0 */
MIRP[01101]\011/* MoveIndirectRelPt */
SVTCA[0]\011/* SetFreedomAndProjectionVectorToAxis */
MIAP[1]\011/* MoveIndirectAbsPt */
MIRP[01101]\011/* MoveIndirectRelPt */
MIRP[01101]\011/* MoveIndirectRelPt */
MIAP[1]\011/* MoveIndirectAbsPt */
ALIGNRP[ ]\011/* AlignRelativePt */
SRP0[ ]\011/* SetRefPoint0 */
MIRP[11101]\011/* MoveIndirectRelPt */
MIRP[00100]\011/* MoveIndirectRelPt */
SRP0[ ]\011/* SetRefPoint0 */
MIRP[01101]\011/* MoveIndirectRelPt */
SVTCA[1]\011/* SetFreedomAndProjectionVectorToAxis */
SRP0[ ]\011/* SetRefPoint0 */
MIRP[11101]\011/* MoveIndirectRelPt */
RTDG[ ]\011/* RoundToDoubleGrid */
SRP2[ ]\011/* SetRefPoint2 */
IP[ ]\011/* InterpolatePts */
MDAP[1]\011/* MoveDirectAbsPt */
RTG[ ]\011/* RoundToGrid */
SVTCA[0]\011/* SetFreedomAndProjectionVectorToAxis */
SRP0[ ]\011/* SetRefPoint0 */
MIRP[10101]\011/* MoveIndirectRelPt */
MIRP[10100]\011/* MoveIndirectRelPt */
MDRP[00100]\011/* MoveDirectRelPt */
IUP[1]\011/* InterpolateUntPts */
IUP[0]\011/* InterpolateUntPts */
RS[ ]\011/* ReadStore */
JROF[ ]\011/* JumpRelativeOnFalse */
NPUSHB[ ]\011/* 28 values pushed */
31 36 18 24 22 37 32 38 21 33 24 64 0 19 35 17 64 1 23 31 20 64 1 18 36 20 64 1 
CALL[ ]\011/* CallFunction */
CALL[ ]\011/* CallFunction */
SVTCA[1]\011/* SetFreedomAndProjectionVectorToAxis */
CALL[ ]\011/* CallFunction */
CALL[ ]\011/* CallFunction */
CALL[ ]\011/* CallFunction */
CALL[ ]\011/* CallFunction */
FLIPRGON[ ]\011/* FlipRangeOn */
FLIPRGON[ ]\011/* FlipRangeOn */
SVTCA[0]\011/* SetFreedomAndProjectionVectorToAxis */
DELTAP1[ ]\011/* DeltaExceptionP1 */
SHPIX[ ]\011/* ShiftZoneByPixel */
SHPIX[ ]\011/* ShiftZoneByPixel */
SHPIX[ ]\011/* ShiftZoneByPixel */
SHPIX[ ]\011/* ShiftZoneByPixel */
SHPIX[ ]\011/* ShiftZoneByPixel */
SHPIX[ ]\011/* ShiftZoneByPixel */
SHPIX[ ]\011/* ShiftZoneByPixel */
SVTCA[0]\011/* SetFreedomAndProjectionVectorToAxis */
DELTAP2[ ]\011/* DeltaExceptionP2 */
SVTCA[1]\011/* SetFreedomAndProjectionVectorToAxis */
DELTAP2[ ]\011/* DeltaExceptionP2 */
CALL[ ]\011/* CallFunction */
EIF[ ]\011/* EndIf */";
};
width = 1229;
}
);
note = two;
unicode = 0032;
},
{
glyphname = three;
lastChange = "2018-11-25 06:09:51 +0000";
layers = (
{
layerId = "43C596A3-827A-4C98-B0F6-D1945E7BEF5E";
paths = (
{
closed = 1;
nodes = (
"913.667 743 OFFCURVE",
"980 850 OFFCURVE",
"980 962 CURVE SMOOTH",
"980 1138 OFFCURVE",
"829 1285 OFFCURVE",
"617 1285 CURVE SMOOTH",
"514.333 1285 OFFCURVE",
"422.667 1256.667 OFFCURVE",
"342 1200 CURVE SMOOTH",
"284 1159.333 OFFCURVE",
"255 1125.667 OFFCURVE",
"255 1099 CURVE SMOOTH",
"255 1077.667 OFFCURVE",
"273.333 1060 OFFCURVE",
"296 1060 CURVE SMOOTH",
"310.667 1060 OFFCURVE",
"318.667 1062.333 OFFCURVE",
"340 1089 CURVE SMOOTH",
"398.667 1158.333 OFFCURVE",
"501 1201 OFFCURVE",
"617 1201 CURVE SMOOTH",
"782.333 1201 OFFCURVE",
"895 1088.333 OFFCURVE",
"895 963 CURVE SMOOTH",
"895 841.667 OFFCURVE",
"785.667 734 OFFCURVE",
"635 734 CURVE SMOOTH",
"563 735 LINE SMOOTH",
"529.667 735 OFFCURVE",
"513 717 OFFCURVE",
"513 693 CURVE SMOOTH",
"513 667.667 OFFCURVE",
"529 651 OFFCURVE",
"569 651 CURVE SMOOTH",
"693 651 OFFCURVE",
"827.833 592 OFFCURVE",
"892.5 496 CURVE SMOOTH",
"924.833 448 OFFCURVE",
"941 399 OFFCURVE",
"941 349 CURVE SMOOTH",
"941 199.667 OFFCURVE",
"792.667 54 OFFCURVE",
"598 54 CURVE SMOOTH",
"482.667 54 OFFCURVE",
"373.333 92.333 OFFCURVE",
"270 169 CURVE SMOOTH",
"256.667 179 OFFCURVE",
"244.667 184 OFFCURVE",
"234 184 CURVE SMOOTH",
"212.667 184 OFFCURVE",
"195 165.333 OFFCURVE",
"195 144 CURVE SMOOTH",
"195 132 OFFCURVE",
"200 120.667 OFFCURVE",
"210 110 CURVE SMOOTH",
"271.333 46 OFFCURVE",
"452 -30 OFFCURVE",
"596 -30 CURVE SMOOTH",
"841.333 -30 OFFCURVE",
"1025 150.667 OFFCURVE",
"1025 352 CURVE SMOOTH",
"1025 482.667 OFFCURVE",
"941.667 613.667 OFFCURVE",
"787 683 CURVE"
);
}
);
userData = {
assembly = "PUSHB[ ]\011/* 4 values pushed */
108 56 1 0 
PUSHW[ ]\011/* 1 value pushed */
-14 
NPUSHB[ ]\011/* 51 values pushed */
50 50 53 17 58 36 73 36 74 37 67 56 114 0 6 127 33 134 56 149 4 147 53 150 56 165 53 166 56 185 19 186 23 203 19 203 20 205 23 219 19 221 23 236 19 250 23 255 47 17 0 
PUSHW[ ]\011/* 1 value pushed */
-14 
PUSHB[ ]\011/* 6 values pushed */
20 34 27 36 52 17 
PUSHW[ ]\011/* 1 value pushed */
-34 
NPUSHB[ ]\011/* 28 values pushed */
27 36 52 41 8 15 11 43 40 17 3 47 33 30 26 24 0 5 35 28 0 25 30 32 40 38 44 25 
PUSHW[ ]\011/* 1 value pushed */
347 
PUSHB[ ]\011/* 4 values pushed */
32 32 18 44 
PUSHW[ ]\011/* 1 value pushed */
397 
PUSHB[ ]\011/* 4 values pushed */
38 61 51 14 
PUSHW[ ]\011/* 1 value pushed */
397 
PUSHB[ ]\011/* 6 values pushed */
18 61 6 35 61 54 
PUSHW[ ]\011/* 1 value pushed */
269 
NPUSHB[ ]\011/* 10 values pushed */
21 61 3 28 28 57 3 26 58 47 
PUSHW[ ]\011/* 3 values pushed */
269 28 641 
PUSHB[ ]\011/* 8 values pushed */
11 25 57 51 5 6 13 236 
PUSHW[ ]\011/* 3 values pushed */
384 24 300 
SCANCTRL[ ]\011/* ScanConversionControl */
CALL[ ]\011/* CallFunction */
SVTCA[0]\011/* SetFreedomAndProjectionVectorToAxis */
MIAP[1]\011/* MoveIndirectAbsPt */
MIAP[1]\011/* MoveIndirectAbsPt */
SVTCA[1]\011/* SetFreedomAndProjectionVectorToAxis */
FLIPOFF[ ]\011/* SetAutoFlipOff */
SRP0[ ]\011/* SetRefPoint0 */
MIRP[10100]\011/* MoveIndirectRelPt */
FLIPON[ ]\011/* SetAutoFlipOn */
MIRP[00100]\011/* MoveIndirectRelPt */
MIRP[00100]\011/* MoveIndirectRelPt */
FLIPOFF[ ]\011/* SetAutoFlipOff */
SRP0[ ]\011/* SetRefPoint0 */
MIRP[00110]\011/* MoveIndirectRelPt */
SRP2[ ]\011/* SetRefPoint2 */
IP[ ]\011/* InterpolatePts */
MDAP[1]\011/* MoveDirectAbsPt */
FLIPON[ ]\011/* SetAutoFlipOn */
SRP0[ ]\011/* SetRefPoint0 */
MIRP[01101]\011/* MoveIndirectRelPt */
MIRP[10100]\011/* MoveIndirectRelPt */
MIRP[01101]\011/* MoveIndirectRelPt */
SVTCA[0]\011/* SetFreedomAndProjectionVectorToAxis */
SRP0[ ]\011/* SetRefPoint0 */
MIRP[11101]\011/* MoveIndirectRelPt */
MIRP[00100]\011/* MoveIndirectRelPt */
SRP0[ ]\011/* SetRefPoint0 */
MIRP[11101]\011/* MoveIndirectRelPt */
MIRP[00100]\011/* MoveIndirectRelPt */
SRP2[ ]\011/* SetRefPoint2 */
IP[ ]\011/* InterpolatePts */
MDAP[1]\011/* MoveDirectAbsPt */
MIRP[01101]\011/* MoveIndirectRelPt */
SRP1[ ]\011/* SetRefPoint1 */
SRP2[ ]\011/* SetRefPoint2 */
IP[ ]\011/* InterpolatePts */
SRP2[ ]\011/* SetRefPoint2 */
IP[ ]\011/* InterpolatePts */
SRP1[ ]\011/* SetRefPoint1 */
IP[ ]\011/* InterpolatePts */
SVTCA[1]\011/* SetFreedomAndProjectionVectorToAxis */
SRP1[ ]\011/* SetRefPoint1 */
SRP2[ ]\011/* SetRefPoint2 */
SLOOP[ ]\011/* SetLoopVariable */
IP[ ]\011/* InterpolatePts */
SRP2[ ]\011/* SetRefPoint2 */
SLOOP[ ]\011/* SetLoopVariable */
IP[ ]\011/* InterpolatePts */
SRP1[ ]\011/* SetRefPoint1 */
IP[ ]\011/* InterpolatePts */
IUP[1]\011/* InterpolateUntPts */
IUP[0]\011/* InterpolateUntPts */
RS[ ]\011/* ReadStore */
JROF[ ]\011/* JumpRelativeOnFalse */
NPUSHB[ ]\011/* 28 values pushed */
52 53 36 37 19 20 4 5 37 52 35 64 1 19 5 21 64 1 36 53 38 64 1 20 4 18 64 0 
SVTCA[0]\011/* SetFreedomAndProjectionVectorToAxis */
CALL[ ]\011/* CallFunction */
CALL[ ]\011/* CallFunction */
SVTCA[1]\011/* SetFreedomAndProjectionVectorToAxis */
CALL[ ]\011/* CallFunction */
CALL[ ]\011/* CallFunction */
FLIPRGON[ ]\011/* FlipRangeOn */
FLIPRGON[ ]\011/* FlipRangeOn */
FLIPRGON[ ]\011/* FlipRangeOn */
FLIPRGON[ ]\011/* FlipRangeOn */
SVTCA[1]\011/* SetFreedomAndProjectionVectorToAxis */
CALL[ ]\011/* CallFunction */
CALL[ ]\011/* CallFunction */
SHPIX[ ]\011/* ShiftZoneByPixel */
DELTAP1[ ]\011/* DeltaExceptionP1 */
DELTAP2[ ]\011/* DeltaExceptionP2 */
SHPIX[ ]\011/* ShiftZoneByPixel */
SVTCA[0]\011/* SetFreedomAndProjectionVectorToAxis */
SHPIX[ ]\011/* ShiftZoneByPixel */
DELTAP2[ ]\011/* DeltaExceptionP2 */";
};
width = 1229;
}
);
note = three;
unicode = 0033;
},
{
glyphname = four;
lastChange = "2018-11-25 06:09:51 +0000";
layers = (
{
layerId = "43C596A3-827A-4C98-B0F6-D1945E7BEF5E";
paths = (
{
closed = 1;
nodes = (
"771 84 LINE",
"614 84 LINE SMOOTH",
"572.667 84 OFFCURVE",
"557 67.333 OFFCURVE",
"557 42 CURVE SMOOTH",
"557 18 OFFCURVE",
"572.667 0 OFFCURVE",
"614 0 CURVE SMOOTH",
"926 0 LINE SMOOTH",
"967.333 0 OFFCURVE",
"983 18 OFFCURVE",
"983 42 CURVE SMOOTH",
"983 67.333 OFFCURVE",
"967.333 84 OFFCURVE",
"926 84 CURVE SMOOTH",
"856 84 LINE",
"856 351 LINE",
"926 351 LINE SMOOTH",
"967.333 351 OFFCURVE",
"983 369 OFFCURVE",
"983 393 CURVE SMOOTH",
"983 418.333 OFFCURVE",
"967.333 435 OFFCURVE",
"926 435 CURVE SMOOTH",
"856 435 LINE",
"856 1255 LINE",
"681 1255 LINE",
"214 448 LINE",
"214 351 LINE",
"771 351 LINE"
);
},
{
closed = 1;
nodes = (
"302 435 LINE",
"727 1170 LINE",
"771 1170 LINE",
"771 435 LINE"
);
}
);
userData = {
assembly = "NPUSHB[ ]\011/* 13 values pushed */
0 3 0 32 2 30 33 5 29 31 28 22 25 
PUSHW[ ]\011/* 1 value pushed */
486 
PUSHB[ ]\011/* 7 values pushed */
29 29 190 22 15 21 18 
PUSHW[ ]\011/* 1 value pushed */
352 
NPUSHB[ ]\011/* 18 values pushed */
14 14 190 21 32 33 33 103 2 3 20 2 2 3 2 33 31 32 
PUSHW[ ]\011/* 1 value pushed */
347 
PUSHB[ ]\011/* 8 values pushed */
3 3 4 5 33 30 13 30 
PUSHW[ ]\011/* 1 value pushed */
347 
PUSHB[ ]\011/* 3 values pushed */
0 14 0 
PUSHW[ ]\011/* 1 value pushed */
754 
PUSHB[ ]\011/* 3 values pushed */
29 29 28 
PUSHW[ ]\011/* 4 values pushed */
347 22 15 347 
PUSHB[ ]\011/* 3 values pushed */
22 21 3 
PUSHW[ ]\011/* 1 value pushed */
643 
NPUSHB[ ]\011/* 15 values pushed */
1 5 14 103 29 29 31 0 15 30 1 0 30 1 30 
PUSHW[ ]\011/* 3 values pushed */
622 33 347 
NPUSHB[ ]\011/* 11 values pushed */
0 1 1 1 25 34 4 4 21 12 161 
PUSHW[ ]\011/* 3 values pushed */
466 24 292 
SCANCTRL[ ]\011/* ScanConversionControl */
CALL[ ]\011/* CallFunction */
SVTCA[0]\011/* SetFreedomAndProjectionVectorToAxis */
MIAP[1]\011/* MoveIndirectAbsPt */
MIAP[1]\011/* MoveIndirectAbsPt */
SVTCA[1]\011/* SetFreedomAndProjectionVectorToAxis */
FLIPOFF[ ]\011/* SetAutoFlipOff */
SRP0[ ]\011/* SetRefPoint0 */
MIRP[10100]\011/* MoveIndirectRelPt */
DELTAP2[ ]\011/* DeltaExceptionP2 */
FLIPON[ ]\011/* SetAutoFlipOn */
MIRP[11101]\011/* MoveIndirectRelPt */
MIRP[10110]\011/* MoveIndirectRelPt */
DELTAP1[ ]\011/* DeltaExceptionP1 */
DELTAP2[ ]\011/* DeltaExceptionP2 */
ALIGNRP[ ]\011/* AlignRelativePt */
ALIGNRP[ ]\011/* AlignRelativePt */
ALIGNRP[ ]\011/* AlignRelativePt */
SRP0[ ]\011/* SetRefPoint0 */
MIRP[11101]\011/* MoveIndirectRelPt */
ALIGNRP[ ]\011/* AlignRelativePt */
SRP0[ ]\011/* SetRefPoint0 */
MIRP[00100]\011/* MoveIndirectRelPt */
SVTCA[0]\011/* SetFreedomAndProjectionVectorToAxis */
SRP0[ ]\011/* SetRefPoint0 */
ALIGNRP[ ]\011/* AlignRelativePt */
MIRP[01101]\011/* MoveIndirectRelPt */
SRP0[ ]\011/* SetRefPoint0 */
MIRP[11101]\011/* MoveIndirectRelPt */
ALIGNRP[ ]\011/* AlignRelativePt */
SRP0[ ]\011/* SetRefPoint0 */
MIRP[01110]\011/* MoveIndirectRelPt */
ALIGNRP[ ]\011/* AlignRelativePt */
SRP0[ ]\011/* SetRefPoint0 */
MIRP[01101]\011/* MoveIndirectRelPt */
ALIGNRP[ ]\011/* AlignRelativePt */
SRP0[ ]\011/* SetRefPoint0 */
ALIGNRP[ ]\011/* AlignRelativePt */
ALIGNRP[ ]\011/* AlignRelativePt */
SRP0[ ]\011/* SetRefPoint0 */
ALIGNRP[ ]\011/* AlignRelativePt */
SRP0[ ]\011/* SetRefPoint0 */
MIRP[11101]\011/* MoveIndirectRelPt */
ALIGNRP[ ]\011/* AlignRelativePt */
SRP1[ ]\011/* SetRefPoint1 */
IP[ ]\011/* InterpolatePts */
SFVTCA[1]\011/* SetFVectorToAxis */
SDPVTL[1]\011/* SetDualPVectorToLine */
MDAP[0]\011/* MoveDirectAbsPt */
CALL[ ]\011/* CallFunction */
RDTG[ ]\011/* RoundDownToGrid */
SRP0[ ]\011/* SetRefPoint0 */
MDRP[00100]\011/* MoveDirectRelPt */
RTG[ ]\011/* RoundToGrid */
SVTCA[0]\011/* SetFreedomAndProjectionVectorToAxis */
SRP0[ ]\011/* SetRefPoint0 */
MIRP[01101]\011/* MoveIndirectRelPt */
SVTCA[1]\011/* SetFreedomAndProjectionVectorToAxis */
SRP0[ ]\011/* SetRefPoint0 */
MIRP[10101]\011/* MoveIndirectRelPt */
MDRP[10100]\011/* MoveDirectRelPt */
ALIGNRP[ ]\011/* AlignRelativePt */
SVTCA[0]\011/* SetFreedomAndProjectionVectorToAxis */
SRP0[ ]\011/* SetRefPoint0 */
MIRP[01101]\011/* MoveIndirectRelPt */
SVTCA[1]\011/* SetFreedomAndProjectionVectorToAxis */
SRP0[ ]\011/* SetRefPoint0 */
MIRP[10101]\011/* MoveIndirectRelPt */
MDRP[10100]\011/* MoveDirectRelPt */
ALIGNRP[ ]\011/* AlignRelativePt */
ISECT[ ]\011/* MovePtToIntersect */
IUP[1]\011/* InterpolateUntPts */
IUP[0]\011/* InterpolateUntPts */
DELTAP2[ ]\011/* DeltaExceptionP2 */";
};
width = 1229;
}
);
note = four;
unicode = 0034;
},
{
glyphname = five;
lastChange = "2018-11-25 06:09:51 +0000";
layers = (
{
layerId = "43C596A3-827A-4C98-B0F6-D1945E7BEF5E";
paths = (
{
closed = 1;
nodes = (
"885 1170 LINE SMOOTH",
"925 1170 OFFCURVE",
"941 1188 OFFCURVE",
"941 1212 CURVE SMOOTH",
"941 1237.333 OFFCURVE",
"925 1255 OFFCURVE",
"885 1255 CURVE SMOOTH",
"299 1255 LINE",
"299 698 LINE SMOOTH",
"299 668.667 OFFCURVE",
"315 652 OFFCURVE",
"339 652 CURVE SMOOTH",
"347.667 652 OFFCURVE",
"362.667 657.333 OFFCURVE",
"384 668 CURVE SMOOTH",
"471.333 714 OFFCURVE",
"558.667 737 OFFCURVE",
"646 737 CURVE SMOOTH",
"816.667 737 OFFCURVE",
"940 611.333 OFFCURVE",
"940 422 CURVE SMOOTH",
"940 199.333 OFFCURVE",
"797 54 OFFCURVE",
"601 54 CURVE SMOOTH",
"482.333 54 OFFCURVE",
"372.667 101 OFFCURVE",
"272 195 CURVE SMOOTH",
"259.333 207 OFFCURVE",
"247.333 213 OFFCURVE",
"236 213 CURVE SMOOTH",
"214.667 213 OFFCURVE",
"196 194 OFFCURVE",
"196 170 CURVE SMOOTH",
"196 155.333 OFFCURVE",
"208.667 137 OFFCURVE",
"234 115 CURVE SMOOTH",
"276.667 78.333 OFFCURVE",
"324 47.667 OFFCURVE",
"376 23 CURVE SMOOTH",
"449.333 -12.333 OFFCURVE",
"525.667 -30 OFFCURVE",
"605 -30 CURVE SMOOTH",
"845 -30 OFFCURVE",
"1025 151.333 OFFCURVE",
"1025 418 CURVE SMOOTH",
"1025 659.333 OFFCURVE",
"864.667 821 OFFCURVE",
"654 821 CURVE SMOOTH",
"572.667 821 OFFCURVE",
"481.667 800.333 OFFCURVE",
"383 759 CURVE",
"383 1170 LINE"
);
}
);
userData = {
assembly = "NPUSHB[ ]\011/* 34 values pushed */
11 27 9 28 34 9 41 25 58 24 5 45 41 76 41 95 41 110 41 152 41 201 25 219 24 235 24 8 25 34 27 36 52 22 
PUSHW[ ]\011/* 1 value pushed */
-34 
NPUSHB[ ]\011/* 19 values pushed */
27 36 52 27 32 35 8 20 16 32 36 22 31 26 1 31 29 33 0 
PUSHW[ ]\011/* 6 values pushed */
347 37 1 347 33 484 
NPUSHB[ ]\011/* 9 values pushed */
29 61 4 4 10 0 38 37 19 
PUSHW[ ]\011/* 1 value pushed */
483 
NPUSHB[ ]\011/* 9 values pushed */
23 61 10 26 61 16 7 1 7 
PUSHW[ ]\011/* 3 values pushed */
645 41 620 
PUSHB[ ]\011/* 6 values pushed */
37 0 1 103 37 36 
PUSHW[ ]\011/* 1 value pushed */
477 
PUSHB[ ]\011/* 8 values pushed */
16 25 45 37 4 10 13 236 
PUSHW[ ]\011/* 3 values pushed */
384 24 292 
SCANCTRL[ ]\011/* ScanConversionControl */
CALL[ ]\011/* CallFunction */
SVTCA[0]\011/* SetFreedomAndProjectionVectorToAxis */
MIAP[1]\011/* MoveIndirectAbsPt */
MIAP[1]\011/* MoveIndirectAbsPt */
SVTCA[1]\011/* SetFreedomAndProjectionVectorToAxis */
FLIPOFF[ ]\011/* SetAutoFlipOff */
SRP0[ ]\011/* SetRefPoint0 */
MIRP[10100]\011/* MoveIndirectRelPt */
FLIPON[ ]\011/* SetAutoFlipOn */
MIRP[10100]\011/* MoveIndirectRelPt */
ALIGNRP[ ]\011/* AlignRelativePt */
MIRP[11101]\011/* MoveIndirectRelPt */
ALIGNRP[ ]\011/* AlignRelativePt */
SRP0[ ]\011/* SetRefPoint0 */
MIRP[01101]\011/* MoveIndirectRelPt */
MIRP[11101]\011/* MoveIndirectRelPt */
DELTAP1[ ]\011/* DeltaExceptionP1 */
MIRP[01101]\011/* MoveIndirectRelPt */
SVTCA[0]\011/* SetFreedomAndProjectionVectorToAxis */
SRP0[ ]\011/* SetRefPoint0 */
MIRP[11101]\011/* MoveIndirectRelPt */
MIRP[00100]\011/* MoveIndirectRelPt */
SRP0[ ]\011/* SetRefPoint0 */
ALIGNRP[ ]\011/* AlignRelativePt */
SRP1[ ]\011/* SetRefPoint1 */
SRP2[ ]\011/* SetRefPoint2 */
IP[ ]\011/* InterpolatePts */
MDAP[1]\011/* MoveDirectAbsPt */
MIRP[01101]\011/* MoveIndirectRelPt */
MIRP[11101]\011/* MoveIndirectRelPt */
MIRP[01101]\011/* MoveIndirectRelPt */
SRP0[ ]\011/* SetRefPoint0 */
MIRP[01101]\011/* MoveIndirectRelPt */
SRP1[ ]\011/* SetRefPoint1 */
SRP2[ ]\011/* SetRefPoint2 */
IP[ ]\011/* InterpolatePts */
SVTCA[1]\011/* SetFreedomAndProjectionVectorToAxis */
SRP1[ ]\011/* SetRefPoint1 */
SRP2[ ]\011/* SetRefPoint2 */
IP[ ]\011/* InterpolatePts */
IP[ ]\011/* InterpolatePts */
SRP2[ ]\011/* SetRefPoint2 */
IP[ ]\011/* InterpolatePts */
SRP1[ ]\011/* SetRefPoint1 */
IP[ ]\011/* InterpolatePts */
IUP[1]\011/* InterpolateUntPts */
IUP[0]\011/* InterpolateUntPts */
RS[ ]\011/* ReadStore */
JROF[ ]\011/* JumpRelativeOnFalse */
NPUSHB[ ]\011/* 24 values pushed */
24 28 5 9 28 5 26 64 1 24 9 26 64 1 27 6 29 64 1 25 8 23 64 0 
SVTCA[0]\011/* SetFreedomAndProjectionVectorToAxis */
CALL[ ]\011/* CallFunction */
CALL[ ]\011/* CallFunction */
SVTCA[1]\011/* SetFreedomAndProjectionVectorToAxis */
CALL[ ]\011/* CallFunction */
CALL[ ]\011/* CallFunction */
FLIPRGON[ ]\011/* FlipRangeOn */
FLIPRGON[ ]\011/* FlipRangeOn */
SVTCA[0]\011/* SetFreedomAndProjectionVectorToAxis */
SHPIX[ ]\011/* ShiftZoneByPixel */
SVTCA[1]\011/* SetFreedomAndProjectionVectorToAxis */
CALL[ ]\011/* CallFunction */
CALL[ ]\011/* CallFunction */
DELTAP1[ ]\011/* DeltaExceptionP1 */
DELTAP2[ ]\011/* DeltaExceptionP2 */";
};
width = 1229;
}
);
note = five;
unicode = 0035;
},
{
glyphname = six;
lastChange = "2018-11-25 06:09:51 +0000";
layers = (
{
layerId = "43C596A3-827A-4C98-B0F6-D1945E7BEF5E";
paths = (
{
closed = 1;
nodes = (
"360 577.667 OFFCURVE",
"358 612 OFFCURVE",
"358 634 CURVE SMOOTH",
"358 942 OFFCURVE",
"614 1200 OFFCURVE",
"874 1200 CURVE SMOOTH",
"914.667 1200 OFFCURVE",
"948.667 1193.333 OFFCURVE",
"976 1180 CURVE",
"988 1173.333 OFFCURVE",
"998.333 1170 OFFCURVE",
"1007 1170 CURVE SMOOTH",
"1029.667 1170 OFFCURVE",
"1046 1187 OFFCURVE",
"1046 1211 CURVE SMOOTH",
"1046 1227.667 OFFCURVE",
"1038 1241 OFFCURVE",
"1022 1251 CURVE SMOOTH",
"984.667 1273.667 OFFCURVE",
"938 1285 OFFCURVE",
"882 1285 CURVE SMOOTH",
"716.667 1285 OFFCURVE",
"571.667 1210.5 OFFCURVE",
"465 1104.5 CURVE SMOOTH",
"411.667 1051.5 OFFCURVE",
"369 990 OFFCURVE",
"337 920 CURVE SMOOTH",
"295 829.333 OFFCURVE",
"274 731.333 OFFCURVE",
"274 626 CURVE SMOOTH",
"274 486 OFFCURVE",
"296.333 358.333 OFFCURVE",
"341 243 CURVE SMOOTH",
"413 57.667 OFFCURVE",
"547.667 -30 OFFCURVE",
"693 -30 CURVE SMOOTH",
"915.667 -30 OFFCURVE",
"1050 169 OFFCURVE",
"1050 369 CURVE SMOOTH",
"1050 587.667 OFFCURVE",
"886.667 756 OFFCURVE",
"708 756 CURVE SMOOTH",
"573.333 756 OFFCURVE",
"468 684.333 OFFCURVE",
"364 531 CURVE"
);
},
{
closed = 1;
nodes = (
"433 486.667 OFFCURVE",
"478 552.333 OFFCURVE",
"518 589 CURVE SMOOTH",
"578 644.333 OFFCURVE",
"640.333 672 OFFCURVE",
"705 672 CURVE SMOOTH",
"839.667 672 OFFCURVE",
"966 543.667 OFFCURVE",
"966 369 CURVE SMOOTH",
"966 182.333 OFFCURVE",
"844.333 54 OFFCURVE",
"695 54 CURVE SMOOTH",
"547 54 OFFCURVE",
"433.667 149.333 OFFCURVE",
"383 392 CURVE"
);
}
);
userData = {
assembly = "NPUSHB[ ]\011/* 12 values pushed */
46 34 20 36 52 34 30 43 30 33 30 38 
PUSHW[ ]\011/* 3 values pushed */
-10 0 -30 
NPUSHB[ ]\011/* 14 values pushed */
53 4 59 8 67 4 75 8 85 4 90 8 6 37 
PUSHW[ ]\011/* 1 value pushed */
-34 
PUSHB[ ]\011/* 4 values pushed */
27 36 52 32 
PUSHW[ ]\011/* 1 value pushed */
-34 
PUSHB[ ]\011/* 4 values pushed */
27 36 52 34 
PUSHW[ ]\011/* 1 value pushed */
-34 
PUSHB[ ]\011/* 4 values pushed */
27 35 52 36 
PUSHW[ ]\011/* 1 value pushed */
-44 
NPUSHB[ ]\011/* 10 values pushed */
27 36 52 41 30 43 30 36 8 13 
PUSHW[ ]\011/* 1 value pushed */
-30 
NPUSHB[ ]\011/* 127 values pushed */
4 4 4 8 20 4 20 8 38 4 38 8 42 19 58 19 75 19 91 19 106 19 121 19 136 19 133 36 187 19 181 36 218 11 218 18 235 13 19 11 1 5 8 7 32 6 38 25 15 36 32 37 33 101 32 99 33 121 33 121 40 115 47 112 48 179 34 187 42 214 12 226 10 230 12 18 90 8 35 15 33 16 17 18 32 19 20 31 21 30 22 29 23 25 16 24 13 34 0 36 13 12 37 11 38 10 1 48 47 2 46 44 4 40 8 41 7 43 42 5 23 6 14 13 36 49 0 
PUSHW[ ]\011/* 1 value pushed */
677 
PUSHB[ ]\011/* 6 values pushed */
45 61 3 3 9 27 
PUSHW[ ]\011/* 1 value pushed */
478 
NPUSHB[ ]\011/* 22 values pushed */
31 61 20 5 39 61 9 13 24 225 6 61 0 42 16 42 32 42 48 42 4 42 
PUSHW[ ]\011/* 6 values pushed */
717 50 36 292 12 678 
PUSHB[ ]\011/* 8 values pushed */
34 61 48 14 1 14 25 49 
PUSHW[ ]\011/* 4 values pushed */
312 385 24 300 
SCANCTRL[ ]\011/* ScanConversionControl */
CALL[ ]\011/* CallFunction */
FLIPOFF[ ]\011/* SetAutoFlipOff */
SRP0[ ]\011/* SetRefPoint0 */
MIRP[10100]\011/* MoveIndirectRelPt */
DELTAP1[ ]\011/* DeltaExceptionP1 */
FLIPON[ ]\011/* SetAutoFlipOn */
MIRP[01101]\011/* MoveIndirectRelPt */
MIRP[10100]\011/* MoveIndirectRelPt */
MIRP[01101]\011/* MoveIndirectRelPt */
SRP0[ ]\011/* SetRefPoint0 */
MIRP[11101]\011/* MoveIndirectRelPt */
DELTAP1[ ]\011/* DeltaExceptionP1 */
MIRP[11101]\011/* MoveIndirectRelPt */
MIRP[00100]\011/* MoveIndirectRelPt */
SVTCA[0]\011/* SetFreedomAndProjectionVectorToAxis */
MIAP[1]\011/* MoveIndirectAbsPt */
MIRP[01101]\011/* MoveIndirectRelPt */
MIAP[1]\011/* MoveIndirectAbsPt */
MIRP[01101]\011/* MoveIndirectRelPt */
MIRP[01101]\011/* MoveIndirectRelPt */
SRP2[ ]\011/* SetRefPoint2 */
IP[ ]\011/* InterpolatePts */
MDAP[1]\011/* MoveDirectAbsPt */
MIRP[01101]\011/* MoveIndirectRelPt */
MIRP[00100]\011/* MoveIndirectRelPt */
SVTCA[1]\011/* SetFreedomAndProjectionVectorToAxis */
SRP1[ ]\011/* SetRefPoint1 */
SRP2[ ]\011/* SetRefPoint2 */
IP[ ]\011/* InterpolatePts */
SRP1[ ]\011/* SetRefPoint1 */
SRP2[ ]\011/* SetRefPoint2 */
SLOOP[ ]\011/* SetLoopVariable */
IP[ ]\011/* InterpolatePts */
SRP1[ ]\011/* SetRefPoint1 */
SRP2[ ]\011/* SetRefPoint2 */
SLOOP[ ]\011/* SetLoopVariable */
IP[ ]\011/* InterpolatePts */
IUP[1]\011/* InterpolateUntPts */
IUP[0]\011/* InterpolateUntPts */
RS[ ]\011/* ReadStore */
JROF[ ]\011/* JumpRelativeOnFalse */
NPUSHB[ ]\011/* 28 values pushed */
37 44 32 33 4 19 16 15 17 15 18 15 3 6 12 13 11 13 2 6 44 4 42 64 1 32 19 34 
PUSHW[ ]\011/* 1 value pushed */
428 
NPUSHB[ ]\011/* 21 values pushed */
0 38 10 36 64 0 37 36 40 8 42 64 1 43 5 45 64 1 33 15 31 
PUSHW[ ]\011/* 1 value pushed */
428 
NPUSHB[ ]\011/* 11 values pushed */
1 37 13 39 64 0 41 7 39 64 0 
SVTCA[0]\011/* SetFreedomAndProjectionVectorToAxis */
CALL[ ]\011/* CallFunction */
CALL[ ]\011/* CallFunction */
CALL[ ]\011/* CallFunction */
CALL[ ]\011/* CallFunction */
SVTCA[1]\011/* SetFreedomAndProjectionVectorToAxis */
CALL[ ]\011/* CallFunction */
SRP0[ ]\011/* SetRefPoint0 */
ALIGNRP[ ]\011/* AlignRelativePt */
CALL[ ]\011/* CallFunction */
CALL[ ]\011/* CallFunction */
CALL[ ]\011/* CallFunction */
LOOPCALL[ ]\011/* LoopAndCallFunction */
LOOPCALL[ ]\011/* LoopAndCallFunction */
FLIPRGON[ ]\011/* FlipRangeOn */
FLIPRGON[ ]\011/* FlipRangeOn */
FLIPRGON[ ]\011/* FlipRangeOn */
SVTCA[1]\011/* SetFreedomAndProjectionVectorToAxis */
DELTAP2[ ]\011/* DeltaExceptionP2 */
DELTAP1[ ]\011/* DeltaExceptionP1 */
SHPIX[ ]\011/* ShiftZoneByPixel */
SHPIX[ ]\011/* ShiftZoneByPixel */
SHPIX[ ]\011/* ShiftZoneByPixel */
SHPIX[ ]\011/* ShiftZoneByPixel */
CALL[ ]\011/* CallFunction */
CALL[ ]\011/* CallFunction */
CALL[ ]\011/* CallFunction */
CALL[ ]\011/* CallFunction */
SVTCA[0]\011/* SetFreedomAndProjectionVectorToAxis */
DELTAP1[ ]\011/* DeltaExceptionP1 */
SHPIX[ ]\011/* ShiftZoneByPixel */
SHPIX[ ]\011/* ShiftZoneByPixel */
SHPIX[ ]\011/* ShiftZoneByPixel */
SHPIX[ ]\011/* ShiftZoneByPixel */
SHPIX[ ]\011/* ShiftZoneByPixel */
CALL[ ]\011/* CallFunction */";
};
width = 1229;
}
);
note = six;
unicode = 0036;
},
{
glyphname = seven;
lastChange = "2018-11-25 06:09:51 +0000";
layers = (
{
layerId = "43C596A3-827A-4C98-B0F6-D1945E7BEF5E";
paths = (
{
closed = 1;
nodes = (
"564 66 LINE SMOOTH",
"560 54 OFFCURVE",
"558 44.667 OFFCURVE",
"558 38 CURVE SMOOTH",
"558 16.667 OFFCURVE",
"576 -2 OFFCURVE",
"600 -2 CURVE SMOOTH",
"618.667 -2 OFFCURVE",
"633.333 6.333 OFFCURVE",
"644 41 CURVE SMOOTH",
"982 1121 LINE",
"982 1255 LINE",
"211 1255 LINE",
"211 1096 LINE SMOOTH",
"211 1056 OFFCURVE",
"229 1040 OFFCURVE",
"253 1040 CURVE SMOOTH",
"278.333 1040 OFFCURVE",
"295 1056 OFFCURVE",
"295 1096 CURVE SMOOTH",
"295 1170 LINE",
"897 1170 LINE",
"897 1132 LINE"
);
}
);
userData = {
assembly = "PUSHB[ ]\011/* 2 values pushed */
9 3 
PUSHW[ ]\011/* 3 values pushed */
681 6 352 
NPUSHB[ ]\011/* 42 values pushed */
2 6 6 3 2 190 9 12 13 13 103 21 0 20 21 21 0 21 9 0 1 12 23 11 21 12 0 3 16 1 2 103 11 10 17 15 16 10 4 16 12 11 
PUSHW[ ]\011/* 3 values pushed */
347 1 680 
PUSHB[ ]\011/* 5 values pushed */
23 9 25 22 236 
PUSHW[ ]\011/* 3 values pushed */
262 24 300 
SCANCTRL[ ]\011/* ScanConversionControl */
CALL[ ]\011/* CallFunction */
FLIPOFF[ ]\011/* SetAutoFlipOff */
SRP0[ ]\011/* SetRefPoint0 */
MIRP[00100]\011/* MoveIndirectRelPt */
FLIPON[ ]\011/* SetAutoFlipOn */
SRP0[ ]\011/* SetRefPoint0 */
MIRP[10100]\011/* MoveIndirectRelPt */
MIRP[01101]\011/* MoveIndirectRelPt */
SVTCA[0]\011/* SetFreedomAndProjectionVectorToAxis */
MIAP[1]\011/* MoveIndirectAbsPt */
MIAP[1]\011/* MoveIndirectAbsPt */
SRP0[ ]\011/* SetRefPoint0 */
ALIGNRP[ ]\011/* AlignRelativePt */
ALIGNRP[ ]\011/* AlignRelativePt */
SRP0[ ]\011/* SetRefPoint0 */
ALIGNRP[ ]\011/* AlignRelativePt */
MIRP[11101]\011/* MoveIndirectRelPt */
ALIGNRP[ ]\011/* AlignRelativePt */
SRP1[ ]\011/* SetRefPoint1 */
SLOOP[ ]\011/* SetLoopVariable */
IP[ ]\011/* InterpolatePts */
SVTCA[1]\011/* SetFreedomAndProjectionVectorToAxis */
SRP1[ ]\011/* SetRefPoint1 */
SRP2[ ]\011/* SetRefPoint2 */
IP[ ]\011/* InterpolatePts */
SRP2[ ]\011/* SetRefPoint2 */
IP[ ]\011/* InterpolatePts */
SRP1[ ]\011/* SetRefPoint1 */
IP[ ]\011/* InterpolatePts */
SDPVTL[1]\011/* SetDualPVectorToLine */
SFVTPV[ ]\011/* SetFVectorToPVector */
MDAP[0]\011/* MoveDirectAbsPt */
CALL[ ]\011/* CallFunction */
SFVTPV[ ]\011/* SetFVectorToPVector */
RDTG[ ]\011/* RoundDownToGrid */
SRP0[ ]\011/* SetRefPoint0 */
MDRP[00100]\011/* MoveDirectRelPt */
RTG[ ]\011/* RoundToGrid */
SVTCA[1]\011/* SetFreedomAndProjectionVectorToAxis */
SRP0[ ]\011/* SetRefPoint0 */
MIRP[11101]\011/* MoveIndirectRelPt */
RTDG[ ]\011/* RoundToDoubleGrid */
SRP2[ ]\011/* SetRefPoint2 */
IP[ ]\011/* InterpolatePts */
MDAP[1]\011/* MoveDirectAbsPt */
RTG[ ]\011/* RoundToGrid */
SVTCA[0]\011/* SetFreedomAndProjectionVectorToAxis */
SRP0[ ]\011/* SetRefPoint0 */
MIRP[10101]\011/* MoveIndirectRelPt */
MIRP[10100]\011/* MoveIndirectRelPt */
MDRP[00100]\011/* MoveDirectRelPt */
IUP[1]\011/* InterpolateUntPts */
IUP[0]\011/* InterpolateUntPts */";
};
width = 1229;
}
);
note = seven;
unicode = 0037;
},
{
glyphname = eight;
lastChange = "2018-11-25 06:09:51 +0000";
layers = (
{
layerId = "43C596A3-827A-4C98-B0F6-D1945E7BEF5E";
paths = (
{
closed = 1;
nodes = (
"848.333 686.333 OFFCURVE",
"892.667 723.333 OFFCURVE",
"920 762 CURVE SMOOTH",
"958.667 815.333 OFFCURVE",
"978 874.667 OFFCURVE",
"978 940 CURVE SMOOTH",
"978 1124 OFFCURVE",
"816.333 1285 OFFCURVE",
"615 1285 CURVE SMOOTH",
"415 1285 OFFCURVE",
"252 1124 OFFCURVE",
"252 940 CURVE SMOOTH",
"252 874.667 OFFCURVE",
"271.333 815 OFFCURVE",
"310 761 CURVE SMOOTH",
"338 723 OFFCURVE",
"382.667 686.333 OFFCURVE",
"444 651 CURVE",
"302.667 581.667 OFFCURVE",
"231 463.667 OFFCURVE",
"231 337 CURVE SMOOTH",
"231 138.333 OFFCURVE",
"401.667 -30 OFFCURVE",
"615 -30 CURVE SMOOTH",
"828.333 -30 OFFCURVE",
"999 138.333 OFFCURVE",
"999 337 CURVE SMOOTH",
"999 465 OFFCURVE",
"927 583 OFFCURVE",
"787 651 CURVE"
);
},
{
closed = 1;
nodes = (
"892 807.667 OFFCURVE",
"772.667 693 OFFCURVE",
"614 693 CURVE SMOOTH",
"456.667 693 OFFCURVE",
"337 807.333 OFFCURVE",
"337 938 CURVE SMOOTH",
"337 1079.333 OFFCURVE",
"459.333 1200 OFFCURVE",
"614 1200 CURVE SMOOTH",
"770 1200 OFFCURVE",
"892 1081 OFFCURVE",
"892 937 CURVE SMOOTH"
);
},
{
closed = 1;
nodes = (
"915 184.333 OFFCURVE",
"784.333 54 OFFCURVE",
"615 54 CURVE SMOOTH",
"445.667 54 OFFCURVE",
"315 184 OFFCURVE",
"315 336 CURVE SMOOTH",
"315 482.667 OFFCURVE",
"444.333 610 OFFCURVE",
"615 610 CURVE SMOOTH",
"785.667 610 OFFCURVE",
"915 483 OFFCURVE",
"915 335 CURVE SMOOTH"
);
}
);
userData = {
assembly = "NPUSHB[ ]\011/* 68 values pushed */
18 167 34 202 0 238 0 238 12 4 26 4 29 21 43 45 87 43 101 2 5 11 14 4 24 27 14 20 24 138 24 148 1 154 8 154 11 147 39 159 43 156 45 169 1 163 39 181 2 191 10 186 12 186 43 205 10 202 43 19 121 1 165 33 2 49 20 45 
PUSHW[ ]\011/* 1 value pushed */
-20 
PUSHB[ ]\011/* 3 values pushed */
28 35 30 
PUSHW[ ]\011/* 1 value pushed */
-35 
PUSHB[ ]\011/* 3 values pushed */
48 35 46 
PUSHW[ ]\011/* 3 values pushed */
-35 21 -8 
PUSHB[ ]\011/* 5 values pushed */
17 8 40 40 36 
PUSHW[ ]\011/* 1 value pushed */
-35 
PUSHB[ ]\011/* 3 values pushed */
42 40 34 
PUSHW[ ]\011/* 3 values pushed */
-20 37 -22 
PUSHB[ ]\011/* 3 values pushed */
39 34 33 
PUSHW[ ]\011/* 1 value pushed */
-20 
NPUSHB[ ]\011/* 18 values pushed */
43 40 64 8 35 61 41 41 6 29 61 19 5 47 61 6 13 35 
PUSHW[ ]\011/* 1 value pushed */
473 
NPUSHB[ ]\011/* 16 values pushed */
41 41 22 16 38 61 3 225 26 61 63 22 79 22 2 22 
PUSHW[ ]\011/* 1 value pushed */
493 
NPUSHB[ ]\011/* 11 values pushed */
51 32 61 16 225 44 61 9 25 50 161 
PUSHW[ ]\011/* 3 values pushed */
262 24 300 
SCANCTRL[ ]\011/* ScanConversionControl */
CALL[ ]\011/* CallFunction */
FLIPOFF[ ]\011/* SetAutoFlipOff */
SRP0[ ]\011/* SetRefPoint0 */
MIRP[10100]\011/* MoveIndirectRelPt */
FLIPON[ ]\011/* SetAutoFlipOn */
MIRP[01101]\011/* MoveIndirectRelPt */
MIRP[10100]\011/* MoveIndirectRelPt */
MIRP[01101]\011/* MoveIndirectRelPt */
SRP0[ ]\011/* SetRefPoint0 */
MIRP[10100]\011/* MoveIndirectRelPt */
DELTAP1[ ]\011/* DeltaExceptionP1 */
MIRP[01101]\011/* MoveIndirectRelPt */
MIRP[10100]\011/* MoveIndirectRelPt */
MIRP[01101]\011/* MoveIndirectRelPt */
SRP1[ ]\011/* SetRefPoint1 */
SRP2[ ]\011/* SetRefPoint2 */
IP[ ]\011/* InterpolatePts */
MDAP[1]\011/* MoveDirectAbsPt */
MIRP[00110]\011/* MoveIndirectRelPt */
SVTCA[0]\011/* SetFreedomAndProjectionVectorToAxis */
MIAP[1]\011/* MoveIndirectAbsPt */
MIRP[01101]\011/* MoveIndirectRelPt */
MIAP[1]\011/* MoveIndirectAbsPt */
MIRP[01101]\011/* MoveIndirectRelPt */
SRP2[ ]\011/* SetRefPoint2 */
IP[ ]\011/* InterpolatePts */
MDAP[1]\011/* MoveDirectAbsPt */
MIRP[01101]\011/* MoveIndirectRelPt */
IUP[1]\011/* InterpolateUntPts */
IUP[0]\011/* InterpolateUntPts */
RS[ ]\011/* ReadStore */
JROF[ ]\011/* JumpRelativeOnFalse */
NPUSHB[ ]\011/* 48 values pushed */
45 49 27 31 17 21 4 8 30 18 32 64 0 28 20 26 64 1 46 7 44 64 0 48 5 38 64 1 31 17 29 64 1 27 21 29 64 1 45 8 47 64 0 49 4 47 64 0 
CALL[ ]\011/* CallFunction */
CALL[ ]\011/* CallFunction */
CALL[ ]\011/* CallFunction */
CALL[ ]\011/* CallFunction */
SVTCA[1]\011/* SetFreedomAndProjectionVectorToAxis */
CALL[ ]\011/* CallFunction */
CALL[ ]\011/* CallFunction */
CALL[ ]\011/* CallFunction */
CALL[ ]\011/* CallFunction */
FLIPRGON[ ]\011/* FlipRangeOn */
FLIPRGON[ ]\011/* FlipRangeOn */
FLIPRGON[ ]\011/* FlipRangeOn */
FLIPRGON[ ]\011/* FlipRangeOn */
SVTCA[0]\011/* SetFreedomAndProjectionVectorToAxis */
SHPIX[ ]\011/* ShiftZoneByPixel */
SHPIX[ ]\011/* ShiftZoneByPixel */
SHPIX[ ]\011/* ShiftZoneByPixel */
SHPIX[ ]\011/* ShiftZoneByPixel */
SHPIX[ ]\011/* ShiftZoneByPixel */
SHPIX[ ]\011/* ShiftZoneByPixel */
SHPIX[ ]\011/* ShiftZoneByPixel */
SHPIX[ ]\011/* ShiftZoneByPixel */
SVTCA[1]\011/* SetFreedomAndProjectionVectorToAxis */
SHPIX[ ]\011/* ShiftZoneByPixel */
SHPIX[ ]\011/* ShiftZoneByPixel */
SHPIX[ ]\011/* ShiftZoneByPixel */
SHPIX[ ]\011/* ShiftZoneByPixel */
SHPIX[ ]\011/* ShiftZoneByPixel */
SHPIX[ ]\011/* ShiftZoneByPixel */
SHPIX[ ]\011/* ShiftZoneByPixel */
SHPIX[ ]\011/* ShiftZoneByPixel */
SVTCA[0]\011/* SetFreedomAndProjectionVectorToAxis */
DELTAP1[ ]\011/* DeltaExceptionP1 */
SVTCA[1]\011/* SetFreedomAndProjectionVectorToAxis */
DELTAP1[ ]\011/* DeltaExceptionP1 */
DELTAP2[ ]\011/* DeltaExceptionP2 */
SVTCA[0]\011/* SetFreedomAndProjectionVectorToAxis */
DELTAP2[ ]\011/* DeltaExceptionP2 */
RS[ ]\011/* ReadStore */
NOT[ ]\011/* LogicalNot */
IF[ ]\011/* If */
PUSHW[ ]\011/* 2 values pushed */
43 -24 
PUSHB[ ]\011/* 4 values pushed */
30 18 63 33 
PUSHW[ ]\011/* 1 value pushed */
-24 
PUSHB[ ]\011/* 4 values pushed */
23 14 63 33 
PUSHW[ ]\011/* 1 value pushed */
-24 
NPUSHB[ ]\011/* 48 values pushed */
22 13 63 5 24 23 14 63 5 24 22 13 63 1 24 23 14 63 1 24 22 13 63 5 24 20 12 63 21 24 30 18 63 21 24 23 14 63 21 24 22 13 63 21 24 20 12 63 
SVTCA[1]\011/* SetFreedomAndProjectionVectorToAxis */
CALL[ ]\011/* CallFunction */
CALL[ ]\011/* CallFunction */
CALL[ ]\011/* CallFunction */
CALL[ ]\011/* CallFunction */
CALL[ ]\011/* CallFunction */
CALL[ ]\011/* CallFunction */
CALL[ ]\011/* CallFunction */
CALL[ ]\011/* CallFunction */
CALL[ ]\011/* CallFunction */
CALL[ ]\011/* CallFunction */
CALL[ ]\011/* CallFunction */
CALL[ ]\011/* CallFunction */
EIF[ ]\011/* EndIf */";
};
width = 1229;
}
);
note = eight;
unicode = 0038;
},
{
glyphname = nine;
lastChange = "2018-11-25 06:09:51 +0000";
layers = (
{
layerId = "43C596A3-827A-4C98-B0F6-D1945E7BEF5E";
paths = (
{
closed = 1;
nodes = (
"961.667 659.333 OFFCURVE",
"963 620 OFFCURVE",
"963 592 CURVE SMOOTH",
"963 284 OFFCURVE",
"728 54 OFFCURVE",
"444 54 CURVE SMOOTH",
"410 54 OFFCURVE",
"380 60.333 OFFCURVE",
"354 73 CURVE SMOOTH",
"338.667 80.333 OFFCURVE",
"327 84 OFFCURVE",
"319 84 CURVE SMOOTH",
"296.333 84 OFFCURVE",
"278 66.667 OFFCURVE",
"278 44 CURVE SMOOTH",
"278 28 OFFCURVE",
"286.667 14.667 OFFCURVE",
"304 4 CURVE SMOOTH",
"342 -18.667 OFFCURVE",
"391 -30 OFFCURVE",
"451 -30 CURVE SMOOTH",
"541.667 -30 OFFCURVE",
"629 -9 OFFCURVE",
"713 33 CURVE SMOOTH",
"835.667 95.667 OFFCURVE",
"939.333 203.333 OFFCURVE",
"990 310 CURVE SMOOTH",
"1028 388.667 OFFCURVE",
"1047 487.333 OFFCURVE",
"1047 606 CURVE SMOOTH",
"1047 758.667 OFFCURVE",
"1024.667 892.667 OFFCURVE",
"980 1008 CURVE SMOOTH",
"910.667 1188 OFFCURVE",
"778 1285 OFFCURVE",
"626 1285 CURVE SMOOTH",
"412.667 1285 OFFCURVE",
"275 1083.333 OFFCURVE",
"275 878 CURVE SMOOTH",
"275 736.667 OFFCURVE",
"343.833 595.667 OFFCURVE",
"452.5 529 CURVE SMOOTH",
"506.833 495.667 OFFCURVE",
"563 479 OFFCURVE",
"621 479 CURVE SMOOTH",
"746.333 479 OFFCURVE",
"872.333 556.667 OFFCURVE",
"959 710 CURVE"
);
},
{
closed = 1;
nodes = (
"901.667 772.667 OFFCURVE",
"870 719.667 OFFCURVE",
"848 691 CURVE SMOOTH",
"780 605.667 OFFCURVE",
"701.667 563 OFFCURVE",
"623 563 CURVE SMOOTH",
"487 563 OFFCURVE",
"359 696.333 OFFCURVE",
"359 879 CURVE SMOOTH",
"359 1067 OFFCURVE",
"485.333 1200 OFFCURVE",
"628 1200 CURVE SMOOTH",
"768 1200 OFFCURVE",
"872.333 1120.667 OFFCURVE",
"943 850 CURVE"
);
}
);
userData = {
assembly = "NPUSHB[ ]\011/* 45 values pushed */
7 8 4 42 7 43 0 46 170 36 186 36 6 38 34 20 36 52 35 44 20 36 52 14 24 20 36 52 13 14 30 50 52 12 34 30 50 52 50 22 51 44 39 44 21 
PUSHW[ ]\011/* 1 value pushed */
-14 
NPUSHB[ ]\011/* 15 values pushed */
91 49 229 18 249 35 243 42 244 46 5 191 0 1 49 
PUSHW[ ]\011/* 1 value pushed */
-34 
PUSHB[ ]\011/* 4 values pushed */
20 36 52 35 
PUSHW[ ]\011/* 1 value pushed */
-22 
PUSHB[ ]\011/* 3 values pushed */
39 22 34 
PUSHW[ ]\011/* 3 values pushed */
-22 50 -24 
NPUSHB[ ]\011/* 45 values pushed */
30 50 52 6 20 181 49 196 49 211 49 4 94 8 13 36 0 38 14 12 39 11 40 9 42 8 12 7 14 12 39 13 38 0 38 14 13 4 15 36 41 61 10 5 0 
PUSHW[ ]\011/* 1 value pushed */
677 
NPUSHB[ ]\011/* 10 values pushed */
47 61 3 3 10 33 61 22 13 38 
PUSHW[ ]\011/* 3 values pushed */
292 13 678 
NPUSHB[ ]\011/* 10 values pushed */
36 61 15 26 53 26 225 7 61 44 
PUSHW[ ]\011/* 6 values pushed */
680 52 312 385 24 300 
SCANCTRL[ ]\011/* ScanConversionControl */
CALL[ ]\011/* CallFunction */
SRP0[ ]\011/* SetRefPoint0 */
MIRP[10100]\011/* MoveIndirectRelPt */
MIRP[11101]\011/* MoveIndirectRelPt */
MIRP[00100]\011/* MoveIndirectRelPt */
FLIPOFF[ ]\011/* SetAutoFlipOff */
SRP0[ ]\011/* SetRefPoint0 */
MIRP[10110]\011/* MoveIndirectRelPt */
FLIPON[ ]\011/* SetAutoFlipOn */
MIRP[01101]\011/* MoveIndirectRelPt */
MIRP[10100]\011/* MoveIndirectRelPt */
MIRP[00101]\011/* MoveIndirectRelPt */
SVTCA[0]\011/* SetFreedomAndProjectionVectorToAxis */
MIAP[1]\011/* MoveIndirectAbsPt */
MIRP[01101]\011/* MoveIndirectRelPt */
SRP2[ ]\011/* SetRefPoint2 */
IP[ ]\011/* InterpolatePts */
MDAP[1]\011/* MoveDirectAbsPt */
MIRP[01101]\011/* MoveIndirectRelPt */
MIRP[00100]\011/* MoveIndirectRelPt */
MIAP[1]\011/* MoveIndirectAbsPt */
MIRP[01101]\011/* MoveIndirectRelPt */
SVTCA[1]\011/* SetFreedomAndProjectionVectorToAxis */
SRP1[ ]\011/* SetRefPoint1 */
SRP2[ ]\011/* SetRefPoint2 */
SLOOP[ ]\011/* SetLoopVariable */
IP[ ]\011/* InterpolatePts */
SRP1[ ]\011/* SetRefPoint1 */
SRP2[ ]\011/* SetRefPoint2 */
IP[ ]\011/* InterpolatePts */
IP[ ]\011/* InterpolatePts */
SRP1[ ]\011/* SetRefPoint1 */
SRP2[ ]\011/* SetRefPoint2 */
SLOOP[ ]\011/* SetLoopVariable */
IP[ ]\011/* InterpolatePts */
IUP[1]\011/* InterpolateUntPts */
IUP[0]\011/* InterpolateUntPts */
RS[ ]\011/* ReadStore */
JROF[ ]\011/* JumpRelativeOnFalse */
NPUSHB[ ]\011/* 39 values pushed */
39 46 34 35 4 21 13 14 12 14 2 6 17 16 18 16 19 16 20 16 4 6 5 37 42 9 44 64 0 40 11 38 64 1 39 38 34 21 36 
PUSHW[ ]\011/* 1 value pushed */
428 
NPUSHB[ ]\011/* 19 values pushed */
1 46 4 44 64 0 43 8 41 64 1 39 14 41 64 1 35 16 33 
PUSHW[ ]\011/* 1 value pushed */
428 
PUSHB[ ]\011/* 6 values pushed */
0 45 6 47 64 0 
SVTCA[0]\011/* SetFreedomAndProjectionVectorToAxis */
CALL[ ]\011/* CallFunction */
CALL[ ]\011/* CallFunction */
CALL[ ]\011/* CallFunction */
CALL[ ]\011/* CallFunction */
SVTCA[1]\011/* SetFreedomAndProjectionVectorToAxis */
CALL[ ]\011/* CallFunction */
CALL[ ]\011/* CallFunction */
SRP0[ ]\011/* SetRefPoint0 */
ALIGNRP[ ]\011/* AlignRelativePt */
CALL[ ]\011/* CallFunction */
CALL[ ]\011/* CallFunction */
CALL[ ]\011/* CallFunction */
LOOPCALL[ ]\011/* LoopAndCallFunction */
LOOPCALL[ ]\011/* LoopAndCallFunction */
FLIPRGON[ ]\011/* FlipRangeOn */
FLIPRGON[ ]\011/* FlipRangeOn */
FLIPRGON[ ]\011/* FlipRangeOn */
SVTCA[0]\011/* SetFreedomAndProjectionVectorToAxis */
DELTAP1[ ]\011/* DeltaExceptionP1 */
CALL[ ]\011/* CallFunction */
SHPIX[ ]\011/* ShiftZoneByPixel */
SHPIX[ ]\011/* ShiftZoneByPixel */
SHPIX[ ]\011/* ShiftZoneByPixel */
CALL[ ]\011/* CallFunction */
DELTAP2[ ]\011/* DeltaExceptionP2 */
SVTCA[1]\011/* SetFreedomAndProjectionVectorToAxis */
DELTAP1[ ]\011/* DeltaExceptionP1 */
SHPIX[ ]\011/* ShiftZoneByPixel */
SHPIX[ ]\011/* ShiftZoneByPixel */
SHPIX[ ]\011/* ShiftZoneByPixel */
SHPIX[ ]\011/* ShiftZoneByPixel */
CALL[ ]\011/* CallFunction */
CALL[ ]\011/* CallFunction */
CALL[ ]\011/* CallFunction */
CALL[ ]\011/* CallFunction */
CALL[ ]\011/* CallFunction */
DELTAP2[ ]\011/* DeltaExceptionP2 */";
};
width = 1229;
}
);
note = nine;
unicode = 0039;
},
{
glyphname = colon;
lastChange = "2018-11-25 06:09:51 +0000";
layers = (
{
layerId = "43C596A3-827A-4C98-B0F6-D1945E7BEF5E";
paths = (
{
closed = 1;
nodes = (
"523.667 866 OFFCURVE",
"461 807.667 OFFCURVE",
"461 729 CURVE SMOOTH",
"461 655.667 OFFCURVE",
"522.333 594 OFFCURVE",
"597 594 CURVE SMOOTH",
"633 594 LINE SMOOTH",
"706.333 594 OFFCURVE",
"769 652.333 OFFCURVE",
"769 731 CURVE SMOOTH",
"769 804.333 OFFCURVE",
"707.667 866 OFFCURVE",
"633 866 CURVE SMOOTH",
"597 866 LINE SMOOTH"
);
},
{
closed = 1;
nodes = (
"523.667 241 OFFCURVE",
"461 182.333 OFFCURVE",
"461 105 CURVE SMOOTH",
"461 30.333 OFFCURVE",
"522.333 -30 OFFCURVE",
"597 -30 CURVE SMOOTH",
"633 -30 LINE SMOOTH",
"706.333 -30 OFFCURVE",
"769 28.667 OFFCURVE",
"769 106 CURVE SMOOTH",
"769 180.667 OFFCURVE",
"707.667 241 OFFCURVE",
"633 241 CURVE SMOOTH",
"597 241 LINE SMOOTH"
);
}
);
userData = {
assembly = "NPUSHB[ ]\011/* 9 values pushed */
15 178 22 11 8 178 0 6 18 
PUSHW[ ]\011/* 4 values pushed */
278 25 4 278 
PUSHB[ ]\011/* 6 values pushed */
11 11 25 25 28 109 
PUSHW[ ]\011/* 2 values pushed */
286 24 
CALL[ ]\011/* CallFunction */
FLIPOFF[ ]\011/* SetAutoFlipOff */
SRP0[ ]\011/* SetRefPoint0 */
MIRP[10100]\011/* MoveIndirectRelPt */
ALIGNRP[ ]\011/* AlignRelativePt */
FLIPON[ ]\011/* SetAutoFlipOn */
SRP0[ ]\011/* SetRefPoint0 */
MIRP[01101]\011/* MoveIndirectRelPt */
SRP0[ ]\011/* SetRefPoint0 */
MIRP[01101]\011/* MoveIndirectRelPt */
SVTCA[0]\011/* SetFreedomAndProjectionVectorToAxis */
MIAP[1]\011/* MoveIndirectAbsPt */
MIRP[01101]\011/* MoveIndirectRelPt */
MIAP[1]\011/* MoveIndirectAbsPt */
MIRP[01101]\011/* MoveIndirectRelPt */
IUP[1]\011/* InterpolateUntPts */
IUP[0]\011/* InterpolateUntPts */";
};
width = 1229;
}
);
note = colon;
unicode = 003A;
},
{
glyphname = semicolon;
lastChange = "2018-11-25 06:09:51 +0000";
layers = (
{
layerId = "43C596A3-827A-4C98-B0F6-D1945E7BEF5E";
paths = (
{
closed = 1;
nodes = (
"524 866 OFFCURVE",
"461 807.667 OFFCURVE",
"461 729 CURVE SMOOTH",
"461 655.667 OFFCURVE",
"521.333 594 OFFCURVE",
"596 594 CURVE SMOOTH",
"633 594 LINE SMOOTH",
"706.333 594 OFFCURVE",
"768 652.333 OFFCURVE",
"768 731 CURVE SMOOTH",
"768 804.333 OFFCURVE",
"707.667 866 OFFCURVE",
"633 866 CURVE SMOOTH",
"596 866 LINE SMOOTH"
);
},
{
closed = 1;
nodes = (
"318 -132 LINE SMOOTH",
"314 -144.667 OFFCURVE",
"312 -155 OFFCURVE",
"312 -163 CURVE SMOOTH",
"312 -191 OFFCURVE",
"336 -214 OFFCURVE",
"368 -214 CURVE SMOOTH",
"379.333 -214 OFFCURVE",
"389.167 -211 OFFCURVE",
"397.5 -205 CURVE SMOOTH",
"405.833 -199 OFFCURVE",
"417 -184.667 OFFCURVE",
"431 -162 CURVE SMOOTH",
"714 302 LINE",
"450 302 LINE"
);
}
);
userData = {
assembly = "NPUSHB[ ]\011/* 17 values pushed */
192 14 208 14 216 16 224 14 233 16 240 14 249 16 7 23 19 
PUSHW[ ]\011/* 1 value pushed */
426 
PUSHB[ ]\011/* 4 values pushed */
48 15 1 15 
PUSHW[ ]\011/* 1 value pushed */
282 
NPUSHB[ ]\011/* 9 values pushed */
8 178 0 15 243 16 193 22 4 
PUSHW[ ]\011/* 1 value pushed */
278 
NPUSHB[ ]\011/* 13 values pushed */
11 52 14 210 15 22 1 22 218 25 0 6 109 
PUSHW[ ]\011/* 2 values pushed */
286 24 
CALL[ ]\011/* CallFunction */
SVTCA[0]\011/* SetFreedomAndProjectionVectorToAxis */
MIAP[1]\011/* MoveIndirectAbsPt */
SVTCA[1]\011/* SetFreedomAndProjectionVectorToAxis */
SRP0[ ]\011/* SetRefPoint0 */
MIRP[10100]\011/* MoveIndirectRelPt */
DELTAP1[ ]\011/* DeltaExceptionP1 */
MIRP[10100]\011/* MoveIndirectRelPt */
MIRP[10100]\011/* MoveIndirectRelPt */
MIRP[01101]\011/* MoveIndirectRelPt */
SRP0[ ]\011/* SetRefPoint0 */
MIRP[11101]\011/* MoveIndirectRelPt */
MIRP[00100]\011/* MoveIndirectRelPt */
SVTCA[0]\011/* SetFreedomAndProjectionVectorToAxis */
SRP0[ ]\011/* SetRefPoint0 */
MIRP[01101]\011/* MoveIndirectRelPt */
MIRP[10100]\011/* MoveIndirectRelPt */
DELTAP1[ ]\011/* DeltaExceptionP1 */
MIRP[10100]\011/* MoveIndirectRelPt */
IP[ ]\011/* InterpolatePts */
IUP[1]\011/* InterpolateUntPts */
IUP[0]\011/* InterpolateUntPts */
SVTCA[1]\011/* SetFreedomAndProjectionVectorToAxis */
DELTAP1[ ]\011/* DeltaExceptionP1 */";
};
width = 1229;
}
);
note = semicolon;
unicode = "003B,037E";
},
{
glyphname = less;
lastChange = "2018-11-25 06:09:51 +0000";
layers = (
{
layerId = "43C596A3-827A-4C98-B0F6-D1945E7BEF5E";
paths = (
{
closed = 1;
nodes = (
"1005 77 LINE SMOOTH",
"1019.667 69 OFFCURVE",
"1030.667 65 OFFCURVE",
"1038 65 CURVE SMOOTH",
"1060.667 65 OFFCURVE",
"1080 84.333 OFFCURVE",
"1080 107 CURVE SMOOTH",
"1080 123.667 OFFCURVE",
"1068.667 138.333 OFFCURVE",
"1046 151 CURVE SMOOTH",
"269 583 LINE",
"1047 1015 LINE SMOOTH",
"1069.667 1027.667 OFFCURVE",
"1081 1042.333 OFFCURVE",
"1081 1059 CURVE SMOOTH",
"1081 1081.667 OFFCURVE",
"1061.667 1101 OFFCURVE",
"1039 1101 CURVE SMOOTH",
"1031.667 1101 OFFCURVE",
"1020.667 1097 OFFCURVE",
"1006 1089 CURVE SMOOTH",
"98 583 LINE"
);
}
);
userData = {
assembly = "NPUSHB[ ]\011/* 30 values pushed */
177 6 1 8 9 9 36 0 1 20 0 9 10 0 1 10 9 9 36 0 17 20 0 9 8 0 17 8 91 1 
PUSHW[ ]\011/* 1 value pushed */
426 
PUSHB[ ]\011/* 4 values pushed */
0 10 91 17 
NPUSHW[ ]\011/* 9 values pushed */
426 10 444 12 662 17 683 8 444 
PUSHB[ ]\011/* 3 values pushed */
6 185 1 
PUSHW[ ]\011/* 1 value pushed */
683 
NPUSHB[ ]\011/* 10 values pushed */
47 0 1 0 25 18 0 79 129 24 
PUSHW[ ]\011/* 1 value pushed */
291 
SCANCTRL[ ]\011/* ScanConversionControl */
CALL[ ]\011/* CallFunction */
SVTCA[0]\011/* SetFreedomAndProjectionVectorToAxis */
RTHG[ ]\011/* RoundToHalfGrid */
MDAP[1]\011/* MoveDirectAbsPt */
SVTCA[1]\011/* SetFreedomAndProjectionVectorToAxis */
RTG[ ]\011/* RoundToGrid */
FLIPOFF[ ]\011/* SetAutoFlipOff */
SRP0[ ]\011/* SetRefPoint0 */
MIRP[10100]\011/* MoveIndirectRelPt */
DELTAP1[ ]\011/* DeltaExceptionP1 */
FLIPON[ ]\011/* SetAutoFlipOn */
MIRP[00100]\011/* MoveIndirectRelPt */
MIRP[01101]\011/* MoveIndirectRelPt */
MIRP[01101]\011/* MoveIndirectRelPt */
MIRP[00100]\011/* MoveIndirectRelPt */
MIRP[01101]\011/* MoveIndirectRelPt */
MIRP[01101]\011/* MoveIndirectRelPt */
SVTCA[0]\011/* SetFreedomAndProjectionVectorToAxis */
RTHG[ ]\011/* RoundToHalfGrid */
MIRP[10100]\011/* MoveIndirectRelPt */
RTG[ ]\011/* RoundToGrid */
MIRP[01101]\011/* MoveIndirectRelPt */
RTHG[ ]\011/* RoundToHalfGrid */
SRP0[ ]\011/* SetRefPoint0 */
MIRP[10100]\011/* MoveIndirectRelPt */
RTG[ ]\011/* RoundToGrid */
MIRP[01101]\011/* MoveIndirectRelPt */
SDPVTL[1]\011/* SetDualPVectorToLine */
SFVTL[0]\011/* SetFVectorToLine */
MDAP[0]\011/* MoveDirectAbsPt */
CALL[ ]\011/* CallFunction */
SFVTPV[ ]\011/* SetFVectorToPVector */
RDTG[ ]\011/* RoundDownToGrid */
SRP0[ ]\011/* SetRefPoint0 */
MDRP[00100]\011/* MoveDirectRelPt */
SDPVTL[1]\011/* SetDualPVectorToLine */
SFVTL[0]\011/* SetFVectorToLine */
MDAP[0]\011/* MoveDirectAbsPt */
RTG[ ]\011/* RoundToGrid */
CALL[ ]\011/* CallFunction */
SFVTPV[ ]\011/* SetFVectorToPVector */
RDTG[ ]\011/* RoundDownToGrid */
SRP0[ ]\011/* SetRefPoint0 */
MDRP[00100]\011/* MoveDirectRelPt */
IUP[1]\011/* InterpolateUntPts */
IUP[0]\011/* InterpolateUntPts */
SVTCA[1]\011/* SetFreedomAndProjectionVectorToAxis */
DELTAP1[ ]\011/* DeltaExceptionP1 */";
};
width = 1229;
}
);
note = less;
unicode = 003C;
},
{
glyphname = equal;
lastChange = "2018-11-25 06:09:51 +0000";
layers = (
{
layerId = "43C596A3-827A-4C98-B0F6-D1945E7BEF5E";
paths = (
{
closed = 1;
nodes = (
"1113 695 OFFCURVE",
"1129 713 OFFCURVE",
"1129 737 CURVE SMOOTH",
"1129 762.333 OFFCURVE",
"1113 780 OFFCURVE",
"1073 780 CURVE SMOOTH",
"157 780 LINE SMOOTH",
"117 780 OFFCURVE",
"101 762 OFFCURVE",
"101 738 CURVE SMOOTH",
"101 712.667 OFFCURVE",
"117 695 OFFCURVE",
"157 695 CURVE SMOOTH",
"1073 695 LINE SMOOTH"
);
},
{
closed = 1;
nodes = (
"1113 394 OFFCURVE",
"1129 410.667 OFFCURVE",
"1129 436 CURVE SMOOTH",
"1129 461.333 OFFCURVE",
"1113 478 OFFCURVE",
"1073 478 CURVE SMOOTH",
"157 478 LINE SMOOTH",
"117 478 OFFCURVE",
"101 461.333 OFFCURVE",
"101 436 CURVE SMOOTH",
"101 410.667 OFFCURVE",
"117 394 OFFCURVE",
"157 394 CURVE SMOOTH",
"1073 394 LINE SMOOTH"
);
}
);
userData = {
assembly = "PUSHB[ ]\011/* 3 values pushed */
7 36 1 
PUSHW[ ]\011/* 1 value pushed */
760 
NPUSHB[ ]\011/* 27 values pushed */
21 36 15 11 25 26 29 4 79 18 1 79 18 1 15 18 47 18 63 18 3 18 25 28 79 123 24 
CALL[ ]\011/* CallFunction */
FLIPOFF[ ]\011/* SetAutoFlipOff */
SRP0[ ]\011/* SetRefPoint0 */
MIRP[10100]\011/* MoveIndirectRelPt */
DELTAP1[ ]\011/* DeltaExceptionP1 */
DELTAP1[ ]\011/* DeltaExceptionP1 */
DELTAP2[ ]\011/* DeltaExceptionP2 */
ALIGNRP[ ]\011/* AlignRelativePt */
SRP0[ ]\011/* SetRefPoint0 */
MIRP[10110]\011/* MoveIndirectRelPt */
ALIGNRP[ ]\011/* AlignRelativePt */
SVTCA[0]\011/* SetFreedomAndProjectionVectorToAxis */
MDAP[1]\011/* MoveDirectAbsPt */
FLIPON[ ]\011/* SetAutoFlipOn */
MIRP[11101]\011/* MoveIndirectRelPt */
MIRP[10110]\011/* MoveIndirectRelPt */
MIRP[01101]\011/* MoveIndirectRelPt */
IUP[1]\011/* InterpolateUntPts */
IUP[0]\011/* InterpolateUntPts */";
};
width = 1229;
}
);
note = equal;
unicode = 003D;
},
{
glyphname = greater;
lastChange = "2018-11-25 06:09:51 +0000";
layers = (
{
layerId = "43C596A3-827A-4C98-B0F6-D1945E7BEF5E";
paths = (
{
closed = 1;
nodes = (
"224 1089 LINE SMOOTH",
"209.333 1097 OFFCURVE",
"198.333 1101 OFFCURVE",
"191 1101 CURVE SMOOTH",
"168.333 1101 OFFCURVE",
"149 1081.667 OFFCURVE",
"149 1059 CURVE SMOOTH",
"149 1042.333 OFFCURVE",
"160.333 1027.667 OFFCURVE",
"183 1015 CURVE SMOOTH",
"960 583 LINE",
"182 151 LINE SMOOTH",
"159.333 138.333 OFFCURVE",
"148 123.667 OFFCURVE",
"148 107 CURVE SMOOTH",
"148 84.333 OFFCURVE",
"167.333 65 OFFCURVE",
"190 65 CURVE SMOOTH",
"197.333 65 OFFCURVE",
"208.333 69 OFFCURVE",
"223 77 CURVE SMOOTH",
"1131 583 LINE"
);
}
);
userData = {
assembly = "NPUSHB[ ]\011/* 34 values pushed */
191 6 209 12 242 12 3 10 9 9 36 0 17 20 0 9 8 0 17 8 9 9 36 0 1 20 0 9 10 0 1 10 91 17 
PUSHW[ ]\011/* 1 value pushed */
426 
PUSHB[ ]\011/* 4 values pushed */
0 8 91 1 
NPUSHW[ ]\011/* 11 values pushed */
426 12 662 10 444 17 683 8 444 1 683 
NPUSHB[ ]\011/* 12 values pushed */
0 185 47 6 1 6 25 18 0 80 123 24 
PUSHW[ ]\011/* 1 value pushed */
289 
SCANCTRL[ ]\011/* ScanConversionControl */
CALL[ ]\011/* CallFunction */
SVTCA[0]\011/* SetFreedomAndProjectionVectorToAxis */
RTHG[ ]\011/* RoundToHalfGrid */
MDAP[1]\011/* MoveDirectAbsPt */
SVTCA[1]\011/* SetFreedomAndProjectionVectorToAxis */
RTG[ ]\011/* RoundToGrid */
FLIPOFF[ ]\011/* SetAutoFlipOff */
SRP0[ ]\011/* SetRefPoint0 */
MIRP[10100]\011/* MoveIndirectRelPt */
DELTAP1[ ]\011/* DeltaExceptionP1 */
FLIPON[ ]\011/* SetAutoFlipOn */
MIRP[11101]\011/* MoveIndirectRelPt */
MIRP[00100]\011/* MoveIndirectRelPt */
MIRP[01101]\011/* MoveIndirectRelPt */
MIRP[00100]\011/* MoveIndirectRelPt */
MIRP[01101]\011/* MoveIndirectRelPt */
MIRP[01101]\011/* MoveIndirectRelPt */
SVTCA[0]\011/* SetFreedomAndProjectionVectorToAxis */
RTHG[ ]\011/* RoundToHalfGrid */
MIRP[10100]\011/* MoveIndirectRelPt */
RTG[ ]\011/* RoundToGrid */
MIRP[01101]\011/* MoveIndirectRelPt */
RTHG[ ]\011/* RoundToHalfGrid */
SRP0[ ]\011/* SetRefPoint0 */
MIRP[10100]\011/* MoveIndirectRelPt */
RTG[ ]\011/* RoundToGrid */
MIRP[01101]\011/* MoveIndirectRelPt */
SDPVTL[1]\011/* SetDualPVectorToLine */
SFVTL[0]\011/* SetFVectorToLine */
MDAP[0]\011/* MoveDirectAbsPt */
CALL[ ]\011/* CallFunction */
SFVTPV[ ]\011/* SetFVectorToPVector */
RDTG[ ]\011/* RoundDownToGrid */
SRP0[ ]\011/* SetRefPoint0 */
MDRP[00100]\011/* MoveDirectRelPt */
SDPVTL[1]\011/* SetDualPVectorToLine */
SFVTL[0]\011/* SetFVectorToLine */
MDAP[0]\011/* MoveDirectAbsPt */
RTG[ ]\011/* RoundToGrid */
CALL[ ]\011/* CallFunction */
SFVTPV[ ]\011/* SetFVectorToPVector */
RDTG[ ]\011/* RoundDownToGrid */
SRP0[ ]\011/* SetRefPoint0 */
MDRP[00100]\011/* MoveDirectRelPt */
IUP[1]\011/* InterpolateUntPts */
IUP[0]\011/* InterpolateUntPts */
SVTCA[1]\011/* SetFreedomAndProjectionVectorToAxis */
DELTAP1[ ]\011/* DeltaExceptionP1 */";
};
width = 1229;
}
);
note = greater;
unicode = 003E;
},
{
glyphname = question;
lastChange = "2018-11-25 06:09:51 +0000";
layers = (
{
layerId = "43C596A3-827A-4C98-B0F6-D1945E7BEF5E";
paths = (
{
closed = 1;
nodes = (
"808 576.667 OFFCURVE",
"902.167 632.167 OFFCURVE",
"942.5 680.5 CURVE SMOOTH",
"982.833 728.833 OFFCURVE",
"1003 784.333 OFFCURVE",
"1003 847 CURVE SMOOTH",
"1003 1051 OFFCURVE",
"855.667 1200 OFFCURVE",
"633 1200 CURVE SMOOTH",
"581 1200 OFFCURVE",
"529 1193.667 OFFCURVE",
"477 1181 CURVE SMOOTH",
"446.333 1173 OFFCURVE",
"379 1146 OFFCURVE",
"275 1100 CURVE",
"275 959 LINE SMOOTH",
"275 919 OFFCURVE",
"293 903 OFFCURVE",
"317 903 CURVE SMOOTH",
"342.333 903 OFFCURVE",
"359 919 OFFCURVE",
"359 959 CURVE SMOOTH",
"359 1045 LINE",
"471 1099.667 OFFCURVE",
"538 1116 OFFCURVE",
"626 1116 CURVE SMOOTH",
"799.333 1116 OFFCURVE",
"919 994.333 OFFCURVE",
"919 845 CURVE SMOOTH",
"919 799.667 OFFCURVE",
"904 762 OFFCURVE",
"874 732 CURVE SMOOTH",
"820.667 678 OFFCURVE",
"721 624 OFFCURVE",
"575 570 CURVE",
"575 429 LINE SMOOTH",
"575 389 OFFCURVE",
"592.667 373 OFFCURVE",
"618 373 CURVE SMOOTH",
"642 373 OFFCURVE",
"660 389 OFFCURVE",
"660 429 CURVE SMOOTH",
"660 514 LINE"
);
},
{
closed = 1;
nodes = (
"518 178 OFFCURVE",
"470 133 OFFCURVE",
"470 73 CURVE SMOOTH",
"470 17 OFFCURVE",
"516.667 -30 OFFCURVE",
"574 -30 CURVE SMOOTH",
"658 -30 LINE SMOOTH",
"714 -30 OFFCURVE",
"763 15.333 OFFCURVE",
"763 74 CURVE SMOOTH",
"763 131.333 OFFCURVE",
"716.667 178 OFFCURVE",
"658 178 CURVE SMOOTH",
"574 178 LINE SMOOTH"
);
}
);
userData = {
assembly = "NPUSHB[ ]\011/* 65 values pushed */
68 8 1 157 14 158 17 2 13 14 159 10 155 13 3 39 9 37 35 130 35 175 14 4 45 8 8 0 35 3 80 4 1 4 18 26 15 22 37 116 44 11 22 160 15 44 15 30 47 30 2 30 4 4 44 30 1 91 80 7 1 7 7 8 40 
PUSHW[ ]\011/* 1 value pushed */
315 
NPUSHB[ ]\011/* 19 values pushed */
47 132 8 8 50 51 12 44 33 26 51 19 91 24 25 50 163 188 24 
PUSHW[ ]\011/* 1 value pushed */
356 
SCANCTRL[ ]\011/* ScanConversionControl */
CALL[ ]\011/* CallFunction */
FLIPOFF[ ]\011/* SetAutoFlipOff */
SRP0[ ]\011/* SetRefPoint0 */
MIRP[10100]\011/* MoveIndirectRelPt */
FLIPON[ ]\011/* SetAutoFlipOn */
MIRP[01101]\011/* MoveIndirectRelPt */
FLIPOFF[ ]\011/* SetAutoFlipOff */
SRP0[ ]\011/* SetRefPoint0 */
MIRP[10110]\011/* MoveIndirectRelPt */
FLIPON[ ]\011/* SetAutoFlipOn */
MIRP[01101]\011/* MoveIndirectRelPt */
SRP1[ ]\011/* SetRefPoint1 */
SRP2[ ]\011/* SetRefPoint2 */
IP[ ]\011/* InterpolatePts */
MDAP[1]\011/* MoveDirectAbsPt */
MIRP[10100]\011/* MoveIndirectRelPt */
MIRP[01101]\011/* MoveIndirectRelPt */
SRP0[ ]\011/* SetRefPoint0 */
ALIGNRP[ ]\011/* AlignRelativePt */
SRP0[ ]\011/* SetRefPoint0 */
DELTAP1[ ]\011/* DeltaExceptionP1 */
MIRP[01101]\011/* MoveIndirectRelPt */
SVTCA[0]\011/* SetFreedomAndProjectionVectorToAxis */
SRP1[ ]\011/* SetRefPoint1 */
SRP2[ ]\011/* SetRefPoint2 */
IP[ ]\011/* InterpolatePts */
MDAP[1]\011/* MoveDirectAbsPt */
MDAP[1]\011/* MoveDirectAbsPt */
DELTAP1[ ]\011/* DeltaExceptionP1 */
MIRP[11101]\011/* MoveIndirectRelPt */
MIRP[00100]\011/* MoveIndirectRelPt */
MIAP[1]\011/* MoveIndirectAbsPt */
MIRP[01101]\011/* MoveIndirectRelPt */
SRP1[ ]\011/* SetRefPoint1 */
SRP2[ ]\011/* SetRefPoint2 */
IP[ ]\011/* InterpolatePts */
IP[ ]\011/* InterpolatePts */
SRP2[ ]\011/* SetRefPoint2 */
DELTAP1[ ]\011/* DeltaExceptionP1 */
SLOOP[ ]\011/* SetLoopVariable */
IP[ ]\011/* InterpolatePts */
IUP[1]\011/* InterpolateUntPts */
IUP[0]\011/* InterpolateUntPts */
RS[ ]\011/* ReadStore */
JROF[ ]\011/* JumpRelativeOnFalse */
NPUSHB[ ]\011/* 30 values pushed */
27 32 13 17 28 38 16 29 18 39 0 17 18 27 26 14 31 12 40 1 17 27 15 39 1 13 32 15 40 1 
CALL[ ]\011/* CallFunction */
CALL[ ]\011/* CallFunction */
SVTCA[1]\011/* SetFreedomAndProjectionVectorToAxis */
CALL[ ]\011/* CallFunction */
SRP0[ ]\011/* SetRefPoint0 */
ALIGNRP[ ]\011/* AlignRelativePt */
SRP0[ ]\011/* SetRefPoint0 */
ALIGNRP[ ]\011/* AlignRelativePt */
CALL[ ]\011/* CallFunction */
CALL[ ]\011/* CallFunction */
FLIPRGON[ ]\011/* FlipRangeOn */
FLIPRGON[ ]\011/* FlipRangeOn */
SVTCA[1]\011/* SetFreedomAndProjectionVectorToAxis */
DELTAP1[ ]\011/* DeltaExceptionP1 */
DELTAP2[ ]\011/* DeltaExceptionP2 */
SVTCA[0]\011/* SetFreedomAndProjectionVectorToAxis */
DELTAP2[ ]\011/* DeltaExceptionP2 */
DELTAP1[ ]\011/* DeltaExceptionP1 */";
};
width = 1229;
}
);
note = question;
unicode = 003F;
},
{
glyphname = at;
lastChange = "2018-11-25 06:09:51 +0000";
layers = (
{
layerId = "43C596A3-827A-4C98-B0F6-D1945E7BEF5E";
paths = (
{
closed = 1;
nodes = (
"927 302 LINE SMOOTH",
"964.005 302 OFFCURVE",
"983 314.348 OFFCURVE",
"983 345 CURVE SMOOTH",
"983 367.667 OFFCURVE",
"969.667 383.333 OFFCURVE",
"943 386 CURVE",
"943 962 LINE SMOOTH",
"943 1102 OFFCURVE",
"860 1216.5 OFFCURVE",
"768 1262.5 CURVE SMOOTH",
"722 1285.5 OFFCURVE",
"671.667 1297 OFFCURVE",
"617 1297 CURVE SMOOTH",
"511.667 1297 OFFCURVE",
"423 1253.667 OFFCURVE",
"351 1167 CURVE SMOOTH",
"260.333 1059 OFFCURVE",
"215 919.667 OFFCURVE",
"215 749 CURVE SMOOTH",
"215 413 LINE SMOOTH",
"215 338.333 OFFCURVE",
"222.667 274 OFFCURVE",
"238 220 CURVE SMOOTH",
"259.333 142.667 OFFCURVE",
"322.667 22.333 OFFCURVE",
"360 -19 CURVE SMOOTH",
"420 -88.333 OFFCURVE",
"511.333 -130 OFFCURVE",
"618 -130 CURVE SMOOTH",
"721.333 -130 OFFCURVE",
"805 -109.667 OFFCURVE",
"869 -69 CURVE SMOOTH",
"909 -43.667 OFFCURVE",
"929 -20.333 OFFCURVE",
"929 1 CURVE SMOOTH",
"929 22.333 OFFCURVE",
"910.667 41 OFFCURVE",
"888 41 CURVE SMOOTH",
"877.333 41 OFFCURVE",
"866.333 35.667 OFFCURVE",
"855 25 CURVE SMOOTH",
"805 -22.333 OFFCURVE",
"730 -46 OFFCURVE",
"630 -46 CURVE SMOOTH",
"427.333 -46 OFFCURVE",
"299 154.333 OFFCURVE",
"299 413 CURVE SMOOTH",
"299 744 LINE SMOOTH",
"299 918.667 OFFCURVE",
"352 1031 OFFCURVE",
"416 1115 CURVE SMOOTH",
"434.667 1139 OFFCURVE",
"458.333 1159.333 OFFCURVE",
"487 1176 CURVE SMOOTH",
"529 1200 OFFCURVE",
"573.667 1212 OFFCURVE",
"621 1212 CURVE SMOOTH",
"757 1212 OFFCURVE",
"859 1108.667 OFFCURVE",
"859 962 CURVE SMOOTH",
"859 865 LINE",
"632.333 865 OFFCURVE",
"494 729 OFFCURVE",
"494 565 CURVE SMOOTH",
"494 421 OFFCURVE",
"610 305 OFFCURVE",
"774 305 CURVE SMOOTH",
"798 305 OFFCURVE",
"825.667 307.667 OFFCURVE",
"859 313 CURVE",
"859 302 LINE"
);
},
{
closed = 1;
nodes = (
"859 398 LINE",
"832.333 392.667 OFFCURVE",
"807.667 389 OFFCURVE",
"785 389 CURVE SMOOTH",
"654.333 389 OFFCURVE",
"578 465.667 OFFCURVE",
"578 567 CURVE SMOOTH",
"578 679 OFFCURVE",
"683 780.667 OFFCURVE",
"859 782 CURVE"
);
}
);
userData = {
assembly = "PUSHW[ ]\011/* 2 values pushed */
16 -64 
PUSHB[ ]\011/* 4 values pushed */
28 30 52 18 
PUSHW[ ]\011/* 1 value pushed */
-64 
NPUSHB[ ]\011/* 9 values pushed */
18 30 52 13 64 18 30 52 63 
PUSHW[ ]\011/* 1 value pushed */
-64 
PUSHB[ ]\011/* 4 values pushed */
18 30 52 19 
PUSHW[ ]\011/* 1 value pushed */
-64 
PUSHB[ ]\011/* 4 values pushed */
18 30 52 24 
PUSHW[ ]\011/* 1 value pushed */
-64 
PUSHB[ ]\011/* 4 values pushed */
18 24 52 67 
PUSHW[ ]\011/* 1 value pushed */
-64 
NPUSHB[ ]\011/* 23 values pushed */
18 24 52 186 8 188 64 2 18 16 47 13 35 16 3 104 8 32 29 1 61 54 57 
PUSHW[ ]\011/* 1 value pushed */
270 
NPUSHB[ ]\011/* 10 values pushed */
54 54 50 61 1 4 71 62 68 29 
PUSHW[ ]\011/* 1 value pushed */
773 
NPUSHB[ ]\011/* 9 values pushed */
25 49 44 14 220 62 91 10 61 
PUSHW[ ]\011/* 1 value pushed */
771 
NPUSHB[ ]\011/* 17 values pushed */
4 44 68 68 25 10 6 36 44 25 11 32 174 57 62 54 32 
PUSHW[ ]\011/* 1 value pushed */
326 
NPUSHB[ ]\011/* 13 values pushed */
22 10 62 53 54 36 62 71 36 0 54 1 54 
PUSHW[ ]\011/* 1 value pushed */
415 
PUSHB[ ]\011/* 3 values pushed */
65 44 7 
PUSHW[ ]\011/* 1 value pushed */
303 
NPUSHB[ ]\011/* 11 values pushed */
22 21 36 45 22 36 45 80 44 1 44 
PUSHW[ ]\011/* 5 values pushed */
487 72 199 261 24 
CALL[ ]\011/* CallFunction */
SRP0[ ]\011/* SetRefPoint0 */
MIRP[10110]\011/* MoveIndirectRelPt */
DELTAP1[ ]\011/* DeltaExceptionP1 */
ALIGNRP[ ]\011/* AlignRelativePt */
MIRP[01101]\011/* MoveIndirectRelPt */
SRP0[ ]\011/* SetRefPoint0 */
MIRP[01101]\011/* MoveIndirectRelPt */
SRP0[ ]\011/* SetRefPoint0 */
MIRP[10110]\011/* MoveIndirectRelPt */
MIRP[11101]\011/* MoveIndirectRelPt */
MIRP[10100]\011/* MoveIndirectRelPt */
DELTAP1[ ]\011/* DeltaExceptionP1 */
MIRP[11101]\011/* MoveIndirectRelPt */
ALIGNRP[ ]\011/* AlignRelativePt */
MIRP[11101]\011/* MoveIndirectRelPt */
ALIGNRP[ ]\011/* AlignRelativePt */
SRP0[ ]\011/* SetRefPoint0 */
ALIGNRP[ ]\011/* AlignRelativePt */
SRP0[ ]\011/* SetRefPoint0 */
MIRP[00100]\011/* MoveIndirectRelPt */
SRP0[ ]\011/* SetRefPoint0 */
MIRP[10100]\011/* MoveIndirectRelPt */
MIRP[00100]\011/* MoveIndirectRelPt */
SVTCA[0]\011/* SetFreedomAndProjectionVectorToAxis */
MIAP[1]\011/* MoveIndirectAbsPt */
MIRP[01101]\011/* MoveIndirectRelPt */
MIAP[1]\011/* MoveIndirectAbsPt */
SRP2[ ]\011/* SetRefPoint2 */
IP[ ]\011/* InterpolatePts */
MDAP[1]\011/* MoveDirectAbsPt */
MIRP[11101]\011/* MoveIndirectRelPt */
MIRP[00100]\011/* MoveIndirectRelPt */
SRP0[ ]\011/* SetRefPoint0 */
MIRP[11101]\011/* MoveIndirectRelPt */
MIRP[10100]\011/* MoveIndirectRelPt */
MIRP[01101]\011/* MoveIndirectRelPt */
SRP0[ ]\011/* SetRefPoint0 */
MIRP[00100]\011/* MoveIndirectRelPt */
SRP1[ ]\011/* SetRefPoint1 */
SRP2[ ]\011/* SetRefPoint2 */
IP[ ]\011/* InterpolatePts */
SRP2[ ]\011/* SetRefPoint2 */
IP[ ]\011/* InterpolatePts */
SRP0[ ]\011/* SetRefPoint0 */
MIRP[01101]\011/* MoveIndirectRelPt */
SVTCA[1]\011/* SetFreedomAndProjectionVectorToAxis */
SRP0[ ]\011/* SetRefPoint0 */
MIRP[10101]\011/* MoveIndirectRelPt */
SRP0[ ]\011/* SetRefPoint0 */
ALIGNRP[ ]\011/* AlignRelativePt */
SVTCA[0]\011/* SetFreedomAndProjectionVectorToAxis */
DELTAP1[ ]\011/* DeltaExceptionP1 */
IUP[1]\011/* InterpolateUntPts */
IUP[0]\011/* InterpolateUntPts */
RS[ ]\011/* ReadStore */
JROF[ ]\011/* JumpRelativeOnFalse */
NPUSHB[ ]\011/* 82 values pushed */
63 67 37 52 5 24 42 43 41 43 40 43 39 43 38 43 5 6 19 20 18 20 17 20 16 20 4 6 47 38 51 37 63 9 65 40 0 24 37 22 95 0 15 48 21 95 0 13 50 11 40 1 67 5 65 40 0 64 8 62 40 1 23 43 25 95 0 20 46 14 95 1 12 52 14 40 1 66 6 68 40 0 
SVTCA[0]\011/* SetFreedomAndProjectionVectorToAxis */
CALL[ ]\011/* CallFunction */
CALL[ ]\011/* CallFunction */
CALL[ ]\011/* CallFunction */
CALL[ ]\011/* CallFunction */
CALL[ ]\011/* CallFunction */
SVTCA[1]\011/* SetFreedomAndProjectionVectorToAxis */
CALL[ ]\011/* CallFunction */
CALL[ ]\011/* CallFunction */
CALL[ ]\011/* CallFunction */
CALL[ ]\011/* CallFunction */
CALL[ ]\011/* CallFunction */
CALL[ ]\011/* CallFunction */
CALL[ ]\011/* CallFunction */
LOOPCALL[ ]\011/* LoopAndCallFunction */
LOOPCALL[ ]\011/* LoopAndCallFunction */
FLIPRGON[ ]\011/* FlipRangeOn */
FLIPRGON[ ]\011/* FlipRangeOn */
FLIPRGON[ ]\011/* FlipRangeOn */
SVTCA[1]\011/* SetFreedomAndProjectionVectorToAxis */
DELTAP2[ ]\011/* DeltaExceptionP2 */
DELTAP1[ ]\011/* DeltaExceptionP1 */
CALL[ ]\011/* CallFunction */
CALL[ ]\011/* CallFunction */
CALL[ ]\011/* CallFunction */
CALL[ ]\011/* CallFunction */
CALL[ ]\011/* CallFunction */
CALL[ ]\011/* CallFunction */
CALL[ ]\011/* CallFunction */";
};
width = 1229;
}
);
note = at;
unicode = 0040;
},
{
glyphname = A;
lastChange = "2018-11-25 06:09:51 +0000";
layers = (
{
layerId = "43C596A3-827A-4C98-B0F6-D1945E7BEF5E";
paths = (
{
closed = 1;
nodes = (
"1006 84 LINE",
"846 84 LINE SMOOTH",
"804.667 84 OFFCURVE",
"789 67.333 OFFCURVE",
"789 42 CURVE SMOOTH",
"789 18 OFFCURVE",
"804.667 0 OFFCURVE",
"846 0 CURVE SMOOTH",
"1159 0 LINE SMOOTH",
"1199 0 OFFCURVE",
"1215 18 OFFCURVE",
"1215 42 CURVE SMOOTH",
"1215 67.333 OFFCURVE",
"1199 84 OFFCURVE",
"1159 84 CURVE SMOOTH",
"1094 84 LINE",
"684 1170 LINE",
"261 1170 LINE SMOOTH",
"221 1170 OFFCURVE",
"205 1153.333 OFFCURVE",
"205 1128 CURVE SMOOTH",
"205 1102.667 OFFCURVE",
"221 1086 OFFCURVE",
"261 1086 CURVE SMOOTH",
"509 1086 LINE",
"138 84 LINE",
"73 84 LINE SMOOTH",
"33 84 OFFCURVE",
"17 67.333 OFFCURVE",
"17 42 CURVE SMOOTH",
"17 18 OFFCURVE",
"33 0 OFFCURVE",
"73 0 CURVE SMOOTH",
"387 0 LINE SMOOTH",
"427 0 OFFCURVE",
"443 18 OFFCURVE",
"443 42 CURVE SMOOTH",
"443 67.333 OFFCURVE",
"427 84 OFFCURVE",
"387 84 CURVE SMOOTH",
"226 84 LINE",
"339 391 LINE",
"891 391 LINE"
);
},
{
closed = 1;
nodes = (
"371 475 LINE",
"596 1086 LINE",
"627 1086 LINE",
"859 475 LINE"
);
}
);
userData = {
assembly = "NPUSHB[ ]\011/* 43 values pushed */
54 17 57 18 57 27 62 44 55 45 71 18 73 26 76 44 70 45 80 18 80 22 95 26 95 44 80 45 248 42 15 43 0 42 42 44 46 1 2 2 45 10 16 
PUSHW[ ]\011/* 1 value pushed */
676 
NPUSHB[ ]\011/* 22 values pushed */
13 143 13 159 13 2 223 13 1 13 41 17 13 13 16 17 29 10 17 18 35 41 
PUSHW[ ]\011/* 1 value pushed */
676 
NPUSHB[ ]\011/* 14 values pushed */
38 38 51 42 38 38 41 42 29 35 42 44 9 3 
PUSHW[ ]\011/* 1 value pushed */
676 
NPUSHB[ ]\011/* 14 values pushed */
6 6 51 2 6 6 3 2 29 9 2 45 25 19 
PUSHW[ ]\011/* 1 value pushed */
676 
NPUSHB[ ]\011/* 14 values pushed */
22 22 86 18 22 22 19 18 29 25 18 17 34 28 
PUSHW[ ]\011/* 1 value pushed */
676 
NPUSHB[ ]\011/* 72 values pushed */
31 0 31 128 31 144 31 3 208 31 1 31 41 27 31 31 28 27 29 34 27 26 26 44 42 42 30 27 26 20 27 27 26 18 17 17 30 2 45 20 2 2 45 36 35 35 10 9 8 0 1 30 43 15 46 31 46 2 46 46 9 25 45 44 38 26 19 38 26 25 2 26 
PUSHW[ ]\011/* 3 values pushed */
344 44 318 
NPUSHB[ ]\011/* 20 values pushed */
42 38 27 64 15 9 63 0 17 1 15 27 31 27 224 27 240 27 4 27 
PUSHW[ ]\011/* 1 value pushed */
300 
PUSHB[ ]\011/* 7 values pushed */
48 2 38 17 45 38 18 
PUSHW[ ]\011/* 3 values pushed */
318 17 -64 
PUSHB[ ]\011/* 4 values pushed */
17 10 63 17 
PUSHW[ ]\011/* 1 value pushed */
-64 
NPUSHB[ ]\011/* 16 values pushed */
15 9 63 15 17 1 0 17 79 17 239 17 255 17 4 17 
PUSHW[ ]\011/* 1 value pushed */
300 
PUSHB[ ]\011/* 4 values pushed */
47 69 108 24 
PUSHW[ ]\011/* 1 value pushed */
300 
SCANCTRL[ ]\011/* ScanConversionControl */
CALL[ ]\011/* CallFunction */
SRP0[ ]\011/* SetRefPoint0 */
MIRP[10110]\011/* MoveIndirectRelPt */
DELTAP1[ ]\011/* DeltaExceptionP1 */
DELTAP2[ ]\011/* DeltaExceptionP2 */
SVTCA[1]\011/* SetFreedomAndProjectionVectorToAxis */
CALL[ ]\011/* CallFunction */
CALL[ ]\011/* CallFunction */
MIRP[10100]\011/* MoveIndirectRelPt */
MIRP[01101]\011/* MoveIndirectRelPt */
SRP0[ ]\011/* SetRefPoint0 */
MIRP[01101]\011/* MoveIndirectRelPt */
SRP0[ ]\011/* SetRefPoint0 */
MIRP[10110]\011/* MoveIndirectRelPt */
DELTAP1[ ]\011/* DeltaExceptionP1 */
DELTAP2[ ]\011/* DeltaExceptionP2 */
SVTCA[1]\011/* SetFreedomAndProjectionVectorToAxis */
CALL[ ]\011/* CallFunction */
MIRP[11101]\011/* MoveIndirectRelPt */
MIRP[10100]\011/* MoveIndirectRelPt */
MIRP[01101]\011/* MoveIndirectRelPt */
SVTCA[0]\011/* SetFreedomAndProjectionVectorToAxis */
MIAP[1]\011/* MoveIndirectAbsPt */
ALIGNRP[ ]\011/* AlignRelativePt */
MIRP[01101]\011/* MoveIndirectRelPt */
SRP0[ ]\011/* SetRefPoint0 */
MIRP[11101]\011/* MoveIndirectRelPt */
ALIGNRP[ ]\011/* AlignRelativePt */
SRP1[ ]\011/* SetRefPoint1 */
SRP2[ ]\011/* SetRefPoint2 */
IP[ ]\011/* InterpolatePts */
MDAP[1]\011/* MoveDirectAbsPt */
DELTAP1[ ]\011/* DeltaExceptionP1 */
ALIGNRP[ ]\011/* AlignRelativePt */
MIRP[11101]\011/* MoveIndirectRelPt */
ALIGNRP[ ]\011/* AlignRelativePt */
MIAP[1]\011/* MoveIndirectAbsPt */
ALIGNRP[ ]\011/* AlignRelativePt */
ALIGNRP[ ]\011/* AlignRelativePt */
SRP0[ ]\011/* SetRefPoint0 */
ALIGNRP[ ]\011/* AlignRelativePt */
SDPVTL[1]\011/* SetDualPVectorToLine */
SFVTCA[1]\011/* SetFVectorToAxis */
MDAP[0]\011/* MoveDirectAbsPt */
CALL[ ]\011/* CallFunction */
RDTG[ ]\011/* RoundDownToGrid */
SRP0[ ]\011/* SetRefPoint0 */
MDRP[00100]\011/* MoveDirectRelPt */
SDPVTL[1]\011/* SetDualPVectorToLine */
MDAP[0]\011/* MoveDirectAbsPt */
RTG[ ]\011/* RoundToGrid */
CALL[ ]\011/* CallFunction */
SDPVTL[1]\011/* SetDualPVectorToLine */
RDTG[ ]\011/* RoundDownToGrid */
MDRP[00100]\011/* MoveDirectRelPt */
RTG[ ]\011/* RoundToGrid */
SVTCA[0]\011/* SetFreedomAndProjectionVectorToAxis */
SFVTL[0]\011/* SetFVectorToLine */
SRP0[ ]\011/* SetRefPoint0 */
MIRP[11101]\011/* MoveIndirectRelPt */
RTDG[ ]\011/* RoundToDoubleGrid */
SRP2[ ]\011/* SetRefPoint2 */
IP[ ]\011/* InterpolatePts */
MDAP[1]\011/* MoveDirectAbsPt */
RTG[ ]\011/* RoundToGrid */
SVTCA[1]\011/* SetFreedomAndProjectionVectorToAxis */
SRP0[ ]\011/* SetRefPoint0 */
MIRP[10001]\011/* MoveIndirectRelPt */
DELTAP1[ ]\011/* DeltaExceptionP1 */
DELTAP2[ ]\011/* DeltaExceptionP2 */
MDAP[1]\011/* MoveDirectAbsPt */
MIRP[10100]\011/* MoveIndirectRelPt */
MDRP[00100]\011/* MoveDirectRelPt */
SVTCA[0]\011/* SetFreedomAndProjectionVectorToAxis */
SFVTL[0]\011/* SetFVectorToLine */
SRP0[ ]\011/* SetRefPoint0 */
MIRP[11101]\011/* MoveIndirectRelPt */
RTDG[ ]\011/* RoundToDoubleGrid */
SRP2[ ]\011/* SetRefPoint2 */
IP[ ]\011/* InterpolatePts */
MDAP[1]\011/* MoveDirectAbsPt */
RTG[ ]\011/* RoundToGrid */
SVTCA[1]\011/* SetFreedomAndProjectionVectorToAxis */
SRP0[ ]\011/* SetRefPoint0 */
MIRP[10001]\011/* MoveIndirectRelPt */
MDAP[1]\011/* MoveDirectAbsPt */
MIRP[10100]\011/* MoveIndirectRelPt */
MDRP[00100]\011/* MoveDirectRelPt */
SVTCA[0]\011/* SetFreedomAndProjectionVectorToAxis */
SFVTL[0]\011/* SetFVectorToLine */
SRP0[ ]\011/* SetRefPoint0 */
MIRP[11101]\011/* MoveIndirectRelPt */
RTDG[ ]\011/* RoundToDoubleGrid */
SRP2[ ]\011/* SetRefPoint2 */
IP[ ]\011/* InterpolatePts */
MDAP[1]\011/* MoveDirectAbsPt */
RTG[ ]\011/* RoundToGrid */
SVTCA[1]\011/* SetFreedomAndProjectionVectorToAxis */
SRP0[ ]\011/* SetRefPoint0 */
MIRP[10001]\011/* MoveIndirectRelPt */
MDAP[1]\011/* MoveDirectAbsPt */
MIRP[10100]\011/* MoveIndirectRelPt */
MDRP[00100]\011/* MoveDirectRelPt */
SVTCA[0]\011/* SetFreedomAndProjectionVectorToAxis */
SFVTL[0]\011/* SetFVectorToLine */
SRP0[ ]\011/* SetRefPoint0 */
MIRP[11101]\011/* MoveIndirectRelPt */
RTDG[ ]\011/* RoundToDoubleGrid */
SRP2[ ]\011/* SetRefPoint2 */
IP[ ]\011/* InterpolatePts */
MDAP[1]\011/* MoveDirectAbsPt */
RTG[ ]\011/* RoundToGrid */
SVTCA[1]\011/* SetFreedomAndProjectionVectorToAxis */
SRP0[ ]\011/* SetRefPoint0 */
MIRP[10001]\011/* MoveIndirectRelPt */
MDAP[1]\011/* MoveDirectAbsPt */
MIRP[10100]\011/* MoveIndirectRelPt */
MDRP[00100]\011/* MoveDirectRelPt */
SVTCA[0]\011/* SetFreedomAndProjectionVectorToAxis */
SFVTL[0]\011/* SetFVectorToLine */
SRP0[ ]\011/* SetRefPoint0 */
MIRP[11101]\011/* MoveIndirectRelPt */
RTDG[ ]\011/* RoundToDoubleGrid */
SRP2[ ]\011/* SetRefPoint2 */
IP[ ]\011/* InterpolatePts */
MDAP[1]\011/* MoveDirectAbsPt */
RTG[ ]\011/* RoundToGrid */
SVTCA[1]\011/* SetFreedomAndProjectionVectorToAxis */
SRP0[ ]\011/* SetRefPoint0 */
MIRP[10001]\011/* MoveIndirectRelPt */
DELTAP1[ ]\011/* DeltaExceptionP1 */
DELTAP2[ ]\011/* DeltaExceptionP2 */
MDAP[1]\011/* MoveDirectAbsPt */
MIRP[10100]\011/* MoveIndirectRelPt */
MDRP[00100]\011/* MoveDirectRelPt */
SPVTL[1]\011/* SetPVectorToLine */
SRP0[ ]\011/* SetRefPoint0 */
ALIGNRP[ ]\011/* AlignRelativePt */
ALIGNRP[ ]\011/* AlignRelativePt */
SPVTL[1]\011/* SetPVectorToLine */
SRP0[ ]\011/* SetRefPoint0 */
ALIGNRP[ ]\011/* AlignRelativePt */
ALIGNRP[ ]\011/* AlignRelativePt */
IUP[1]\011/* InterpolateUntPts */
IUP[0]\011/* InterpolateUntPts */
SVTCA[1]\011/* SetFreedomAndProjectionVectorToAxis */
DELTAP1[ ]\011/* DeltaExceptionP1 */";
};
width = 1229;
}
);
note = A;
unicode = 0041;
},
{
glyphname = B;
lastChange = "2018-11-25 06:09:51 +0000";
layers = (
{
layerId = "43C596A3-827A-4C98-B0F6-D1945E7BEF5E";
paths = (
{
closed = 1;
nodes = (
"143 84 LINE SMOOTH",
"103 84 OFFCURVE",
"87 67.333 OFFCURVE",
"87 42 CURVE SMOOTH",
"87 18 OFFCURVE",
"103 0 OFFCURVE",
"143 0 CURVE SMOOTH",
"771 0 LINE SMOOTH",
"900.333 0 OFFCURVE",
"1019.667 74.833 OFFCURVE",
"1073 167.5 CURVE SMOOTH",
"1099.667 213.833 OFFCURVE",
"1113 265 OFFCURVE",
"1113 321 CURVE SMOOTH",
"1113 446.333 OFFCURVE",
"1034.667 555.333 OFFCURVE",
"860 618 CURVE",
"970 681.333 OFFCURVE",
"1025 764.333 OFFCURVE",
"1025 867 CURVE SMOOTH",
"1025 1029.667 OFFCURVE",
"880.333 1170 OFFCURVE",
"671 1170 CURVE SMOOTH",
"143 1170 LINE SMOOTH",
"103 1170 OFFCURVE",
"87 1153.333 OFFCURVE",
"87 1128 CURVE SMOOTH",
"87 1102.667 OFFCURVE",
"103 1086 OFFCURVE",
"143 1086 CURVE SMOOTH",
"256 1086 LINE",
"256 84 LINE"
);
},
{
closed = 1;
nodes = (
"340 1086 LINE",
"673 1086 LINE SMOOTH",
"831.667 1086 OFFCURVE",
"940 979.333 OFFCURVE",
"940 874 CURVE SMOOTH",
"940 800.667 OFFCURVE",
"892.333 722.333 OFFCURVE",
"811 685 CURVE SMOOTH",
"758.333 661.667 OFFCURVE",
"700.333 650 OFFCURVE",
"637 650 CURVE SMOOTH",
"340 650 LINE"
);
},
{
closed = 1;
nodes = (
"340 565 LINE",
"642 565 LINE SMOOTH",
"827.333 565 OFFCURVE",
"924.167 523 OFFCURVE",
"983.5 443 CURVE SMOOTH",
"1013.167 403 OFFCURVE",
"1028 361.667 OFFCURVE",
"1028 319 CURVE SMOOTH",
"1028 243 OFFCURVE",
"986 168 OFFCURVE",
"906 120 CURVE SMOOTH",
"866 96 OFFCURVE",
"819 84 OFFCURVE",
"765 84 CURVE SMOOTH",
"340 84 LINE"
);
}
);
userData = {
assembly = "NPUSHB[ ]\011/* 189 values pushed */
175 42 171 43 198 10 197 11 215 10 5 143 42 138 43 157 32 155 37 159 43 174 37 6 123 36 127 37 115 43 117 45 143 10 143 20 139 36 143 37 8 85 16 101 16 127 10 112 16 112 17 112 18 112 19 7 74 32 77 33 73 36 75 43 134 14 5 50 15 59 32 58 33 58 37 63 42 59 43 69 15 71 16 8 9 47 25 32 28 33 27 37 27 42 27 47 35 15 42 43 8 121 16 188 36 199 47 3 70 32 73 37 118 32 134 32 138 48 149 32 165 32 181 32 8 44 8 28 22 25 43 0 0 29 22 2 8 5 43 1 1 29 8 48 32 14 3 35 40 14 50 32 39 29 41 38 22 39 38 8 30 29 30 49 50 50 22 8 2 22 8 35 37 15 12 31 12 47 12 63 12 79 12 95 12 111 12 7 12 
PUSHW[ ]\011/* 1 value pushed */
387 
NPUSHB[ ]\011/* 41 values pushed */
45 37 0 17 16 17 2 15 17 144 17 192 17 208 17 224 17 240 17 6 17 26 52 39 40 30 1 0 0 16 0 2 240 0 1 0 25 51 74 121 24 
PUSHW[ ]\011/* 1 value pushed */
300 
SCANCTRL[ ]\011/* ScanConversionControl */
CALL[ ]\011/* CallFunction */
FLIPOFF[ ]\011/* SetAutoFlipOff */
SRP0[ ]\011/* SetRefPoint0 */
MIRP[10100]\011/* MoveIndirectRelPt */
DELTAP1[ ]\011/* DeltaExceptionP1 */
DELTAP2[ ]\011/* DeltaExceptionP2 */
ALIGNRP[ ]\011/* AlignRelativePt */
FLIPON[ ]\011/* SetAutoFlipOn */
MIRP[11101]\011/* MoveIndirectRelPt */
ALIGNRP[ ]\011/* AlignRelativePt */
FLIPOFF[ ]\011/* SetAutoFlipOff */
SRP0[ ]\011/* SetRefPoint0 */
MIRP[10110]\011/* MoveIndirectRelPt */
DELTAP1[ ]\011/* DeltaExceptionP1 */
DELTAP2[ ]\011/* DeltaExceptionP2 */
FLIPON[ ]\011/* SetAutoFlipOn */
MIRP[11101]\011/* MoveIndirectRelPt */
MIRP[10110]\011/* MoveIndirectRelPt */
DELTAP1[ ]\011/* DeltaExceptionP1 */
MIRP[01101]\011/* MoveIndirectRelPt */
SVTCA[0]\011/* SetFreedomAndProjectionVectorToAxis */
MIAP[1]\011/* MoveIndirectAbsPt */
MIAP[1]\011/* MoveIndirectAbsPt */
SRP2[ ]\011/* SetRefPoint2 */
IP[ ]\011/* InterpolatePts */
MDAP[1]\011/* MoveDirectAbsPt */
ALIGNRP[ ]\011/* AlignRelativePt */
MIRP[11101]\011/* MoveIndirectRelPt */
ALIGNRP[ ]\011/* AlignRelativePt */
SRP0[ ]\011/* SetRefPoint0 */
MIRP[01101]\011/* MoveIndirectRelPt */
SRP0[ ]\011/* SetRefPoint0 */
MIRP[01101]\011/* MoveIndirectRelPt */
SRP1[ ]\011/* SetRefPoint1 */
SRP2[ ]\011/* SetRefPoint2 */
IP[ ]\011/* InterpolatePts */
SRP2[ ]\011/* SetRefPoint2 */
IP[ ]\011/* InterpolatePts */
SVTCA[1]\011/* SetFreedomAndProjectionVectorToAxis */
SRP1[ ]\011/* SetRefPoint1 */
SRP2[ ]\011/* SetRefPoint2 */
SLOOP[ ]\011/* SetLoopVariable */
IP[ ]\011/* InterpolatePts */
SVTCA[0]\011/* SetFreedomAndProjectionVectorToAxis */
SRP0[ ]\011/* SetRefPoint0 */
MIRP[01101]\011/* MoveIndirectRelPt */
SVTCA[1]\011/* SetFreedomAndProjectionVectorToAxis */
SRP0[ ]\011/* SetRefPoint0 */
MIRP[10101]\011/* MoveIndirectRelPt */
MDRP[10100]\011/* MoveDirectRelPt */
ALIGNRP[ ]\011/* AlignRelativePt */
SVTCA[0]\011/* SetFreedomAndProjectionVectorToAxis */
SRP0[ ]\011/* SetRefPoint0 */
MIRP[01101]\011/* MoveIndirectRelPt */
SVTCA[1]\011/* SetFreedomAndProjectionVectorToAxis */
SRP0[ ]\011/* SetRefPoint0 */
MIRP[10101]\011/* MoveIndirectRelPt */
MDRP[10100]\011/* MoveDirectRelPt */
ALIGNRP[ ]\011/* AlignRelativePt */
IUP[1]\011/* InterpolateUntPts */
IUP[0]\011/* InterpolateUntPts */
RS[ ]\011/* ReadStore */
JROF[ ]\011/* JumpRelativeOnFalse */
NPUSHB[ ]\011/* 30 values pushed */
36 44 18 20 10 11 19 38 43 37 42 20 45 45 1 37 10 35 45 1 44 18 41 45 0 36 11 38 45 1 
SVTCA[0]\011/* SetFreedomAndProjectionVectorToAxis */
CALL[ ]\011/* CallFunction */
CALL[ ]\011/* CallFunction */
SVTCA[1]\011/* SetFreedomAndProjectionVectorToAxis */
CALL[ ]\011/* CallFunction */
CALL[ ]\011/* CallFunction */
CALL[ ]\011/* CallFunction */
CALL[ ]\011/* CallFunction */
FLIPRGON[ ]\011/* FlipRangeOn */
FLIPRGON[ ]\011/* FlipRangeOn */
FLIPRGON[ ]\011/* FlipRangeOn */
SVTCA[0]\011/* SetFreedomAndProjectionVectorToAxis */
DELTAP2[ ]\011/* DeltaExceptionP2 */
DELTAP1[ ]\011/* DeltaExceptionP1 */
SVTCA[1]\011/* SetFreedomAndProjectionVectorToAxis */
DELTAP2[ ]\011/* DeltaExceptionP2 */
DELTAP2[ ]\011/* DeltaExceptionP2 */
DELTAP2[ ]\011/* DeltaExceptionP2 */
DELTAP1[ ]\011/* DeltaExceptionP1 */
DELTAP1[ ]\011/* DeltaExceptionP1 */
DELTAP1[ ]\011/* DeltaExceptionP1 */
DELTAP1[ ]\011/* DeltaExceptionP1 */";
};
width = 1229;
}
);
note = B;
unicode = 0042;
},
{
glyphname = C;
lastChange = "2018-11-25 06:09:51 +0000";
layers = (
{
layerId = "43C596A3-827A-4C98-B0F6-D1945E7BEF5E";
paths = (
{
closed = 1;
nodes = (
"884 1149.667 OFFCURVE",
"764.667 1197 OFFCURVE",
"626 1197 CURVE SMOOTH",
"446 1197 OFFCURVE",
"282.167 1101.167 OFFCURVE",
"193.5 928.5 CURVE SMOOTH",
"149.167 842.167 OFFCURVE",
"127 757.667 OFFCURVE",
"127 675 CURVE SMOOTH",
"127 504 LINE SMOOTH",
"127 276.409 OFFCURVE",
"303.377 68.234 OFFCURVE",
"480 2 CURVE SMOOTH",
"542.667 -21.333 OFFCURVE",
"604.333 -33 OFFCURVE",
"665 -33 CURVE SMOOTH",
"805 -33 OFFCURVE",
"947.667 29.333 OFFCURVE",
"1057 152 CURVE SMOOTH",
"1085.667 183.333 OFFCURVE",
"1100 206.667 OFFCURVE",
"1100 222 CURVE SMOOTH",
"1100 244.667 OFFCURVE",
"1084 261 OFFCURVE",
"1060 261 CURVE SMOOTH",
"1046 261 OFFCURVE",
"1033.333 254 OFFCURVE",
"1022 240 CURVE SMOOTH",
"915.333 113.333 OFFCURVE",
"807 51 OFFCURVE",
"663 51 CURVE SMOOTH",
"423 51 OFFCURVE",
"211 265.333 OFFCURVE",
"211 516 CURVE SMOOTH",
"211 663 LINE SMOOTH",
"211 721.667 OFFCURVE",
"220.333 774.333 OFFCURVE",
"239 821 CURVE SMOOTH",
"265 884.333 OFFCURVE",
"300 942 OFFCURVE",
"344 994 CURVE SMOOTH",
"369.333 1024 OFFCURVE",
"403.333 1049.333 OFFCURVE",
"446 1070 CURVE SMOOTH",
"503.333 1098.667 OFFCURVE",
"564.333 1113 OFFCURVE",
"629 1113 CURVE SMOOTH",
"727.667 1113 OFFCURVE",
"815.667 1083.333 OFFCURVE",
"893 1024 CURVE SMOOTH",
"950.333 980.667 OFFCURVE",
"980.667 931 OFFCURVE",
"984 875 CURVE SMOOTH",
"986.667 839 OFFCURVE",
"1003.333 824 OFFCURVE",
"1026 824 CURVE SMOOTH",
"1051.333 824 OFFCURVE",
"1068 839.667 OFFCURVE",
"1068 881 CURVE SMOOTH",
"1068 1114 LINE SMOOTH",
"1068 1154 OFFCURVE",
"1051.333 1170 OFFCURVE",
"1026 1170 CURVE SMOOTH",
"1000.667 1170 OFFCURVE",
"984 1154 OFFCURVE",
"984 1114 CURVE SMOOTH",
"984 1055 LINE"
);
}
);
userData = {
assembly = "NPUSHB[ ]\011/* 120 values pushed */
45 20 1 47 0 63 0 79 0 3 5 22 21 22 86 23 101 20 100 22 105 46 112 20 115 22 112 24 180 23 10 55 28 54 48 74 22 74 54 91 23 91 53 106 23 104 53 133 28 153 47 10 51 49 15 32 27 34 1 0 3 8 14 22 23 55 50 32 35 30 15 13 0 3 18 11 35 180 43 18 37 55 11 139 4 30 37 43 55 3 4 2 43 9 14 38 8 96 33 38 38 26 58 27 38 15 49 31 49 47 49 63 49 4 49 25 57 135 121 24 
PUSHW[ ]\011/* 1 value pushed */
300 
SCANCTRL[ ]\011/* ScanConversionControl */
CALL[ ]\011/* CallFunction */
FLIPOFF[ ]\011/* SetAutoFlipOff */
SRP0[ ]\011/* SetRefPoint0 */
MIRP[10100]\011/* MoveIndirectRelPt */
DELTAP1[ ]\011/* DeltaExceptionP1 */
FLIPON[ ]\011/* SetAutoFlipOn */
MIRP[01101]\011/* MoveIndirectRelPt */
FLIPOFF[ ]\011/* SetAutoFlipOff */
SRP0[ ]\011/* SetRefPoint0 */
MIRP[10110]\011/* MoveIndirectRelPt */
FLIPON[ ]\011/* SetAutoFlipOn */
MIRP[11101]\011/* MoveIndirectRelPt */
MIRP[11101]\011/* MoveIndirectRelPt */
MIRP[01101]\011/* MoveIndirectRelPt */
SVTCA[0]\011/* SetFreedomAndProjectionVectorToAxis */
MIAP[1]\011/* MoveIndirectAbsPt */
MIAP[1]\011/* MoveIndirectAbsPt */
MIAP[1]\011/* MoveIndirectAbsPt */
SRP0[ ]\011/* SetRefPoint0 */
MIRP[01101]\011/* MoveIndirectRelPt */
SRP0[ ]\011/* SetRefPoint0 */
MIRP[01101]\011/* MoveIndirectRelPt */
SRP0[ ]\011/* SetRefPoint0 */
MIRP[01101]\011/* MoveIndirectRelPt */
SRP0[ ]\011/* SetRefPoint0 */
MIRP[01101]\011/* MoveIndirectRelPt */
SRP1[ ]\011/* SetRefPoint1 */
SRP2[ ]\011/* SetRefPoint2 */
SLOOP[ ]\011/* SetLoopVariable */
IP[ ]\011/* InterpolatePts */
SRP1[ ]\011/* SetRefPoint1 */
SRP2[ ]\011/* SetRefPoint2 */
IP[ ]\011/* InterpolatePts */
SRP1[ ]\011/* SetRefPoint1 */
SRP2[ ]\011/* SetRefPoint2 */
IP[ ]\011/* InterpolatePts */
IP[ ]\011/* InterpolatePts */
SVTCA[1]\011/* SetFreedomAndProjectionVectorToAxis */
SRP1[ ]\011/* SetRefPoint1 */
SRP2[ ]\011/* SetRefPoint2 */
SLOOP[ ]\011/* SetLoopVariable */
IP[ ]\011/* InterpolatePts */
SRP2[ ]\011/* SetRefPoint2 */
IP[ ]\011/* InterpolatePts */
IP[ ]\011/* InterpolatePts */
SRP1[ ]\011/* SetRefPoint1 */
IP[ ]\011/* InterpolatePts */
IUP[1]\011/* InterpolateUntPts */
IUP[0]\011/* InterpolateUntPts */
SVTCA[0]\011/* SetFreedomAndProjectionVectorToAxis */
MPPEM[ ]\011/* MeasurePixelPerEm */
PUSHB[ ]\011/* 1 value pushed */
11 
GTEQ[ ]\011/* GreaterThanOrEqual */
MPPEM[ ]\011/* MeasurePixelPerEm */
PUSHB[ ]\011/* 1 value pushed */
36 
LTEQ[ ]\011/* LessThenOrEqual */
AND[ ]\011/* LogicalAnd */
IF[ ]\011/* If */
PUSHW[ ]\011/* 2 values pushed */
28 -20 
PUSHB[ ]\011/* 3 values pushed */
17 20 0 
PUSHW[ ]\011/* 3 values pushed */
-20 29 -20 
PUSHB[ ]\011/* 6 values pushed */
22 22 23 28 24 22 
SHPIX[ ]\011/* ShiftZoneByPixel */
SHPIX[ ]\011/* ShiftZoneByPixel */
SHPIX[ ]\011/* ShiftZoneByPixel */
SHPIX[ ]\011/* ShiftZoneByPixel */
SHPIX[ ]\011/* ShiftZoneByPixel */
SHPIX[ ]\011/* ShiftZoneByPixel */
SHPIX[ ]\011/* ShiftZoneByPixel */
EIF[ ]\011/* EndIf */
SVTCA[1]\011/* SetFreedomAndProjectionVectorToAxis */
DELTAP1[ ]\011/* DeltaExceptionP1 */
DELTAP2[ ]\011/* DeltaExceptionP2 */
SVTCA[0]\011/* SetFreedomAndProjectionVectorToAxis */
DELTAP1[ ]\011/* DeltaExceptionP1 */
DELTAP2[ ]\011/* DeltaExceptionP2 */";
};
width = 1229;
}
);
note = C;
unicode = 0043;
},
{
glyphname = D;
lastChange = "2018-11-25 06:09:51 +0000";
layers = (
{
layerId = "43C596A3-827A-4C98-B0F6-D1945E7BEF5E";
paths = (
{
closed = 1;
nodes = (
"214 84 LINE SMOOTH",
"174 84 OFFCURVE",
"158 67.333 OFFCURVE",
"158 42 CURVE SMOOTH",
"158 18 OFFCURVE",
"174 0 OFFCURVE",
"214 0 CURVE SMOOTH",
"666 0 LINE SMOOTH",
"752.667 0 OFFCURVE",
"829 22 OFFCURVE",
"895 66 CURVE SMOOTH",
"1072.333 186 OFFCURVE",
"1142 355 OFFCURVE",
"1142 527 CURVE SMOOTH",
"1142 643 LINE SMOOTH",
"1142 713 OFFCURVE",
"1132.333 773.667 OFFCURVE",
"1113 825 CURVE SMOOTH",
"1085.667 895.667 OFFCURVE",
"1045.667 962.667 OFFCURVE",
"993 1026 CURVE SMOOTH",
"931.667 1100.667 OFFCURVE",
"807.333 1170 OFFCURVE",
"666 1170 CURVE SMOOTH",
"214 1170 LINE SMOOTH",
"174 1170 OFFCURVE",
"158 1153.333 OFFCURVE",
"158 1128 CURVE SMOOTH",
"158 1102.667 OFFCURVE",
"174 1086 OFFCURVE",
"214 1086 CURVE SMOOTH",
"285 1086 LINE",
"285 84 LINE"
);
},
{
closed = 1;
nodes = (
"369 1086 LINE",
"674 1086 LINE SMOOTH",
"782 1086 OFFCURVE",
"883 1027.667 OFFCURVE",
"931 969 CURVE SMOOTH",
"975 915.667 OFFCURVE",
"1009 859.333 OFFCURVE",
"1033 800 CURVE SMOOTH",
"1049.667 759.333 OFFCURVE",
"1058 713 OFFCURVE",
"1058 661 CURVE SMOOTH",
"1058 509 LINE SMOOTH",
"1058 383.667 OFFCURVE",
"995.833 245 OFFCURVE",
"872.5 153 CURVE SMOOTH",
"810.833 107 OFFCURVE",
"744.667 84 OFFCURVE",
"674 84 CURVE SMOOTH",
"369 84 LINE"
);
}
);
userData = {
assembly = "NPUSHB[ ]\011/* 33 values pushed */
142 10 137 11 136 18 137 19 137 20 140 21 143 31 143 32 138 33 141 39 138 41 143 42 12 11 40 1 39 32 41 28 33 
PUSHW[ ]\011/* 1 value pushed */
-32 
NPUSHB[ ]\011/* 9 values pushed */
153 39 181 33 2 67 8 23 29 
PUSHW[ ]\011/* 1 value pushed */
676 
NPUSHB[ ]\011/* 11 values pushed */
26 41 0 26 26 29 0 29 23 8 2 
PUSHW[ ]\011/* 1 value pushed */
676 
NPUSHB[ ]\011/* 53 values pushed */
5 41 1 5 5 2 1 29 8 17 46 15 31 30 22 22 29 30 23 8 43 30 9 9 2 30 8 2 36 38 15 15 1 15 15 32 15 2 15 26 46 44 30 30 1 32 0 79 0 2 0 25 45 
PUSHW[ ]\011/* 4 values pushed */
313 264 24 300 
SCANCTRL[ ]\011/* ScanConversionControl */
CALL[ ]\011/* CallFunction */
FLIPOFF[ ]\011/* SetAutoFlipOff */
SRP0[ ]\011/* SetRefPoint0 */
MIRP[10100]\011/* MoveIndirectRelPt */
DELTAP1[ ]\011/* DeltaExceptionP1 */
ALIGNRP[ ]\011/* AlignRelativePt */
FLIPON[ ]\011/* SetAutoFlipOn */
MIRP[11101]\011/* MoveIndirectRelPt */
ALIGNRP[ ]\011/* AlignRelativePt */
FLIPOFF[ ]\011/* SetAutoFlipOff */
SRP0[ ]\011/* SetRefPoint0 */
MIRP[10110]\011/* MoveIndirectRelPt */
DELTAP1[ ]\011/* DeltaExceptionP1 */
DELTAP2[ ]\011/* DeltaExceptionP2 */
FLIPON[ ]\011/* SetAutoFlipOn */
MIRP[01101]\011/* MoveIndirectRelPt */
SVTCA[0]\011/* SetFreedomAndProjectionVectorToAxis */
MIAP[1]\011/* MoveIndirectAbsPt */
MIRP[01101]\011/* MoveIndirectRelPt */
ALIGNRP[ ]\011/* AlignRelativePt */
SRP0[ ]\011/* SetRefPoint0 */
MIRP[01101]\011/* MoveIndirectRelPt */
MIAP[1]\011/* MoveIndirectAbsPt */
MIRP[01101]\011/* MoveIndirectRelPt */
ALIGNRP[ ]\011/* AlignRelativePt */
SRP0[ ]\011/* SetRefPoint0 */
MIRP[01101]\011/* MoveIndirectRelPt */
SVTCA[1]\011/* SetFreedomAndProjectionVectorToAxis */
SRP1[ ]\011/* SetRefPoint1 */
SRP2[ ]\011/* SetRefPoint2 */
IP[ ]\011/* InterpolatePts */
SVTCA[0]\011/* SetFreedomAndProjectionVectorToAxis */
SRP0[ ]\011/* SetRefPoint0 */
MIRP[11101]\011/* MoveIndirectRelPt */
RTDG[ ]\011/* RoundToDoubleGrid */
SRP2[ ]\011/* SetRefPoint2 */
IP[ ]\011/* InterpolatePts */
MDAP[1]\011/* MoveDirectAbsPt */
RTG[ ]\011/* RoundToGrid */
SVTCA[1]\011/* SetFreedomAndProjectionVectorToAxis */
SRP0[ ]\011/* SetRefPoint0 */
MIRP[10101]\011/* MoveIndirectRelPt */
MIRP[10100]\011/* MoveIndirectRelPt */
MDRP[00100]\011/* MoveDirectRelPt */
SVTCA[0]\011/* SetFreedomAndProjectionVectorToAxis */
SRP0[ ]\011/* SetRefPoint0 */
MIRP[11101]\011/* MoveIndirectRelPt */
RTDG[ ]\011/* RoundToDoubleGrid */
SRP2[ ]\011/* SetRefPoint2 */
IP[ ]\011/* InterpolatePts */
MDAP[1]\011/* MoveDirectAbsPt */
RTG[ ]\011/* RoundToGrid */
SVTCA[1]\011/* SetFreedomAndProjectionVectorToAxis */
SRP0[ ]\011/* SetRefPoint0 */
MIRP[10101]\011/* MoveIndirectRelPt */
MIRP[10100]\011/* MoveIndirectRelPt */
MDRP[00100]\011/* MoveDirectRelPt */
IUP[1]\011/* InterpolateUntPts */
IUP[0]\011/* InterpolateUntPts */
RS[ ]\011/* ReadStore */
JROF[ ]\011/* JumpRelativeOnFalse */
NPUSHB[ ]\011/* 52 values pushed */
32 42 10 21 14 15 13 15 12 15 11 15 4 6 38 37 39 37 40 37 41 37 4 6 19 18 20 18 2 6 33 37 42 10 36 46 1 32 21 35 46 1 37 15 43 46 1 34 18 31 46 0 
SVTCA[0]\011/* SetFreedomAndProjectionVectorToAxis */
CALL[ ]\011/* CallFunction */
CALL[ ]\011/* CallFunction */
SVTCA[1]\011/* SetFreedomAndProjectionVectorToAxis */
CALL[ ]\011/* CallFunction */
CALL[ ]\011/* CallFunction */
CALL[ ]\011/* CallFunction */
LOOPCALL[ ]\011/* LoopAndCallFunction */
LOOPCALL[ ]\011/* LoopAndCallFunction */
LOOPCALL[ ]\011/* LoopAndCallFunction */
FLIPRGON[ ]\011/* FlipRangeOn */
FLIPRGON[ ]\011/* FlipRangeOn */
SVTCA[0]\011/* SetFreedomAndProjectionVectorToAxis */
DELTAP1[ ]\011/* DeltaExceptionP1 */
SHPIX[ ]\011/* ShiftZoneByPixel */
SHPIX[ ]\011/* ShiftZoneByPixel */
SHPIX[ ]\011/* ShiftZoneByPixel */
SVTCA[1]\011/* SetFreedomAndProjectionVectorToAxis */
DELTAP2[ ]\011/* DeltaExceptionP2 */
DELTAP1[ ]\011/* DeltaExceptionP1 */";
};
width = 1229;
}
);
note = D;
unicode = 0044;
},
{
glyphname = E;
lastChange = "2018-11-25 06:09:51 +0000";
layers = (
{
layerId = "43C596A3-827A-4C98-B0F6-D1945E7BEF5E";
paths = (
{
closed = 1;
nodes = (
"642 565 LINE",
"642 470 LINE SMOOTH",
"642 430 OFFCURVE",
"659.667 414 OFFCURVE",
"685 414 CURVE SMOOTH",
"709 414 OFFCURVE",
"727 430 OFFCURVE",
"727 470 CURVE SMOOTH",
"727 744 LINE SMOOTH",
"727 784 OFFCURVE",
"709 800 OFFCURVE",
"685 800 CURVE SMOOTH",
"659.667 800 OFFCURVE",
"642 784 OFFCURVE",
"642 744 CURVE SMOOTH",
"642 649 LINE",
"341 649 LINE",
"341 1086 LINE",
"943 1086 LINE",
"943 881 LINE SMOOTH",
"943 841 OFFCURVE",
"959.667 825 OFFCURVE",
"985 825 CURVE SMOOTH",
"1010.333 825 OFFCURVE",
"1027 841 OFFCURVE",
"1027 881 CURVE SMOOTH",
"1027 1170 LINE",
"144 1170 LINE SMOOTH",
"104 1170 OFFCURVE",
"88 1153.333 OFFCURVE",
"88 1128 CURVE SMOOTH",
"88 1102.667 OFFCURVE",
"104 1086 OFFCURVE",
"144 1086 CURVE SMOOTH",
"257 1086 LINE",
"257 84 LINE",
"144 84 LINE SMOOTH",
"104 84 OFFCURVE",
"88 67.333 OFFCURVE",
"88 42 CURVE SMOOTH",
"88 18 OFFCURVE",
"104 0 OFFCURVE",
"144 0 CURVE SMOOTH",
"1071 0 LINE",
"1071 332 LINE SMOOTH",
"1071 372 OFFCURVE",
"1054.333 388 OFFCURVE",
"1029 388 CURVE SMOOTH",
"1003.667 388 OFFCURVE",
"987 372 OFFCURVE",
"987 332 CURVE SMOOTH",
"987 84 LINE",
"341 84 LINE",
"341 565 LINE"
);
}
);
userData = {
assembly = "NPUSHB[ ]\011/* 26 values pushed */
95 31 111 6 127 6 3 17 11 14 43 18 18 29 11 34 28 31 53 35 35 29 28 3 9 6 
PUSHW[ ]\011/* 1 value pushed */
-64 
PUSHB[ ]\011/* 4 values pushed */
15 30 63 6 
PUSHW[ ]\011/* 1 value pushed */
-64 
NPUSHB[ ]\011/* 44 values pushed */
15 25 63 6 86 2 2 29 9 20 26 23 43 19 19 29 26 52 46 15 49 31 49 2 49 43 53 53 29 46 39 45 0 42 16 42 2 42 43 38 38 29 45 31 
PUSHW[ ]\011/* 1 value pushed */
364 
NPUSHB[ ]\011/* 60 values pushed */
26 2 1 38 11 35 36 38 26 53 0 38 37 30 0 0 11 26 2 11 8 34 38 15 28 1 239 28 255 28 2 28 65 3 38 0 9 1 80 9 160 9 208 9 224 9 240 9 5 9 53 38 38 46 0 45 16 45 2 45 
PUSHW[ ]\011/* 1 value pushed */
318 
NPUSHB[ ]\011/* 22 values pushed */
37 37 36 0 1 30 9 82 19 47 18 239 18 240 18 3 18 25 54 74 111 24 
CALL[ ]\011/* CallFunction */
FLIPOFF[ ]\011/* SetAutoFlipOff */
SRP0[ ]\011/* SetRefPoint0 */
MIRP[10100]\011/* MoveIndirectRelPt */
DELTAP1[ ]\011/* DeltaExceptionP1 */
ALIGNRP[ ]\011/* AlignRelativePt */
FLIPON[ ]\011/* SetAutoFlipOn */
MIRP[01101]\011/* MoveIndirectRelPt */
MIRP[11101]\011/* MoveIndirectRelPt */
ALIGNRP[ ]\011/* AlignRelativePt */
ALIGNRP[ ]\011/* AlignRelativePt */
ALIGNRP[ ]\011/* AlignRelativePt */
SRP0[ ]\011/* SetRefPoint0 */
MIRP[10100]\011/* MoveIndirectRelPt */
DELTAP1[ ]\011/* DeltaExceptionP1 */
ALIGNRP[ ]\011/* AlignRelativePt */
MIRP[11101]\011/* MoveIndirectRelPt */
ALIGNRP[ ]\011/* AlignRelativePt */
SRP0[ ]\011/* SetRefPoint0 */
DELTAP1[ ]\011/* DeltaExceptionP1 */
DELTAP2[ ]\011/* DeltaExceptionP2 */
MIRP[01101]\011/* MoveIndirectRelPt */
MIRP[10100]\011/* MoveIndirectRelPt */
DELTAP1[ ]\011/* DeltaExceptionP1 */
DELTAP2[ ]\011/* DeltaExceptionP2 */
MIRP[01101]\011/* MoveIndirectRelPt */
SVTCA[0]\011/* SetFreedomAndProjectionVectorToAxis */
MIAP[1]\011/* MoveIndirectAbsPt */
MIAP[1]\011/* MoveIndirectAbsPt */
SRP2[ ]\011/* SetRefPoint2 */
IP[ ]\011/* InterpolatePts */
MDAP[1]\011/* MoveDirectAbsPt */
MIRP[11101]\011/* MoveIndirectRelPt */
ALIGNRP[ ]\011/* AlignRelativePt */
SRP0[ ]\011/* SetRefPoint0 */
ALIGNRP[ ]\011/* AlignRelativePt */
SRP0[ ]\011/* SetRefPoint0 */
MIRP[11101]\011/* MoveIndirectRelPt */
ALIGNRP[ ]\011/* AlignRelativePt */
SRP0[ ]\011/* SetRefPoint0 */
MIRP[11101]\011/* MoveIndirectRelPt */
ALIGNRP[ ]\011/* AlignRelativePt */
SRP0[ ]\011/* SetRefPoint0 */
MIRP[01101]\011/* MoveIndirectRelPt */
SVTCA[1]\011/* SetFreedomAndProjectionVectorToAxis */
SRP0[ ]\011/* SetRefPoint0 */
MIRP[01101]\011/* MoveIndirectRelPt */
SVTCA[0]\011/* SetFreedomAndProjectionVectorToAxis */
SRP0[ ]\011/* SetRefPoint0 */
MIRP[10101]\011/* MoveIndirectRelPt */
DELTAP1[ ]\011/* DeltaExceptionP1 */
MDRP[10100]\011/* MoveDirectRelPt */
ALIGNRP[ ]\011/* AlignRelativePt */
SVTCA[1]\011/* SetFreedomAndProjectionVectorToAxis */
SRP0[ ]\011/* SetRefPoint0 */
MIRP[01101]\011/* MoveIndirectRelPt */
SVTCA[0]\011/* SetFreedomAndProjectionVectorToAxis */
SRP0[ ]\011/* SetRefPoint0 */
MIRP[10101]\011/* MoveIndirectRelPt */
DELTAP1[ ]\011/* DeltaExceptionP1 */
MDRP[10100]\011/* MoveDirectRelPt */
ALIGNRP[ ]\011/* AlignRelativePt */
SRP0[ ]\011/* SetRefPoint0 */
MIRP[01101]\011/* MoveIndirectRelPt */
SVTCA[1]\011/* SetFreedomAndProjectionVectorToAxis */
SRP0[ ]\011/* SetRefPoint0 */
MIRP[10101]\011/* MoveIndirectRelPt */
MDRP[10100]\011/* MoveDirectRelPt */
ALIGNRP[ ]\011/* AlignRelativePt */
SRP0[ ]\011/* SetRefPoint0 */
MIRP[01101]\011/* MoveIndirectRelPt */
SVTCA[0]\011/* SetFreedomAndProjectionVectorToAxis */
SRP0[ ]\011/* SetRefPoint0 */
MIRP[10101]\011/* MoveIndirectRelPt */
CALL[ ]\011/* CallFunction */
CALL[ ]\011/* CallFunction */
MDRP[10100]\011/* MoveDirectRelPt */
ALIGNRP[ ]\011/* AlignRelativePt */
SVTCA[1]\011/* SetFreedomAndProjectionVectorToAxis */
SRP0[ ]\011/* SetRefPoint0 */
MIRP[01101]\011/* MoveIndirectRelPt */
SVTCA[0]\011/* SetFreedomAndProjectionVectorToAxis */
SRP0[ ]\011/* SetRefPoint0 */
MIRP[10101]\011/* MoveIndirectRelPt */
MDRP[10100]\011/* MoveDirectRelPt */
ALIGNRP[ ]\011/* AlignRelativePt */
SRP0[ ]\011/* SetRefPoint0 */
MIRP[01101]\011/* MoveIndirectRelPt */
SVTCA[1]\011/* SetFreedomAndProjectionVectorToAxis */
SRP0[ ]\011/* SetRefPoint0 */
MIRP[10101]\011/* MoveIndirectRelPt */
MDRP[10100]\011/* MoveDirectRelPt */
ALIGNRP[ ]\011/* AlignRelativePt */
IUP[1]\011/* InterpolateUntPts */
IUP[0]\011/* InterpolateUntPts */
SVTCA[0]\011/* SetFreedomAndProjectionVectorToAxis */
DELTAP1[ ]\011/* DeltaExceptionP1 */";
};
width = 1229;
}
);
note = E;
unicode = 0045;
},
{
glyphname = F;
lastChange = "2018-11-25 06:09:51 +0000";
layers = (
{
layerId = "43C596A3-827A-4C98-B0F6-D1945E7BEF5E";
paths = (
{
closed = 1;
nodes = (
"713 565 LINE",
"713 470 LINE SMOOTH",
"713 430 OFFCURVE",
"730.667 414 OFFCURVE",
"756 414 CURVE SMOOTH",
"780 414 OFFCURVE",
"798 430 OFFCURVE",
"798 470 CURVE SMOOTH",
"798 744 LINE SMOOTH",
"798 784 OFFCURVE",
"780 800 OFFCURVE",
"756 800 CURVE SMOOTH",
"730.667 800 OFFCURVE",
"713 784 OFFCURVE",
"713 744 CURVE SMOOTH",
"713 649 LINE",
"412 649 LINE",
"412 1086 LINE",
"1055 1086 LINE",
"1055 881 LINE SMOOTH",
"1055 841 OFFCURVE",
"1072.667 825 OFFCURVE",
"1098 825 CURVE SMOOTH",
"1122 825 OFFCURVE",
"1140 841 OFFCURVE",
"1140 881 CURVE SMOOTH",
"1140 1170 LINE",
"215 1170 LINE SMOOTH",
"195 1170 OFFCURVE",
"181.333 1166.667 OFFCURVE",
"174 1160 CURVE SMOOTH",
"164 1151.333 OFFCURVE",
"159 1140.667 OFFCURVE",
"159 1128 CURVE SMOOTH",
"159 1102.667 OFFCURVE",
"175 1086 OFFCURVE",
"215 1086 CURVE SMOOTH",
"328 1086 LINE",
"328 84 LINE",
"215 84 LINE SMOOTH",
"175 84 OFFCURVE",
"159 67.333 OFFCURVE",
"159 42 CURVE SMOOTH",
"159 18 OFFCURVE",
"175 0 OFFCURVE",
"215 0 CURVE SMOOTH",
"700 0 LINE SMOOTH",
"740 0 OFFCURVE",
"756 18 OFFCURVE",
"756 42 CURVE SMOOTH",
"756 67.333 OFFCURVE",
"740 84 OFFCURVE",
"700 84 CURVE SMOOTH",
"412 84 LINE",
"412 565 LINE"
);
}
);
userData = {
assembly = "NPUSHB[ ]\011/* 94 values pushed */
96 5 1 15 9 12 43 16 16 29 9 33 27 30 53 34 34 29 27 51 45 15 48 31 48 2 48 43 52 52 29 45 2 8 5 54 1 1 29 8 18 25 21 43 17 17 29 25 38 44 0 41 16 41 2 41 43 37 37 29 44 34 35 38 25 52 0 37 36 38 0 0 25 2 1 38 9 25 2 9 8 52 37 45 37 38 0 44 16 44 80 44 3 44 
PUSHW[ ]\011/* 1 value pushed */
318 
NPUSHB[ ]\011/* 44 values pushed */
36 36 35 0 1 38 16 34 38 0 27 32 27 2 80 27 160 27 208 27 224 27 240 27 5 27 82 17 32 16 1 0 16 128 16 144 16 240 16 4 16 25 53 246 
PUSHW[ ]\011/* 2 values pushed */
264 24 
CALL[ ]\011/* CallFunction */
FLIPOFF[ ]\011/* SetAutoFlipOff */
SRP0[ ]\011/* SetRefPoint0 */
MIRP[10100]\011/* MoveIndirectRelPt */
DELTAP1[ ]\011/* DeltaExceptionP1 */
DELTAP2[ ]\011/* DeltaExceptionP2 */
ALIGNRP[ ]\011/* AlignRelativePt */
FLIPON[ ]\011/* SetAutoFlipOn */
MIRP[11101]\011/* MoveIndirectRelPt */
DELTAP1[ ]\011/* DeltaExceptionP1 */
DELTAP2[ ]\011/* DeltaExceptionP2 */
MIRP[01101]\011/* MoveIndirectRelPt */
SRP0[ ]\011/* SetRefPoint0 */
MIRP[11101]\011/* MoveIndirectRelPt */
ALIGNRP[ ]\011/* AlignRelativePt */
ALIGNRP[ ]\011/* AlignRelativePt */
ALIGNRP[ ]\011/* AlignRelativePt */
SRP0[ ]\011/* SetRefPoint0 */
MIRP[10100]\011/* MoveIndirectRelPt */
DELTAP1[ ]\011/* DeltaExceptionP1 */
MIRP[01101]\011/* MoveIndirectRelPt */
ALIGNRP[ ]\011/* AlignRelativePt */
SRP0[ ]\011/* SetRefPoint0 */
ALIGNRP[ ]\011/* AlignRelativePt */
SVTCA[0]\011/* SetFreedomAndProjectionVectorToAxis */
MIAP[1]\011/* MoveIndirectAbsPt */
MIAP[1]\011/* MoveIndirectAbsPt */
SRP0[ ]\011/* SetRefPoint0 */
MIRP[11101]\011/* MoveIndirectRelPt */
ALIGNRP[ ]\011/* AlignRelativePt */
SRP2[ ]\011/* SetRefPoint2 */
IP[ ]\011/* InterpolatePts */
MDAP[1]\011/* MoveDirectAbsPt */
MIRP[11101]\011/* MoveIndirectRelPt */
ALIGNRP[ ]\011/* AlignRelativePt */
SRP0[ ]\011/* SetRefPoint0 */
ALIGNRP[ ]\011/* AlignRelativePt */
SRP0[ ]\011/* SetRefPoint0 */
MIRP[11101]\011/* MoveIndirectRelPt */
ALIGNRP[ ]\011/* AlignRelativePt */
SVTCA[1]\011/* SetFreedomAndProjectionVectorToAxis */
SRP0[ ]\011/* SetRefPoint0 */
MIRP[01101]\011/* MoveIndirectRelPt */
SVTCA[0]\011/* SetFreedomAndProjectionVectorToAxis */
SRP0[ ]\011/* SetRefPoint0 */
MIRP[10101]\011/* MoveIndirectRelPt */
DELTAP1[ ]\011/* DeltaExceptionP1 */
MDRP[10100]\011/* MoveDirectRelPt */
ALIGNRP[ ]\011/* AlignRelativePt */
SRP0[ ]\011/* SetRefPoint0 */
MIRP[01101]\011/* MoveIndirectRelPt */
SVTCA[1]\011/* SetFreedomAndProjectionVectorToAxis */
SRP0[ ]\011/* SetRefPoint0 */
MIRP[10101]\011/* MoveIndirectRelPt */
MDRP[10100]\011/* MoveDirectRelPt */
ALIGNRP[ ]\011/* AlignRelativePt */
SVTCA[0]\011/* SetFreedomAndProjectionVectorToAxis */
SRP0[ ]\011/* SetRefPoint0 */
MIRP[01101]\011/* MoveIndirectRelPt */
SVTCA[1]\011/* SetFreedomAndProjectionVectorToAxis */
SRP0[ ]\011/* SetRefPoint0 */
MIRP[10101]\011/* MoveIndirectRelPt */
MDRP[10100]\011/* MoveDirectRelPt */
ALIGNRP[ ]\011/* AlignRelativePt */
SRP0[ ]\011/* SetRefPoint0 */
MIRP[01101]\011/* MoveIndirectRelPt */
SVTCA[0]\011/* SetFreedomAndProjectionVectorToAxis */
SRP0[ ]\011/* SetRefPoint0 */
MIRP[10101]\011/* MoveIndirectRelPt */
DELTAP1[ ]\011/* DeltaExceptionP1 */
MDRP[10100]\011/* MoveDirectRelPt */
ALIGNRP[ ]\011/* AlignRelativePt */
SVTCA[1]\011/* SetFreedomAndProjectionVectorToAxis */
SRP0[ ]\011/* SetRefPoint0 */
MIRP[01101]\011/* MoveIndirectRelPt */
SVTCA[0]\011/* SetFreedomAndProjectionVectorToAxis */
SRP0[ ]\011/* SetRefPoint0 */
MIRP[10101]\011/* MoveIndirectRelPt */
MDRP[10100]\011/* MoveDirectRelPt */
ALIGNRP[ ]\011/* AlignRelativePt */
SRP0[ ]\011/* SetRefPoint0 */
MIRP[01101]\011/* MoveIndirectRelPt */
SVTCA[1]\011/* SetFreedomAndProjectionVectorToAxis */
SRP0[ ]\011/* SetRefPoint0 */
MIRP[10101]\011/* MoveIndirectRelPt */
MDRP[10100]\011/* MoveDirectRelPt */
ALIGNRP[ ]\011/* AlignRelativePt */
IUP[1]\011/* InterpolateUntPts */
IUP[0]\011/* InterpolateUntPts */
SVTCA[1]\011/* SetFreedomAndProjectionVectorToAxis */
DELTAP1[ ]\011/* DeltaExceptionP1 */";
};
width = 1229;
}
);
note = F;
unicode = 0046;
},
{
glyphname = G;
lastChange = "2018-11-25 06:09:51 +0000";
layers = (
{
layerId = "43C596A3-827A-4C98-B0F6-D1945E7BEF5E";
paths = (
{
closed = 1;
nodes = (
"1124.597 434 OFFCURVE",
"1157 435.561 OFFCURVE",
"1157 476 CURVE SMOOTH",
"1157 501.333 OFFCURVE",
"1141 518 OFFCURVE",
"1101 518 CURVE SMOOTH",
"697 519 LINE SMOOTH",
"657 519 OFFCURVE",
"641 501.333 OFFCURVE",
"641 476 CURVE SMOOTH",
"641 450.667 OFFCURVE",
"657 434 OFFCURVE",
"697 434 CURVE SMOOTH",
"986 434 LINE",
"986 123 LINE",
"870 69.667 OFFCURVE",
"794.333 51 OFFCURVE",
"693 51 CURVE SMOOTH",
"393 51 OFFCURVE",
"212 227.333 OFFCURVE",
"212 506 CURVE SMOOTH",
"212 659 LINE SMOOTH",
"212 737.667 OFFCURVE",
"230 808 OFFCURVE",
"266 870 CURVE SMOOTH",
"374 1059.333 OFFCURVE",
"495.333 1113 OFFCURVE",
"650 1113 CURVE SMOOTH",
"814 1113 OFFCURVE",
"980 1033.333 OFFCURVE",
"988 920 CURVE",
"989.333 881.333 OFFCURVE",
"1006.333 868 OFFCURVE",
"1029 868 CURVE SMOOTH",
"1053 868 OFFCURVE",
"1071 882.667 OFFCURVE",
"1071 924 CURVE SMOOTH",
"1071 1114 LINE SMOOTH",
"1071 1154 OFFCURVE",
"1053 1170 OFFCURVE",
"1029 1170 CURVE SMOOTH",
"987.1 1170 OFFCURVE",
"986 1139.88 OFFCURVE",
"986 1086 CURVE",
"892.667 1160 OFFCURVE",
"778.333 1197 OFFCURVE",
"643 1197 CURVE SMOOTH",
"456.333 1197 OFFCURVE",
"287.833 1102.5 OFFCURVE",
"196.5 928.5 CURVE SMOOTH",
"150.833 841.5 OFFCURVE",
"128 752 OFFCURVE",
"128 660 CURVE SMOOTH",
"128 506 LINE SMOOTH",
"128 323.333 OFFCURVE",
"183.333 215 OFFCURVE",
"278 119 CURVE SMOOTH",
"372.667 23 OFFCURVE",
"509 -33 OFFCURVE",
"689 -33 CURVE SMOOTH",
"815.667 -33 OFFCURVE",
"943 3.333 OFFCURVE",
"1071 74 CURVE",
"1071 434 LINE"
);
}
);
userData = {
assembly = "NPUSHB[ ]\011/* 56 values pushed */
140 32 154 32 2 47 16 63 16 79 16 3 73 12 70 36 86 11 93 12 86 36 166 11 166 36 188 6 186 12 9 4 35 23 35 38 12 39 35 38 36 54 36 6 54 0 57 144 0 57 57 0 29 54 53 47 
PUSHW[ ]\011/* 1 value pushed */
676 
NPUSHB[ ]\011/* 51 values pushed */
15 50 1 50 54 46 50 50 47 46 29 53 10 8 31 39 16 45 19 1 30 23 24 62 0 1 45 54 42 31 29 16 3 33 27 60 38 54 47 38 54 102 53 53 4 19 33 37 14 3 27 
PUSHW[ ]\011/* 1 value pushed */
361 
NPUSHB[ ]\011/* 32 values pushed */
20 20 19 2 42 37 4 9 30 102 46 46 45 30 1 1 0 26 62 39 38 15 8 31 8 2 8 25 61 135 111 24 
PUSHW[ ]\011/* 1 value pushed */
300 
SCANCTRL[ ]\011/* ScanConversionControl */
CALL[ ]\011/* CallFunction */
FLIPOFF[ ]\011/* SetAutoFlipOff */
SRP0[ ]\011/* SetRefPoint0 */
MIRP[10100]\011/* MoveIndirectRelPt */
DELTAP1[ ]\011/* DeltaExceptionP1 */
FLIPON[ ]\011/* SetAutoFlipOn */
MIRP[01101]\011/* MoveIndirectRelPt */
FLIPOFF[ ]\011/* SetAutoFlipOff */
SRP0[ ]\011/* SetRefPoint0 */
MIRP[10110]\011/* MoveIndirectRelPt */
ALIGNRP[ ]\011/* AlignRelativePt */
FLIPON[ ]\011/* SetAutoFlipOn */
SRP0[ ]\011/* SetRefPoint0 */
MIRP[11101]\011/* MoveIndirectRelPt */
ALIGNRP[ ]\011/* AlignRelativePt */
SRP0[ ]\011/* SetRefPoint0 */
MIRP[00100]\011/* MoveIndirectRelPt */
SVTCA[0]\011/* SetFreedomAndProjectionVectorToAxis */
MIAP[1]\011/* MoveIndirectAbsPt */
MIRP[01101]\011/* MoveIndirectRelPt */
MIAP[1]\011/* MoveIndirectAbsPt */
ALIGNRP[ ]\011/* AlignRelativePt */
SRP0[ ]\011/* SetRefPoint0 */
MIRP[01101]\011/* MoveIndirectRelPt */
MIAP[1]\011/* MoveIndirectAbsPt */
MIRP[01101]\011/* MoveIndirectRelPt */
SRP1[ ]\011/* SetRefPoint1 */
SRP2[ ]\011/* SetRefPoint2 */
IP[ ]\011/* InterpolatePts */
MDAP[1]\011/* MoveDirectAbsPt */
MIRP[00100]\011/* MoveIndirectRelPt */
MIRP[01101]\011/* MoveIndirectRelPt */
SRP0[ ]\011/* SetRefPoint0 */
MIRP[01101]\011/* MoveIndirectRelPt */
SRP1[ ]\011/* SetRefPoint1 */
SRP2[ ]\011/* SetRefPoint2 */
SLOOP[ ]\011/* SetLoopVariable */
IP[ ]\011/* InterpolatePts */
SRP1[ ]\011/* SetRefPoint1 */
SRP2[ ]\011/* SetRefPoint2 */
IP[ ]\011/* InterpolatePts */
IP[ ]\011/* InterpolatePts */
SVTCA[1]\011/* SetFreedomAndProjectionVectorToAxis */
SRP1[ ]\011/* SetRefPoint1 */
SRP2[ ]\011/* SetRefPoint2 */
IP[ ]\011/* InterpolatePts */
IP[ ]\011/* InterpolatePts */
SRP1[ ]\011/* SetRefPoint1 */
SRP2[ ]\011/* SetRefPoint2 */
IP[ ]\011/* InterpolatePts */
SRP2[ ]\011/* SetRefPoint2 */
IP[ ]\011/* InterpolatePts */
SRP1[ ]\011/* SetRefPoint1 */
IP[ ]\011/* InterpolatePts */
SRP2[ ]\011/* SetRefPoint2 */
IP[ ]\011/* InterpolatePts */
SVTCA[0]\011/* SetFreedomAndProjectionVectorToAxis */
SRP0[ ]\011/* SetRefPoint0 */
MIRP[11101]\011/* MoveIndirectRelPt */
RTDG[ ]\011/* RoundToDoubleGrid */
SRP2[ ]\011/* SetRefPoint2 */
IP[ ]\011/* InterpolatePts */
MDAP[1]\011/* MoveDirectAbsPt */
RTG[ ]\011/* RoundToGrid */
SVTCA[1]\011/* SetFreedomAndProjectionVectorToAxis */
SRP0[ ]\011/* SetRefPoint0 */
MIRP[10101]\011/* MoveIndirectRelPt */
DELTAP1[ ]\011/* DeltaExceptionP1 */
MIRP[10100]\011/* MoveIndirectRelPt */
MDRP[00100]\011/* MoveDirectRelPt */
SVTCA[0]\011/* SetFreedomAndProjectionVectorToAxis */
SRP0[ ]\011/* SetRefPoint0 */
MIRP[11101]\011/* MoveIndirectRelPt */
RTDG[ ]\011/* RoundToDoubleGrid */
IP[ ]\011/* InterpolatePts */
MDAP[1]\011/* MoveDirectAbsPt */
RTG[ ]\011/* RoundToGrid */
SVTCA[1]\011/* SetFreedomAndProjectionVectorToAxis */
SRP0[ ]\011/* SetRefPoint0 */
MIRP[10101]\011/* MoveIndirectRelPt */
SRP0[ ]\011/* SetRefPoint0 */
MDRP[00100]\011/* MoveDirectRelPt */
IUP[1]\011/* InterpolateUntPts */
IUP[0]\011/* InterpolateUntPts */
SVTCA[0]\011/* SetFreedomAndProjectionVectorToAxis */
MPPEM[ ]\011/* MeasurePixelPerEm */
PUSHB[ ]\011/* 1 value pushed */
11 
GTEQ[ ]\011/* GreaterThanOrEqual */
MPPEM[ ]\011/* MeasurePixelPerEm */
PUSHB[ ]\011/* 1 value pushed */
36 
LTEQ[ ]\011/* LessThenOrEqual */
AND[ ]\011/* LogicalAnd */
IF[ ]\011/* If */
NPUSHW[ ]\011/* 10 values pushed */
16 -20 5 -12 44 -22 41 -22 40 -22 
PUSHB[ ]\011/* 6 values pushed */
36 22 34 22 35 22 
SHPIX[ ]\011/* ShiftZoneByPixel */
SHPIX[ ]\011/* ShiftZoneByPixel */
SHPIX[ ]\011/* ShiftZoneByPixel */
SHPIX[ ]\011/* ShiftZoneByPixel */
SHPIX[ ]\011/* ShiftZoneByPixel */
SHPIX[ ]\011/* ShiftZoneByPixel */
SHPIX[ ]\011/* ShiftZoneByPixel */
SHPIX[ ]\011/* ShiftZoneByPixel */
EIF[ ]\011/* EndIf */
SVTCA[1]\011/* SetFreedomAndProjectionVectorToAxis */
DELTAP2[ ]\011/* DeltaExceptionP2 */
DELTAP1[ ]\011/* DeltaExceptionP1 */
SVTCA[0]\011/* SetFreedomAndProjectionVectorToAxis */
DELTAP1[ ]\011/* DeltaExceptionP1 */
DELTAP2[ ]\011/* DeltaExceptionP2 */";
};
width = 1229;
}
);
note = G;
unicode = 0047;
},
{
glyphname = H;
lastChange = "2018-11-25 06:09:51 +0000";
layers = (
{
layerId = "43C596A3-827A-4C98-B0F6-D1945E7BEF5E";
paths = (
{
closed = 1;
nodes = (
"899 84 LINE",
"787 84 LINE SMOOTH",
"745.667 84 OFFCURVE",
"731 67.333 OFFCURVE",
"731 42 CURVE SMOOTH",
"731 18 OFFCURVE",
"747 0 OFFCURVE",
"787 0 CURVE SMOOTH",
"1079 0 LINE SMOOTH",
"1119 0 OFFCURVE",
"1135 18 OFFCURVE",
"1135 42 CURVE SMOOTH",
"1135 67.333 OFFCURVE",
"1119 84 OFFCURVE",
"1079 84 CURVE SMOOTH",
"984 84 LINE",
"984 1086 LINE",
"1036 1086 LINE SMOOTH",
"1077.333 1086 OFFCURVE",
"1093 1102.667 OFFCURVE",
"1093 1128 CURVE SMOOTH",
"1093 1153.333 OFFCURVE",
"1077.333 1170 OFFCURVE",
"1036 1170 CURVE SMOOTH",
"787 1170 LINE SMOOTH",
"745.667 1170 OFFCURVE",
"731 1153.333 OFFCURVE",
"731 1128 CURVE SMOOTH",
"731 1102.667 OFFCURVE",
"747 1086 OFFCURVE",
"787 1086 CURVE SMOOTH",
"899 1086 LINE",
"899 650 LINE",
"342 650 LINE",
"342 1086 LINE",
"455 1086 LINE SMOOTH",
"495 1086 OFFCURVE",
"511 1102.667 OFFCURVE",
"511 1128 CURVE SMOOTH",
"511 1153.333 OFFCURVE",
"495 1170 OFFCURVE",
"455 1170 CURVE SMOOTH",
"206 1170 LINE SMOOTH",
"164.667 1170 OFFCURVE",
"149 1153.333 OFFCURVE",
"149 1128 CURVE SMOOTH",
"149 1102.667 OFFCURVE",
"164.667 1086 OFFCURVE",
"206 1086 CURVE SMOOTH",
"258 1086 LINE",
"258 84 LINE",
"163 84 LINE SMOOTH",
"123 84 OFFCURVE",
"107 67.333 OFFCURVE",
"107 42 CURVE SMOOTH",
"107 18 OFFCURVE",
"123 0 OFFCURVE",
"163 0 CURVE SMOOTH",
"455 0 LINE SMOOTH",
"495 0 OFFCURVE",
"511 18 OFFCURVE",
"511 42 CURVE SMOOTH",
"511 67.333 OFFCURVE",
"495 84 OFFCURVE",
"455 84 CURVE SMOOTH",
"342 84 LINE",
"342 566 LINE",
"899 566 LINE"
);
}
);
userData = {
assembly = "NPUSHB[ ]\011/* 12 values pushed */
18 161 22 174 47 179 22 191 47 4 10 16 
PUSHW[ ]\011/* 1 value pushed */
676 
NPUSHB[ ]\011/* 11 values pushed */
13 43 17 13 13 16 17 29 10 26 32 
PUSHW[ ]\011/* 1 value pushed */
676 
NPUSHB[ ]\011/* 14 values pushed */
16 29 1 29 43 33 29 29 32 33 29 26 44 50 
PUSHW[ ]\011/* 1 value pushed */
676 
NPUSHB[ ]\011/* 14 values pushed */
0 47 1 47 41 51 47 47 50 51 29 44 60 66 
PUSHW[ ]\011/* 1 value pushed */
676 
NPUSHB[ ]\011/* 16 values pushed */
15 63 31 63 2 63 43 67 63 63 66 67 29 60 9 3 
PUSHW[ ]\011/* 1 value pushed */
676 
NPUSHB[ ]\011/* 11 values pushed */
6 43 2 6 6 3 2 29 9 25 19 
PUSHW[ ]\011/* 1 value pushed */
676 
NPUSHB[ ]\011/* 11 values pushed */
22 41 18 22 22 19 18 29 25 43 37 
PUSHW[ ]\011/* 1 value pushed */
676 
NPUSHB[ ]\011/* 14 values pushed */
15 40 1 40 43 36 40 40 37 36 29 43 59 53 
PUSHW[ ]\011/* 1 value pushed */
676 
NPUSHB[ ]\011/* 67 values pushed */
0 56 1 56 43 52 56 56 53 52 29 59 35 34 30 0 1 1 9 25 50 38 44 44 43 32 38 26 37 38 43 43 26 19 38 26 25 2 60 59 59 10 10 9 8 51 30 36 52 30 36 67 64 28 31 52 159 67 175 67 2 143 67 223 67 2 67 
PUSHW[ ]\011/* 1 value pushed */
699 
NPUSHB[ ]\011/* 27 values pushed */
69 18 30 33 33 17 30 48 2 64 2 144 2 3 79 2 208 2 2 15 2 95 2 111 2 3 2 
PUSHW[ ]\011/* 5 values pushed */
699 68 74 470 24 
CALL[ ]\011/* CallFunction */
SRP0[ ]\011/* SetRefPoint0 */
MIRP[10100]\011/* MoveIndirectRelPt */
DELTAP1[ ]\011/* DeltaExceptionP1 */
DELTAP1[ ]\011/* DeltaExceptionP1 */
DELTAP2[ ]\011/* DeltaExceptionP2 */
MIRP[01101]\011/* MoveIndirectRelPt */
ALIGNRP[ ]\011/* AlignRelativePt */
SRP0[ ]\011/* SetRefPoint0 */
MIRP[01101]\011/* MoveIndirectRelPt */
SRP0[ ]\011/* SetRefPoint0 */
MIRP[10100]\011/* MoveIndirectRelPt */
DELTAP1[ ]\011/* DeltaExceptionP1 */
DELTAP2[ ]\011/* DeltaExceptionP2 */
CALL[ ]\011/* CallFunction */
ALIGNRP[ ]\011/* AlignRelativePt */
MIRP[01101]\011/* MoveIndirectRelPt */
SRP0[ ]\011/* SetRefPoint0 */
MIRP[01101]\011/* MoveIndirectRelPt */
SVTCA[0]\011/* SetFreedomAndProjectionVectorToAxis */
MIAP[1]\011/* MoveIndirectAbsPt */
ALIGNRP[ ]\011/* AlignRelativePt */
SRP0[ ]\011/* SetRefPoint0 */
ALIGNRP[ ]\011/* AlignRelativePt */
SRP0[ ]\011/* SetRefPoint0 */
ALIGNRP[ ]\011/* AlignRelativePt */
MIAP[1]\011/* MoveIndirectAbsPt */
ALIGNRP[ ]\011/* AlignRelativePt */
MIRP[01101]\011/* MoveIndirectRelPt */
SRP0[ ]\011/* SetRefPoint0 */
ALIGNRP[ ]\011/* AlignRelativePt */
SRP0[ ]\011/* SetRefPoint0 */
MIRP[01101]\011/* MoveIndirectRelPt */
SRP0[ ]\011/* SetRefPoint0 */
MIRP[01101]\011/* MoveIndirectRelPt */
SRP0[ ]\011/* SetRefPoint0 */
ALIGNRP[ ]\011/* AlignRelativePt */
SRP0[ ]\011/* SetRefPoint0 */
MIRP[01101]\011/* MoveIndirectRelPt */
SRP1[ ]\011/* SetRefPoint1 */
SRP2[ ]\011/* SetRefPoint2 */
IP[ ]\011/* InterpolatePts */
MDAP[1]\011/* MoveDirectAbsPt */
ALIGNRP[ ]\011/* AlignRelativePt */
MIRP[11101]\011/* MoveIndirectRelPt */
ALIGNRP[ ]\011/* AlignRelativePt */
SRP0[ ]\011/* SetRefPoint0 */
MIRP[11101]\011/* MoveIndirectRelPt */
RTDG[ ]\011/* RoundToDoubleGrid */
SRP2[ ]\011/* SetRefPoint2 */
IP[ ]\011/* InterpolatePts */
MDAP[1]\011/* MoveDirectAbsPt */
RTG[ ]\011/* RoundToGrid */
SVTCA[1]\011/* SetFreedomAndProjectionVectorToAxis */
SRP0[ ]\011/* SetRefPoint0 */
MIRP[10101]\011/* MoveIndirectRelPt */
DELTAP1[ ]\011/* DeltaExceptionP1 */
MIRP[10100]\011/* MoveIndirectRelPt */
MDRP[00100]\011/* MoveDirectRelPt */
SVTCA[0]\011/* SetFreedomAndProjectionVectorToAxis */
SRP0[ ]\011/* SetRefPoint0 */
MIRP[11101]\011/* MoveIndirectRelPt */
RTDG[ ]\011/* RoundToDoubleGrid */
SRP2[ ]\011/* SetRefPoint2 */
IP[ ]\011/* InterpolatePts */
MDAP[1]\011/* MoveDirectAbsPt */
RTG[ ]\011/* RoundToGrid */
SVTCA[1]\011/* SetFreedomAndProjectionVectorToAxis */
SRP0[ ]\011/* SetRefPoint0 */
MIRP[10101]\011/* MoveIndirectRelPt */
DELTAP1[ ]\011/* DeltaExceptionP1 */
MIRP[10100]\011/* MoveIndirectRelPt */
MDRP[00100]\011/* MoveDirectRelPt */
SVTCA[0]\011/* SetFreedomAndProjectionVectorToAxis */
SRP0[ ]\011/* SetRefPoint0 */
MIRP[11101]\011/* MoveIndirectRelPt */
RTDG[ ]\011/* RoundToDoubleGrid */
SRP2[ ]\011/* SetRefPoint2 */
IP[ ]\011/* InterpolatePts */
MDAP[1]\011/* MoveDirectAbsPt */
RTG[ ]\011/* RoundToGrid */
SVTCA[1]\011/* SetFreedomAndProjectionVectorToAxis */
SRP0[ ]\011/* SetRefPoint0 */
MIRP[10101]\011/* MoveIndirectRelPt */
MIRP[10100]\011/* MoveIndirectRelPt */
MDRP[00100]\011/* MoveDirectRelPt */
SVTCA[0]\011/* SetFreedomAndProjectionVectorToAxis */
SRP0[ ]\011/* SetRefPoint0 */
MIRP[11101]\011/* MoveIndirectRelPt */
RTDG[ ]\011/* RoundToDoubleGrid */
SRP2[ ]\011/* SetRefPoint2 */
IP[ ]\011/* InterpolatePts */
MDAP[1]\011/* MoveDirectAbsPt */
RTG[ ]\011/* RoundToGrid */
SVTCA[1]\011/* SetFreedomAndProjectionVectorToAxis */
SRP0[ ]\011/* SetRefPoint0 */
MIRP[10101]\011/* MoveIndirectRelPt */
MIRP[10100]\011/* MoveIndirectRelPt */
MDRP[00100]\011/* MoveDirectRelPt */
SVTCA[0]\011/* SetFreedomAndProjectionVectorToAxis */
SRP0[ ]\011/* SetRefPoint0 */
MIRP[11101]\011/* MoveIndirectRelPt */
RTDG[ ]\011/* RoundToDoubleGrid */
SRP2[ ]\011/* SetRefPoint2 */
IP[ ]\011/* InterpolatePts */
MDAP[1]\011/* MoveDirectAbsPt */
RTG[ ]\011/* RoundToGrid */
SVTCA[1]\011/* SetFreedomAndProjectionVectorToAxis */
SRP0[ ]\011/* SetRefPoint0 */
MIRP[10101]\011/* MoveIndirectRelPt */
DELTAP1[ ]\011/* DeltaExceptionP1 */
MIRP[10100]\011/* MoveIndirectRelPt */
MDRP[00100]\011/* MoveDirectRelPt */
SVTCA[0]\011/* SetFreedomAndProjectionVectorToAxis */
SRP0[ ]\011/* SetRefPoint0 */
MIRP[11101]\011/* MoveIndirectRelPt */
RTDG[ ]\011/* RoundToDoubleGrid */
SRP2[ ]\011/* SetRefPoint2 */
IP[ ]\011/* InterpolatePts */
MDAP[1]\011/* MoveDirectAbsPt */
RTG[ ]\011/* RoundToGrid */
SVTCA[1]\011/* SetFreedomAndProjectionVectorToAxis */
SRP0[ ]\011/* SetRefPoint0 */
MIRP[10101]\011/* MoveIndirectRelPt */
DELTAP1[ ]\011/* DeltaExceptionP1 */
MIRP[10100]\011/* MoveIndirectRelPt */
MDRP[00100]\011/* MoveDirectRelPt */
SVTCA[0]\011/* SetFreedomAndProjectionVectorToAxis */
SRP0[ ]\011/* SetRefPoint0 */
MIRP[11101]\011/* MoveIndirectRelPt */
RTDG[ ]\011/* RoundToDoubleGrid */
SRP2[ ]\011/* SetRefPoint2 */
IP[ ]\011/* InterpolatePts */
MDAP[1]\011/* MoveDirectAbsPt */
RTG[ ]\011/* RoundToGrid */
SVTCA[1]\011/* SetFreedomAndProjectionVectorToAxis */
SRP0[ ]\011/* SetRefPoint0 */
MIRP[10101]\011/* MoveIndirectRelPt */
DELTAP1[ ]\011/* DeltaExceptionP1 */
MIRP[10100]\011/* MoveIndirectRelPt */
MDRP[00100]\011/* MoveDirectRelPt */
SVTCA[0]\011/* SetFreedomAndProjectionVectorToAxis */
SRP0[ ]\011/* SetRefPoint0 */
MIRP[11101]\011/* MoveIndirectRelPt */
RTDG[ ]\011/* RoundToDoubleGrid */
SRP2[ ]\011/* SetRefPoint2 */
IP[ ]\011/* InterpolatePts */
MDAP[1]\011/* MoveDirectAbsPt */
RTG[ ]\011/* RoundToGrid */
SVTCA[1]\011/* SetFreedomAndProjectionVectorToAxis */
SRP0[ ]\011/* SetRefPoint0 */
MIRP[10101]\011/* MoveIndirectRelPt */
MIRP[10100]\011/* MoveIndirectRelPt */
MDRP[00100]\011/* MoveDirectRelPt */
IUP[1]\011/* InterpolateUntPts */
IUP[0]\011/* InterpolateUntPts */
SVTCA[1]\011/* SetFreedomAndProjectionVectorToAxis */
DELTAP1[ ]\011/* DeltaExceptionP1 */
SVTCA[1]\011/* SetFreedomAndProjectionVectorToAxis */
RS[ ]\011/* ReadStore */
NOT[ ]\011/* LogicalNot */
IF[ ]\011/* If */
PUSHW[ ]\011/* 2 values pushed */
47 -64 
NPUSHB[ ]\011/* 9 values pushed */
15 20 63 22 64 15 20 63 47 
PUSHW[ ]\011/* 1 value pushed */
-64 
PUSHB[ ]\011/* 8 values pushed */
14 19 63 22 64 14 19 63 
CALL[ ]\011/* CallFunction */
CALL[ ]\011/* CallFunction */
CALL[ ]\011/* CallFunction */
CALL[ ]\011/* CallFunction */
EIF[ ]\011/* EndIf */";
};
width = 1229;
}
);
note = H;
unicode = 0048;
},
{
glyphname = I;
lastChange = "2018-11-25 06:09:51 +0000";
layers = (
{
layerId = "43C596A3-827A-4C98-B0F6-D1945E7BEF5E";
paths = (
{
closed = 1;
nodes = (
"945 1086 LINE SMOOTH",
"985 1086 OFFCURVE",
"1001 1102.667 OFFCURVE",
"1001 1128 CURVE SMOOTH",
"1001 1153.333 OFFCURVE",
"985 1170 OFFCURVE",
"945 1170 CURVE SMOOTH",
"285 1170 LINE SMOOTH",
"245 1170 OFFCURVE",
"229 1153.333 OFFCURVE",
"229 1128 CURVE SMOOTH",
"229 1102.667 OFFCURVE",
"245 1086 OFFCURVE",
"285 1086 CURVE SMOOTH",
"573 1086 LINE",
"573 84 LINE",
"285 84 LINE SMOOTH",
"245 84 OFFCURVE",
"229 67.333 OFFCURVE",
"229 42 CURVE SMOOTH",
"229 18 OFFCURVE",
"245 0 OFFCURVE",
"285 0 CURVE SMOOTH",
"945 0 LINE SMOOTH",
"985 0 OFFCURVE",
"1001 18 OFFCURVE",
"1001 42 CURVE SMOOTH",
"1001 67.333 OFFCURVE",
"985 84 OFFCURVE",
"945 84 CURVE SMOOTH",
"657 84 LINE",
"657 1086 LINE"
);
}
);
userData = {
assembly = "NPUSHB[ ]\011/* 45 values pushed */
47 4 46 5 35 12 32 13 32 20 32 21 47 28 47 30 62 5 51 12 48 20 48 21 63 28 63 30 78 5 67 12 64 20 64 21 75 28 79 29 79 30 21 9 15 
PUSHW[ ]\011/* 1 value pushed */
676 
NPUSHB[ ]\011/* 11 values pushed */
12 54 16 12 12 15 16 29 9 25 31 
PUSHW[ ]\011/* 1 value pushed */
676 
NPUSHB[ ]\011/* 11 values pushed */
28 54 0 28 28 31 0 29 25 8 2 
PUSHW[ ]\011/* 1 value pushed */
676 
NPUSHB[ ]\011/* 11 values pushed */
5 54 1 5 5 2 1 29 8 24 18 
PUSHW[ ]\011/* 1 value pushed */
676 
NPUSHB[ ]\011/* 39 values pushed */
21 54 17 21 21 18 17 29 24 31 38 25 18 38 25 24 2 2 38 8 15 38 9 9 8 8 0 1 30 17 79 16 1 16 25 32 140 223 24 
CALL[ ]\011/* CallFunction */
FLIPOFF[ ]\011/* SetAutoFlipOff */
SRP0[ ]\011/* SetRefPoint0 */
MIRP[10100]\011/* MoveIndirectRelPt */
DELTAP1[ ]\011/* DeltaExceptionP1 */
ALIGNRP[ ]\011/* AlignRelativePt */
FLIPON[ ]\011/* SetAutoFlipOn */
MIRP[11101]\011/* MoveIndirectRelPt */
ALIGNRP[ ]\011/* AlignRelativePt */
SVTCA[0]\011/* SetFreedomAndProjectionVectorToAxis */
MIAP[1]\011/* MoveIndirectAbsPt */
ALIGNRP[ ]\011/* AlignRelativePt */
SRP0[ ]\011/* SetRefPoint0 */
MIRP[01101]\011/* MoveIndirectRelPt */
SRP0[ ]\011/* SetRefPoint0 */
MIRP[01101]\011/* MoveIndirectRelPt */
MIAP[1]\011/* MoveIndirectAbsPt */
ALIGNRP[ ]\011/* AlignRelativePt */
MIRP[01101]\011/* MoveIndirectRelPt */
SRP0[ ]\011/* SetRefPoint0 */
MIRP[01101]\011/* MoveIndirectRelPt */
SRP0[ ]\011/* SetRefPoint0 */
MIRP[11101]\011/* MoveIndirectRelPt */
RTDG[ ]\011/* RoundToDoubleGrid */
SRP2[ ]\011/* SetRefPoint2 */
IP[ ]\011/* InterpolatePts */
MDAP[1]\011/* MoveDirectAbsPt */
RTG[ ]\011/* RoundToGrid */
SVTCA[1]\011/* SetFreedomAndProjectionVectorToAxis */
SRP0[ ]\011/* SetRefPoint0 */
MIRP[10101]\011/* MoveIndirectRelPt */
MIRP[10100]\011/* MoveIndirectRelPt */
MDRP[00100]\011/* MoveDirectRelPt */
SVTCA[0]\011/* SetFreedomAndProjectionVectorToAxis */
SRP0[ ]\011/* SetRefPoint0 */
MIRP[11101]\011/* MoveIndirectRelPt */
RTDG[ ]\011/* RoundToDoubleGrid */
SRP2[ ]\011/* SetRefPoint2 */
IP[ ]\011/* InterpolatePts */
MDAP[1]\011/* MoveDirectAbsPt */
RTG[ ]\011/* RoundToGrid */
SVTCA[1]\011/* SetFreedomAndProjectionVectorToAxis */
SRP0[ ]\011/* SetRefPoint0 */
MIRP[10101]\011/* MoveIndirectRelPt */
MIRP[10100]\011/* MoveIndirectRelPt */
MDRP[00100]\011/* MoveDirectRelPt */
SVTCA[0]\011/* SetFreedomAndProjectionVectorToAxis */
SRP0[ ]\011/* SetRefPoint0 */
MIRP[11101]\011/* MoveIndirectRelPt */
RTDG[ ]\011/* RoundToDoubleGrid */
SRP2[ ]\011/* SetRefPoint2 */
IP[ ]\011/* InterpolatePts */
MDAP[1]\011/* MoveDirectAbsPt */
RTG[ ]\011/* RoundToGrid */
SVTCA[1]\011/* SetFreedomAndProjectionVectorToAxis */
SRP0[ ]\011/* SetRefPoint0 */
MIRP[10101]\011/* MoveIndirectRelPt */
MIRP[10100]\011/* MoveIndirectRelPt */
MDRP[00100]\011/* MoveDirectRelPt */
SVTCA[0]\011/* SetFreedomAndProjectionVectorToAxis */
SRP0[ ]\011/* SetRefPoint0 */
MIRP[11101]\011/* MoveIndirectRelPt */
RTDG[ ]\011/* RoundToDoubleGrid */
SRP2[ ]\011/* SetRefPoint2 */
IP[ ]\011/* InterpolatePts */
MDAP[1]\011/* MoveDirectAbsPt */
RTG[ ]\011/* RoundToGrid */
SVTCA[1]\011/* SetFreedomAndProjectionVectorToAxis */
SRP0[ ]\011/* SetRefPoint0 */
MIRP[10101]\011/* MoveIndirectRelPt */
MIRP[10100]\011/* MoveIndirectRelPt */
MDRP[00100]\011/* MoveDirectRelPt */
IUP[1]\011/* InterpolateUntPts */
IUP[0]\011/* InterpolateUntPts */
SVTCA[1]\011/* SetFreedomAndProjectionVectorToAxis */
DELTAP1[ ]\011/* DeltaExceptionP1 */";
};
width = 1229;
}
);
note = I;
unicode = 0049;
},
{
glyphname = J;
lastChange = "2018-11-25 06:09:51 +0000";
layers = (
{
layerId = "43C596A3-827A-4C98-B0F6-D1945E7BEF5E";
paths = (
{
closed = 1;
nodes = (
"1143 1086 LINE SMOOTH",
"1183 1086 OFFCURVE",
"1199 1102.667 OFFCURVE",
"1199 1128 CURVE SMOOTH",
"1199 1153.333 OFFCURVE",
"1183 1170 OFFCURVE",
"1143 1170 CURVE SMOOTH",
"529 1170 LINE SMOOTH",
"487.667 1170 OFFCURVE",
"472 1153.333 OFFCURVE",
"472 1128 CURVE SMOOTH",
"472 1102.667 OFFCURVE",
"487.667 1086 OFFCURVE",
"529 1086 CURVE SMOOTH",
"858 1086 LINE",
"858 344 LINE SMOOTH",
"858 236 OFFCURVE",
"785.333 131 OFFCURVE",
"712 91 CURVE SMOOTH",
"663.333 64.333 OFFCURVE",
"611.667 51 OFFCURVE",
"557 51 CURVE SMOOTH",
"458.333 51 OFFCURVE",
"357.667 98.333 OFFCURVE",
"255 193 CURVE",
"256 463 LINE SMOOTH",
"256 503 OFFCURVE",
"238.333 519 OFFCURVE",
"213 519 CURVE SMOOTH",
"189 519 OFFCURVE",
"171 503 OFFCURVE",
"171 463 CURVE SMOOTH",
"171 153 LINE",
"315 21 OFFCURVE",
"430.333 -33 OFFCURVE",
"557 -33 CURVE SMOOTH",
"767.667 -33 OFFCURVE",
"943 140 OFFCURVE",
"943 344 CURVE SMOOTH",
"943 1086 LINE"
);
}
);
userData = {
assembly = "NPUSHB[ ]\011/* 124 values pushed */
126 3 127 19 122 20 137 2 140 3 143 19 138 20 248 22 8 9 2 11 20 11 21 3 154 2 157 7 170 7 231 16 229 20 229 22 6 4 16 102 16 182 16 182 20 4 50 8 38 32 35 53 0 0 29 32 25 31 28 219 24 24 29 31 7 15 18 11 11 4 32 31 2 18 37 4 9 24 23 30 1 1 0 64 13 17 63 0 64 12 16 63 224 0 1 128 0 1 0 26 40 15 102 14 30 8 8 7 64 13 17 63 7 64 12 16 63 128 7 1 7 25 39 157 
PUSHW[ ]\011/* 2 values pushed */
469 24 
CALL[ ]\011/* CallFunction */
FLIPOFF[ ]\011/* SetAutoFlipOff */
SRP0[ ]\011/* SetRefPoint0 */
MIRP[10100]\011/* MoveIndirectRelPt */
DELTAP1[ ]\011/* DeltaExceptionP1 */
SVTCA[1]\011/* SetFreedomAndProjectionVectorToAxis */
CALL[ ]\011/* CallFunction */
CALL[ ]\011/* CallFunction */
ALIGNRP[ ]\011/* AlignRelativePt */
FLIPON[ ]\011/* SetAutoFlipOn */
SRP0[ ]\011/* SetRefPoint0 */
MIRP[11101]\011/* MoveIndirectRelPt */
MIRP[00100]\011/* MoveIndirectRelPt */
FLIPOFF[ ]\011/* SetAutoFlipOff */
SRP0[ ]\011/* SetRefPoint0 */
MIRP[10110]\011/* MoveIndirectRelPt */
DELTAP1[ ]\011/* DeltaExceptionP1 */
DELTAP2[ ]\011/* DeltaExceptionP2 */
SVTCA[1]\011/* SetFreedomAndProjectionVectorToAxis */
CALL[ ]\011/* CallFunction */
CALL[ ]\011/* CallFunction */
ALIGNRP[ ]\011/* AlignRelativePt */
FLIPON[ ]\011/* SetAutoFlipOn */
SRP0[ ]\011/* SetRefPoint0 */
MIRP[11101]\011/* MoveIndirectRelPt */
ALIGNRP[ ]\011/* AlignRelativePt */
SVTCA[0]\011/* SetFreedomAndProjectionVectorToAxis */
MIAP[1]\011/* MoveIndirectAbsPt */
MIRP[01101]\011/* MoveIndirectRelPt */
MIAP[1]\011/* MoveIndirectAbsPt */
ALIGNRP[ ]\011/* AlignRelativePt */
SRP2[ ]\011/* SetRefPoint2 */
IP[ ]\011/* InterpolatePts */
MDAP[1]\011/* MoveDirectAbsPt */
SRP2[ ]\011/* SetRefPoint2 */
IP[ ]\011/* InterpolatePts */
IP[ ]\011/* InterpolatePts */
SRP0[ ]\011/* SetRefPoint0 */
MIRP[01101]\011/* MoveIndirectRelPt */
SVTCA[1]\011/* SetFreedomAndProjectionVectorToAxis */
SRP0[ ]\011/* SetRefPoint0 */
MIRP[10101]\011/* MoveIndirectRelPt */
MDRP[10100]\011/* MoveDirectRelPt */
ALIGNRP[ ]\011/* AlignRelativePt */
SVTCA[0]\011/* SetFreedomAndProjectionVectorToAxis */
SRP0[ ]\011/* SetRefPoint0 */
MIRP[01101]\011/* MoveIndirectRelPt */
SVTCA[1]\011/* SetFreedomAndProjectionVectorToAxis */
SRP0[ ]\011/* SetRefPoint0 */
MIRP[10101]\011/* MoveIndirectRelPt */
MDRP[10100]\011/* MoveDirectRelPt */
ALIGNRP[ ]\011/* AlignRelativePt */
IUP[1]\011/* InterpolateUntPts */
IUP[0]\011/* InterpolateUntPts */
RS[ ]\011/* ReadStore */
JROF[ ]\011/* JumpRelativeOnFalse */
NPUSHB[ ]\011/* 34 values pushed */
16 22 2 6 21 22 20 22 2 6 17 5 15 57 0 16 15 6 7 19 3 23 45 1 16 6 18 57 0 22 2 18 45 0 
SVTCA[0]\011/* SetFreedomAndProjectionVectorToAxis */
CALL[ ]\011/* CallFunction */
CALL[ ]\011/* CallFunction */
SVTCA[1]\011/* SetFreedomAndProjectionVectorToAxis */
CALL[ ]\011/* CallFunction */
SRP0[ ]\011/* SetRefPoint0 */
ALIGNRP[ ]\011/* AlignRelativePt */
SRP0[ ]\011/* SetRefPoint0 */
ALIGNRP[ ]\011/* AlignRelativePt */
CALL[ ]\011/* CallFunction */
LOOPCALL[ ]\011/* LoopAndCallFunction */
FLIPRGON[ ]\011/* FlipRangeOn */
FLIPRGON[ ]\011/* FlipRangeOn */
SVTCA[0]\011/* SetFreedomAndProjectionVectorToAxis */
DELTAP2[ ]\011/* DeltaExceptionP2 */
DELTAP1[ ]\011/* DeltaExceptionP1 */
SVTCA[1]\011/* SetFreedomAndProjectionVectorToAxis */
DELTAP2[ ]\011/* DeltaExceptionP2 */
DELTAP1[ ]\011/* DeltaExceptionP1 */";
};
width = 1229;
}
);
note = J;
unicode = 004A;
},
{
glyphname = K;
lastChange = "2018-11-25 06:09:51 +0000";
layers = (
{
layerId = "43C596A3-827A-4C98-B0F6-D1945E7BEF5E";
paths = (
{
closed = 1;
nodes = (
"511 610 LINE",
"601 582 OFFCURVE",
"676 533.5 OFFCURVE",
"736 464.5 CURVE SMOOTH",
"796 395.5 OFFCURVE",
"870 240.667 OFFCURVE",
"958 0 CURVE",
"1120 0 LINE SMOOTH",
"1161.333 0 OFFCURVE",
"1177 18 OFFCURVE",
"1177 42 CURVE SMOOTH",
"1177 67.333 OFFCURVE",
"1161.333 84 OFFCURVE",
"1120 84 CURVE SMOOTH",
"1015 84 LINE",
"951 244 OFFCURVE",
"907 345.667 OFFCURVE",
"883 389 CURVE SMOOTH",
"799 543.667 OFFCURVE",
"718.333 617 OFFCURVE",
"581 673 CURVE",
"1043 1086 LINE",
"1077 1086 LINE SMOOTH",
"1117 1086 OFFCURVE",
"1133 1102.667 OFFCURVE",
"1133 1128 CURVE SMOOTH",
"1133 1153.333 OFFCURVE",
"1117 1170 OFFCURVE",
"1077 1170 CURVE SMOOTH",
"830 1170 LINE SMOOTH",
"788.667 1170 OFFCURVE",
"773 1153.333 OFFCURVE",
"773 1128 CURVE SMOOTH",
"773 1102.667 OFFCURVE",
"788.667 1086 OFFCURVE",
"830 1086 CURVE SMOOTH",
"922 1086 LINE",
"342 569 LINE",
"342 1086 LINE",
"497 1086 LINE SMOOTH",
"538.333 1086 OFFCURVE",
"554 1102.667 OFFCURVE",
"554 1128 CURVE SMOOTH",
"554 1153.333 OFFCURVE",
"538.333 1170 OFFCURVE",
"497 1170 CURVE SMOOTH",
"145 1170 LINE SMOOTH",
"105 1170 OFFCURVE",
"89 1153.333 OFFCURVE",
"89 1128 CURVE SMOOTH",
"89 1102.667 OFFCURVE",
"105 1086 OFFCURVE",
"145 1086 CURVE SMOOTH",
"258 1086 LINE",
"258 84 LINE",
"145 84 LINE SMOOTH",
"105 84 OFFCURVE",
"89 67.333 OFFCURVE",
"89 42 CURVE SMOOTH",
"89 18 OFFCURVE",
"105 0 OFFCURVE",
"145 0 CURVE SMOOTH",
"497 0 LINE SMOOTH",
"538.333 0 OFFCURVE",
"554 18 OFFCURVE",
"554 42 CURVE SMOOTH",
"554 67.333 OFFCURVE",
"538.333 84 OFFCURVE",
"497 84 CURVE SMOOTH",
"342 84 LINE",
"342 458 LINE"
);
}
);
userData = {
assembly = "NPUSHB[ ]\011/* 93 values pushed */
24 45 24 54 26 65 36 51 53 51 55 54 71 33 91 65 103 33 108 65 119 33 124 65 138 64 138 65 153 64 155 65 175 65 187 65 203 51 19 15 0 54 51 69 51 87 52 4 15 34 43 54 70 52 65 53 86 49 196 63 195 64 192 65 8 27 34 27 49 105 34 105 49 148 52 175 45 169 54 232 34 249 45 249 54 10 50 66 0 0 49 9 15 
PUSHW[ ]\011/* 1 value pushed */
676 
NPUSHB[ ]\011/* 11 values pushed */
12 43 16 12 12 15 16 29 9 25 31 
PUSHW[ ]\011/* 1 value pushed */
676 
NPUSHB[ ]\011/* 14 values pushed */
0 28 1 28 51 32 28 28 31 32 29 25 42 48 
PUSHW[ ]\011/* 1 value pushed */
676 
NPUSHB[ ]\011/* 22 values pushed */
32 45 144 45 2 48 45 1 45 45 144 49 45 45 48 49 29 42 49 0 8 2 
PUSHW[ ]\011/* 1 value pushed */
676 
NPUSHB[ ]\011/* 14 values pushed */
0 5 1 5 51 1 5 5 2 1 29 8 24 18 
PUSHW[ ]\011/* 1 value pushed */
676 
NPUSHB[ ]\011/* 11 values pushed */
21 43 17 21 21 18 17 29 24 41 35 
PUSHW[ ]\011/* 1 value pushed */
676 
NPUSHB[ ]\011/* 80 values pushed */
38 15 38 31 38 48 38 3 38 43 34 38 38 35 34 29 41 34 33 65 52 64 54 4 63 66 34 49 0 18 0 30 33 34 20 33 33 34 0 33 49 34 4 32 1 48 38 42 35 38 42 41 41 25 49 34 34 32 31 38 25 25 18 38 24 2 56 55 38 62 63 63 8 8 16 38 64 9 8 0 
PUSHW[ ]\011/* 1 value pushed */
634 
PUSHB[ ]\011/* 5 values pushed */
33 33 24 9 50 
PUSHW[ ]\011/* 1 value pushed */
344 
PUSHB[ ]\011/* 8 values pushed */
32 66 66 49 0 66 38 50 
PUSHW[ ]\011/* 3 values pushed */
424 34 634 
NPUSHB[ ]\011/* 23 values pushed */
64 80 49 96 49 112 49 3 0 49 64 49 80 49 3 224 49 240 49 2 49 65 55 
PUSHW[ ]\011/* 4 values pushed */
344 32 63 310 
NPUSHB[ ]\011/* 17 values pushed */
68 33 32 0 1 30 17 0 16 1 240 16 1 16 25 67 74 
PUSHW[ ]\011/* 3 values pushed */
340 24 300 
SCANCTRL[ ]\011/* ScanConversionControl */
CALL[ ]\011/* CallFunction */
FLIPOFF[ ]\011/* SetAutoFlipOff */
SRP0[ ]\011/* SetRefPoint0 */
MIRP[10100]\011/* MoveIndirectRelPt */
DELTAP1[ ]\011/* DeltaExceptionP1 */
DELTAP2[ ]\011/* DeltaExceptionP2 */
ALIGNRP[ ]\011/* AlignRelativePt */
FLIPON[ ]\011/* SetAutoFlipOn */
MIRP[11101]\011/* MoveIndirectRelPt */
ALIGNRP[ ]\011/* AlignRelativePt */
ALIGNRP[ ]\011/* AlignRelativePt */
ALIGNRP[ ]\011/* AlignRelativePt */
RTHG[ ]\011/* RoundToHalfGrid */
SRP0[ ]\011/* SetRefPoint0 */
MIRP[10100]\011/* MoveIndirectRelPt */
SMD[ ]\011/* SetMinimumDistance */
MIRP[11101]\011/* MoveIndirectRelPt */
RTG[ ]\011/* RoundToGrid */
MIRP[10100]\011/* MoveIndirectRelPt */
DELTAP1[ ]\011/* DeltaExceptionP1 */
DELTAP2[ ]\011/* DeltaExceptionP2 */
DELTAP2[ ]\011/* DeltaExceptionP2 */
SMD[ ]\011/* SetMinimumDistance */
MIRP[01101]\011/* MoveIndirectRelPt */
MIRP[10100]\011/* MoveIndirectRelPt */
MIRP[01101]\011/* MoveIndirectRelPt */
SVTCA[0]\011/* SetFreedomAndProjectionVectorToAxis */
SRP1[ ]\011/* SetRefPoint1 */
SRP2[ ]\011/* SetRefPoint2 */
IP[ ]\011/* InterpolatePts */
MDAP[1]\011/* MoveDirectAbsPt */
SMD[ ]\011/* SetMinimumDistance */
RTHG[ ]\011/* RoundToHalfGrid */
MIRP[01101]\011/* MoveIndirectRelPt */
SRP1[ ]\011/* SetRefPoint1 */
SRP2[ ]\011/* SetRefPoint2 */
IP[ ]\011/* InterpolatePts */
MDAP[1]\011/* MoveDirectAbsPt */
MIRP[01101]\011/* MoveIndirectRelPt */
RTG[ ]\011/* RoundToGrid */
MIAP[1]\011/* MoveIndirectAbsPt */
SMD[ ]\011/* SetMinimumDistance */
MIRP[01101]\011/* MoveIndirectRelPt */
ALIGNRP[ ]\011/* AlignRelativePt */
SRP0[ ]\011/* SetRefPoint0 */
ALIGNRP[ ]\011/* AlignRelativePt */
SRP0[ ]\011/* SetRefPoint0 */
ALIGNRP[ ]\011/* AlignRelativePt */
MIRP[11101]\011/* MoveIndirectRelPt */
ALIGNRP[ ]\011/* AlignRelativePt */
MIAP[1]\011/* MoveIndirectAbsPt */
MIRP[01101]\011/* MoveIndirectRelPt */
ALIGNRP[ ]\011/* AlignRelativePt */
SRP0[ ]\011/* SetRefPoint0 */
MIRP[01101]\011/* MoveIndirectRelPt */
SRP0[ ]\011/* SetRefPoint0 */
ALIGNRP[ ]\011/* AlignRelativePt */
SRP0[ ]\011/* SetRefPoint0 */
ALIGNRP[ ]\011/* AlignRelativePt */
SRP0[ ]\011/* SetRefPoint0 */
ALIGNRP[ ]\011/* AlignRelativePt */
SRP0[ ]\011/* SetRefPoint0 */
ALIGNRP[ ]\011/* AlignRelativePt */
MIRP[01101]\011/* MoveIndirectRelPt */
SRP0[ ]\011/* SetRefPoint0 */
MIRP[01101]\011/* MoveIndirectRelPt */
SRP1[ ]\011/* SetRefPoint1 */
SRP2[ ]\011/* SetRefPoint2 */
SLOOP[ ]\011/* SetLoopVariable */
IP[ ]\011/* InterpolatePts */
SDPVTL[1]\011/* SetDualPVectorToLine */
MDAP[0]\011/* MoveDirectAbsPt */
CALL[ ]\011/* CallFunction */
RS[ ]\011/* ReadStore */
NOT[ ]\011/* LogicalNot */
IF[ ]\011/* If */
NPUSHB[ ]\011/* 25 values pushed */
0 64 30 60 63 0 64 28 55 63 0 64 25 50 63 0 64 23 45 63 0 64 20 40 63 
SVTCA[0]\011/* SetFreedomAndProjectionVectorToAxis */
CALL[ ]\011/* CallFunction */
CALL[ ]\011/* CallFunction */
CALL[ ]\011/* CallFunction */
CALL[ ]\011/* CallFunction */
CALL[ ]\011/* CallFunction */
EIF[ ]\011/* EndIf */
SDPVTL[1]\011/* SetDualPVectorToLine */
SFVTCA[1]\011/* SetFVectorToAxis */
RDTG[ ]\011/* RoundDownToGrid */
MDRP[00100]\011/* MoveDirectRelPt */
SVTCA[0]\011/* SetFreedomAndProjectionVectorToAxis */
SRP1[ ]\011/* SetRefPoint1 */
SRP2[ ]\011/* SetRefPoint2 */
SLOOP[ ]\011/* SetLoopVariable */
IP[ ]\011/* InterpolatePts */
RTG[ ]\011/* RoundToGrid */
SFVTL[0]\011/* SetFVectorToLine */
SRP0[ ]\011/* SetRefPoint0 */
MIRP[11101]\011/* MoveIndirectRelPt */
RTDG[ ]\011/* RoundToDoubleGrid */
SRP2[ ]\011/* SetRefPoint2 */
IP[ ]\011/* InterpolatePts */
MDAP[1]\011/* MoveDirectAbsPt */
RTG[ ]\011/* RoundToGrid */
SVTCA[1]\011/* SetFreedomAndProjectionVectorToAxis */
SRP0[ ]\011/* SetRefPoint0 */
MIRP[10001]\011/* MoveIndirectRelPt */
DELTAP1[ ]\011/* DeltaExceptionP1 */
MDAP[1]\011/* MoveDirectAbsPt */
MIRP[10100]\011/* MoveIndirectRelPt */
MDRP[00100]\011/* MoveDirectRelPt */
SVTCA[0]\011/* SetFreedomAndProjectionVectorToAxis */
SRP0[ ]\011/* SetRefPoint0 */
MIRP[11101]\011/* MoveIndirectRelPt */
RTDG[ ]\011/* RoundToDoubleGrid */
SRP2[ ]\011/* SetRefPoint2 */
IP[ ]\011/* InterpolatePts */
MDAP[1]\011/* MoveDirectAbsPt */
RTG[ ]\011/* RoundToGrid */
SVTCA[1]\011/* SetFreedomAndProjectionVectorToAxis */
SRP0[ ]\011/* SetRefPoint0 */
MIRP[10101]\011/* MoveIndirectRelPt */
MIRP[10100]\011/* MoveIndirectRelPt */
MDRP[00100]\011/* MoveDirectRelPt */
SVTCA[0]\011/* SetFreedomAndProjectionVectorToAxis */
SRP0[ ]\011/* SetRefPoint0 */
MIRP[11101]\011/* MoveIndirectRelPt */
RTDG[ ]\011/* RoundToDoubleGrid */
SRP2[ ]\011/* SetRefPoint2 */
IP[ ]\011/* InterpolatePts */
MDAP[1]\011/* MoveDirectAbsPt */
RTG[ ]\011/* RoundToGrid */
SVTCA[1]\011/* SetFreedomAndProjectionVectorToAxis */
SRP0[ ]\011/* SetRefPoint0 */
MIRP[10101]\011/* MoveIndirectRelPt */
DELTAP1[ ]\011/* DeltaExceptionP1 */
MIRP[10100]\011/* MoveIndirectRelPt */
MDRP[00100]\011/* MoveDirectRelPt */
SVTCA[0]\011/* SetFreedomAndProjectionVectorToAxis */
SFVTL[0]\011/* SetFVectorToLine */
SRP0[ ]\011/* SetRefPoint0 */
MIRP[11101]\011/* MoveIndirectRelPt */
RTDG[ ]\011/* RoundToDoubleGrid */
SRP2[ ]\011/* SetRefPoint2 */
IP[ ]\011/* InterpolatePts */
MDAP[1]\011/* MoveDirectAbsPt */
RTG[ ]\011/* RoundToGrid */
SVTCA[1]\011/* SetFreedomAndProjectionVectorToAxis */
SRP0[ ]\011/* SetRefPoint0 */
MIRP[10001]\011/* MoveIndirectRelPt */
MDAP[1]\011/* MoveDirectAbsPt */
DELTAP1[ ]\011/* DeltaExceptionP1 */
DELTAP2[ ]\011/* DeltaExceptionP2 */
MIRP[10100]\011/* MoveIndirectRelPt */
MDRP[00100]\011/* MoveDirectRelPt */
SVTCA[0]\011/* SetFreedomAndProjectionVectorToAxis */
SRP0[ ]\011/* SetRefPoint0 */
MIRP[11101]\011/* MoveIndirectRelPt */
RTDG[ ]\011/* RoundToDoubleGrid */
SRP2[ ]\011/* SetRefPoint2 */
IP[ ]\011/* InterpolatePts */
MDAP[1]\011/* MoveDirectAbsPt */
RTG[ ]\011/* RoundToGrid */
SVTCA[1]\011/* SetFreedomAndProjectionVectorToAxis */
SRP0[ ]\011/* SetRefPoint0 */
MIRP[10101]\011/* MoveIndirectRelPt */
DELTAP1[ ]\011/* DeltaExceptionP1 */
MIRP[10100]\011/* MoveIndirectRelPt */
MDRP[00100]\011/* MoveDirectRelPt */
SVTCA[0]\011/* SetFreedomAndProjectionVectorToAxis */
SRP0[ ]\011/* SetRefPoint0 */
MIRP[11101]\011/* MoveIndirectRelPt */
RTDG[ ]\011/* RoundToDoubleGrid */
SRP2[ ]\011/* SetRefPoint2 */
IP[ ]\011/* InterpolatePts */
MDAP[1]\011/* MoveDirectAbsPt */
RTG[ ]\011/* RoundToGrid */
SVTCA[1]\011/* SetFreedomAndProjectionVectorToAxis */
SRP0[ ]\011/* SetRefPoint0 */
MIRP[10101]\011/* MoveIndirectRelPt */
MIRP[10100]\011/* MoveIndirectRelPt */
MDRP[00100]\011/* MoveDirectRelPt */
SPVTL[1]\011/* SetPVectorToLine */
SFVTPV[ ]\011/* SetFVectorToPVector */
SRP0[ ]\011/* SetRefPoint0 */
ALIGNRP[ ]\011/* AlignRelativePt */
ALIGNRP[ ]\011/* AlignRelativePt */
PUSHB[ ]\011/* 2 values pushed */
6 2 
RS[ ]\011/* ReadStore */
EQ[ ]\011/* Equal */
IF[ ]\011/* If */
PUSHW[ ]\011/* 2 values pushed */
34 -32 
PUSHB[ ]\011/* 4 values pushed */
25 36 52 33 
PUSHW[ ]\011/* 1 value pushed */
-32 
PUSHB[ ]\011/* 3 values pushed */
25 36 52 
SVTCA[0]\011/* SetFreedomAndProjectionVectorToAxis */
CALL[ ]\011/* CallFunction */
CALL[ ]\011/* CallFunction */
EIF[ ]\011/* EndIf */
IUP[1]\011/* InterpolateUntPts */
IUP[0]\011/* InterpolateUntPts */
SVTCA[1]\011/* SetFreedomAndProjectionVectorToAxis */
DELTAP1[ ]\011/* DeltaExceptionP1 */
DELTAP2[ ]\011/* DeltaExceptionP2 */
SVTCA[0]\011/* SetFreedomAndProjectionVectorToAxis */
DELTAP1[ ]\011/* DeltaExceptionP1 */
DELTAP2[ ]\011/* DeltaExceptionP2 */";
};
width = 1229;
}
);
note = K;
unicode = 004B;
},
